<svg width="16" height="32" viewBox="0 0 16 32" fill="none" xmlns="http://www.w3.org/2000/svg">
<g clip-path="url(#clip0_374_109)">
<path fill-rule="evenodd" clip-rule="evenodd" d="M0.666504 24.0001C0.666504 19.95 3.94975 16.6667 7.99984 16.6667C12.0499 16.6667 15.3332 19.95 15.3332 24.0001C15.3332 28.0502 12.0499 31.3334 7.99984 31.3334C3.94975 31.3334 0.666504 28.0502 0.666504 24.0001ZM4.86177 20.862C5.04032 20.6835 5.30443 20.6211 5.54399 20.701L9.54399 22.0343C9.74306 22.1007 9.89927 22.2569 9.96563 22.4559L11.299 26.4559C11.3788 26.6955 11.3165 26.9596 11.1379 27.1382C10.9594 27.3167 10.6952 27.3791 10.4557 27.2992L6.45569 25.9659C6.25662 25.8995 6.10041 25.7433 6.03405 25.5442L4.70072 21.5442C4.62086 21.3047 4.68321 21.0406 4.86177 20.862Z" fill="#F2F0FF"/>
</g>
<g clip-path="url(#clip1_374_109)">
<path fill-rule="evenodd" clip-rule="evenodd" d="M0.666504 8.00008C0.666504 3.94999 3.94975 0.666748 7.99984 0.666748C12.0499 0.666748 15.3332 3.94999 15.3332 8.00008C15.3332 12.0502 12.0499 15.3334 7.99984 15.3334C3.94975 15.3334 0.666504 12.0502 0.666504 8.00008ZM4.86177 4.86201C5.04032 4.68346 5.30443 4.62111 5.54399 4.70096L9.54399 6.03429C9.74306 6.10065 9.89927 6.25686 9.96563 6.45593L11.299 10.4559C11.3788 10.6955 11.3165 10.9596 11.1379 11.1382C10.9594 11.3167 10.6952 11.3791 10.4557 11.2992L6.45569 9.96587C6.25662 9.89952 6.10041 9.74331 6.03405 9.54424L4.70072 5.54423C4.62086 5.30468 4.68321 5.04057 4.86177 4.86201Z" fill="#101019"/>
</g>
<defs>
<clipPath id="clip0_374_109">
<rect width="16" height="16" fill="white" transform="translate(0 16)"/>
</clipPath>
<clipPath id="clip1_374_109">
<rect width="16" height="16" fill="white"/>
</clipPath>
</defs>
</svg>
