<svg width="319" height="135" viewBox="0 0 319 135" fill="none" xmlns="http://www.w3.org/2000/svg">
<path d="M56.3477 27.2461C56.3477 26.5299 56.2174 26.1719 55.957 26.1719C55.6966 26.1719 52.4089 30.9245 46.0938 40.4297C39.7786 49.8698 33.2031 59.375 26.3672 68.9453C19.5312 78.5156 16.1133 83.6589 16.1133 84.375C16.1133 85.026 17.2201 85.3516 19.4336 85.3516H24.1211L24.9023 85.2539H33.1055C44.3685 85.2539 50.651 84.8958 51.9531 84.1797C53.3203 83.4635 54.0039 81.4453 54.0039 78.125C54.1341 76.9531 54.1992 76.1068 54.1992 75.5859L54.4922 70.3125V68.457L54.8828 61.4258C54.8828 60.5143 54.8828 59.6029 54.8828 58.6914L55.7617 41.9922V40.332L56.1523 33.5938L56.3477 29.4922V27.2461ZM65.4297 134.375C60.6771 134.375 57.1615 132.878 54.8828 129.883C52.6693 126.888 51.5625 121.81 51.5625 114.648C51.5625 110.156 49.5117 106.771 45.4102 104.492C39.2253 101.042 31.8034 99.3164 23.1445 99.3164L20.9961 99.2188C19.5638 99.1536 17.0898 99.1211 13.5742 99.1211C10.0586 99.1211 7.25911 98.5026 5.17578 97.2656C1.72526 95.2474 0 92.3177 0 88.4766C0 82.4219 15.4948 58.724 46.4844 17.3828C54.4271 6.83594 60.7747 1.5625 65.5273 1.5625C70.2799 1.5625 73.2422 3.02734 74.4141 5.95703C75.2604 8.04036 75.6836 18.1641 75.6836 36.3281C75.6836 54.4922 76.3672 65.9831 77.7344 70.8008C79.1667 75.5534 81.1849 79.4922 83.7891 82.6172C84.4401 83.3984 85.6771 84.5703 87.5 86.1328C89.3229 87.6302 90.2344 88.9323 90.2344 90.0391V91.0156C90.2344 95.1172 88.2161 99.0885 84.1797 102.93C80.2083 106.771 78.2227 109.375 78.2227 110.742L78.7109 117.676C78.7109 128.809 74.2839 134.375 65.4297 134.375Z" fill="#BFD2A6"/>
<path d="M133.305 63.9648V73.0469C133.305 85.8724 135.454 96.7773 139.751 105.762C144.048 114.681 150.298 119.173 158.501 119.238H159.868C163.514 119.238 167.029 118.066 170.415 115.723C173.8 113.314 176.567 109.993 178.716 105.762C183.598 95.9961 186.04 83.724 186.04 68.9453V61.2305C186.04 46.7773 183.891 35.2539 179.595 26.6602C175.298 18.0664 169.276 13.7695 161.528 13.7695H160.259C155.962 13.7695 152.055 15.1693 148.54 17.9688C145.024 20.7031 142.322 24.056 140.434 28.0273C135.682 37.9883 133.305 49.9674 133.305 63.9648ZM159.184 0H164.946C170.61 0 176.209 1.46484 181.743 4.39453C199.256 13.6393 208.012 33.6589 208.012 64.4531L207.915 66.5039C207.915 86.2956 203.585 102.409 194.927 114.844C190.76 120.768 185.552 125.293 179.302 128.418C173.052 131.543 166.476 133.105 159.575 133.105H155.766C149.907 133.105 144.276 131.608 138.872 128.613C127.804 122.559 120.48 112.207 116.899 97.5586C114.686 88.7044 113.579 79.8503 113.579 70.9961V64.8438C113.579 55.0781 114.881 45.9635 117.485 37.5C120.089 28.9714 123.312 22.1354 127.153 16.9922C131.059 11.849 135.91 7.7474 141.704 4.6875C147.563 1.5625 153.39 0 159.184 0Z" fill="#BFD2A6"/>
<path d="M284.482 27.2461C284.482 26.5299 284.352 26.1719 284.091 26.1719C283.831 26.1719 280.543 30.9245 274.228 40.4297C267.913 49.8698 261.337 59.375 254.502 68.9453C247.666 78.5156 244.248 83.6589 244.248 84.375C244.248 85.026 245.354 85.3516 247.568 85.3516H252.255L253.037 85.2539H261.24C272.503 85.2539 278.785 84.8958 280.087 84.1797C281.455 83.4635 282.138 81.4453 282.138 78.125C282.268 76.9531 282.334 76.1068 282.334 75.5859L282.627 70.3125V68.457L283.017 61.4258C283.017 60.5143 283.017 59.6029 283.017 58.6914L283.896 41.9922V40.332L284.287 33.5938L284.482 29.4922V27.2461ZM293.564 134.375C288.811 134.375 285.296 132.878 283.017 129.883C280.804 126.888 279.697 121.81 279.697 114.648C279.697 110.156 277.646 106.771 273.545 104.492C267.36 101.042 259.938 99.3164 251.279 99.3164L249.13 99.2188C247.698 99.1536 245.224 99.1211 241.709 99.1211C238.193 99.1211 235.393 98.5026 233.31 97.2656C229.86 95.2474 228.134 92.3177 228.134 88.4766C228.134 82.4219 243.629 58.724 274.619 17.3828C282.561 6.83594 288.909 1.5625 293.662 1.5625C298.414 1.5625 301.377 3.02734 302.548 5.95703C303.395 8.04036 303.818 18.1641 303.818 36.3281C303.818 54.4922 304.502 65.9831 305.869 70.8008C307.301 75.5534 309.319 79.4922 311.923 82.6172C312.574 83.3984 313.811 84.5703 315.634 86.1328C317.457 87.6302 318.369 88.9323 318.369 90.0391V91.0156C318.369 95.1172 316.351 99.0885 312.314 102.93C308.343 106.771 306.357 109.375 306.357 110.742L306.845 117.676C306.845 128.809 302.418 134.375 293.564 134.375Z" fill="#BFD2A6"/>
</svg>
