<svg width="258" height="100" viewBox="0 0 258 100" fill="none" xmlns="http://www.w3.org/2000/svg">
<path d="M40.2205 98.263V82.7543H0V62.4069L42.6956 1.73697H72.8919V63.8958H81.431V82.7543H72.8919V98.263H40.2205ZM22.8947 63.8958H40.2205V39.4541L22.8947 63.8958Z" fill="white"/>
<path d="M128.995 100C115.052 100 104.285 96.0298 96.6945 88.0893C89.1867 80.1489 85.4328 67.4524 85.4328 50C85.4328 32.5476 89.1867 19.8511 96.6945 11.9107C104.285 3.97022 115.052 0 128.995 0C142.938 0 153.663 3.97022 161.171 11.9107C168.761 19.8511 172.557 32.5476 172.557 50C172.557 66.129 169.05 78.4946 162.037 87.0968C155.107 95.6989 144.093 100 128.995 100ZM128.995 77.9156C134.605 77.9156 137.41 74.8552 137.41 68.7345V31.2655C137.41 25.1447 134.605 22.0844 128.995 22.0844C123.384 22.0844 120.579 25.1447 120.579 31.2655V68.7345C120.579 74.8552 123.384 77.9156 128.995 77.9156Z" fill="white"/>
<path d="M216.789 98.263V82.7543H176.569V62.4069L219.265 1.73697H249.461V63.8958H258V82.7543H249.461V98.263H216.789ZM199.464 63.8958H216.789V39.4541L199.464 63.8958Z" fill="white"/>
</svg>
