<svg xmlns="http://www.w3.org/2000/svg" width="12" height="12" viewBox="0 0 12 12" fill="none">
  <path fill-rule="evenodd" clip-rule="evenodd" d="M5.64648 7.43932L1.35359 3.14642L0.646484 3.85353L4.93938 8.14642C4.94579 8.15284 4.9522 8.15925 4.9586 8.16565C5.10851 8.31562 5.25419 8.46136 5.39053 8.56538C5.54423 8.68265 5.74321 8.79287 6.00004 8.79287C6.25687 8.79287 6.45585 8.68265 6.60955 8.56538C6.74588 8.46136 6.89156 8.31562 7.04147 8.16566C7.04787 8.15926 7.05428 8.15284 7.0607 8.14642L11.3536 3.85353L10.6465 3.14642L6.35359 7.43932C6.17693 7.61598 6.07925 7.71216 6.00297 7.77036C6.00197 7.77112 6.001 7.77186 6.00004 7.77258C5.99908 7.77186 5.9981 7.77112 5.99711 7.77036C5.92083 7.71216 5.82315 7.61598 5.64648 7.43932Z" fill="#141A29"/>
</svg>