<svg width="12" height="12" viewBox="0 0 12 12" fill="none" xmlns="http://www.w3.org/2000/svg">
<g clip-path="url(#clip0_352_2849)">
<path fill-rule="evenodd" clip-rule="evenodd" d="M7.56156 0.499966C6.83665 0.499623 6.33289 0.499625 5.87211 0.690396C5.41119 0.881314 5.05456 1.23792 4.54203 1.75094L2.62699 3.66598C2.13506 4.1579 1.73797 4.55427 1.45316 4.90524C1.15908 5.26765 0.947962 5.62498 0.870153 6.04684C0.814931 6.34644 0.814928 6.6535 0.870153 6.95309C0.947962 7.37495 1.15908 7.73228 1.45316 8.09469C1.73796 8.44566 2.13508 8.84205 2.62699 9.33395L2.66605 9.37301C3.15797 9.86495 3.55433 10.262 3.90531 10.5468C4.26772 10.8409 4.62505 11.052 5.04691 11.1298C5.3465 11.1851 5.65357 11.1851 5.95316 11.1298C6.37502 11.052 6.73235 10.8409 7.09476 10.5468C7.44572 10.262 7.84214 9.86491 8.33402 9.37301L10.2491 7.45797C10.7621 6.94544 11.1187 6.58882 11.3096 6.1279C11.5004 5.66711 11.5004 5.16335 11.5 4.43844V3.96481C11.5001 3.28775 11.4999 2.72895 11.4405 2.28708C11.3781 1.82332 11.2421 1.41386 10.9141 1.0859C10.5861 0.757946 10.1767 0.621932 9.71293 0.559537C9.27105 0.500129 8.71225 0.499946 8.03519 0.499966H7.56156ZM7.84965 2.99997C8.31895 2.99997 8.70001 3.38033 8.70023 3.84958C8.70023 4.31902 8.31909 4.70016 7.84965 4.70016C7.38037 4.69997 7.00004 4.3189 7.00004 3.84958C7.00026 3.38045 7.38051 3.00016 7.84965 2.99997Z" fill="#0044FF"/>
</g>
<defs>
<clipPath id="clip0_352_2849">
<rect width="12" height="12" fill="white" transform="matrix(-1 0 0 1 12 0)"/>
</clipPath>
</defs>
</svg>
