<svg xmlns="http://www.w3.org/2000/svg" width="16" height="16" viewBox="0 0 16 16" fill="none">
  <path fill-rule="evenodd" clip-rule="evenodd" d="M7.52848 9.91913L1.80463 4.19527L0.861816 5.13808L6.58567 10.8619C6.59423 10.8705 6.60277 10.879 6.61131 10.8876C6.81118 11.0875 7.00542 11.2818 7.18721 11.4205C7.39214 11.5769 7.65744 11.7239 7.99989 11.7239C8.34233 11.7239 8.60764 11.5769 8.81257 11.4205C8.99435 11.2819 9.18859 11.0875 9.38846 10.8876C9.397 10.879 9.40554 10.8705 9.4141 10.8619L15.138 5.13808L14.1951 4.19527L8.47129 9.91913C8.23574 10.1547 8.1055 10.2829 8.00379 10.3605C8.00247 10.3615 8.00116 10.3625 7.99989 10.3635C7.99861 10.3625 7.99731 10.3615 7.99598 10.3605C7.89427 10.2829 7.76403 10.1547 7.52848 9.91913Z" fill="#465052"/>
</svg>