<svg width="12" height="12" viewBox="0 0 12 12" fill="none" xmlns="http://www.w3.org/2000/svg">
<path fill-rule="evenodd" clip-rule="evenodd" d="M7.43938 5.64645L3.14648 1.35356L3.85359 0.646454L8.14648 4.93935C8.1529 4.94577 8.15931 4.95218 8.16572 4.95858C8.31568 5.10848 8.46142 5.25416 8.56544 5.3905C8.68271 5.5442 8.79293 5.74318 8.79293 6.00001C8.79293 6.25684 8.68271 6.45582 8.56544 6.60952C8.46142 6.74585 8.31569 6.89152 8.16574 7.04142C8.15933 7.04783 8.15291 7.05424 8.14648 7.06067L3.85359 11.3536L3.14648 10.6465L7.43938 6.35356C7.61604 6.1769 7.71222 6.07922 7.77042 6.00294C7.77118 6.00194 7.77192 6.00097 7.77264 6.00001C7.77192 5.99905 7.77118 5.99807 7.77042 5.99708C7.71222 5.9208 7.61604 5.82312 7.43938 5.64645Z" fill="white"/>
</svg>
