<svg width="78" height="24" viewBox="0 0 78 24" fill="none" xmlns="http://www.w3.org/2000/svg">
<g clip-path="url(#clip0_4009_2608)">
<path d="M8.54545 20.3778C13.265 20.3778 17.0909 16.6269 17.0909 12C17.0909 7.37298 13.265 3.62207 8.54545 3.62207C3.82593 3.62207 0 7.37298 0 12C0 16.6269 3.82593 20.3778 8.54545 20.3778Z" fill="url(#paint0_linear_4009_2608)"/>
<path d="M8.54551 6.9735C7.53143 6.9735 6.54012 7.26831 5.69695 7.82065C4.85378 8.373 4.1966 9.15807 3.80853 10.0766C3.42046 10.9951 3.31892 12.0058 3.51676 12.9809C3.7146 13.956 4.20292 14.8517 4.91998 15.5547C5.63704 16.2577 6.55063 16.7364 7.54523 16.9304C8.53982 17.1243 9.57074 17.0248 10.5076 16.6443C11.4445 16.2639 12.2453 15.6196 12.8087 14.7929C13.3721 13.9663 13.6728 12.9944 13.6728 12.0002C13.6712 10.6675 13.1305 9.38983 12.1693 8.44746C11.2081 7.5051 9.90487 6.97501 8.54551 6.9735ZM8.54551 6.08643C9.73854 6.08643 10.9048 6.43326 11.8968 7.08308C12.8887 7.7329 13.6619 8.65651 14.1184 9.73711C14.575 10.8177 14.6944 12.0068 14.4617 13.154C14.2289 14.3011 13.6544 15.3549 12.8108 16.1819C11.9672 17.009 10.8924 17.5722 9.72231 17.8004C8.5522 18.0286 7.33935 17.9115 6.23713 17.4639C5.13491 17.0163 4.19283 16.2583 3.53002 15.2858C2.8672 14.3132 2.51343 13.1699 2.51343 12.0002C2.51343 10.4318 3.14895 8.92759 4.28018 7.81854C5.41142 6.70949 6.9457 6.08643 8.54551 6.08643Z" fill="white"/>
<path d="M11.0336 12.4928C10.6738 12.4935 10.3177 12.4224 9.98682 12.2837C9.6668 12.1498 9.37645 11.9561 9.13198 11.7134C8.62637 11.2125 8.34277 10.5363 8.34277 9.83165C8.34277 9.12697 8.62637 8.45075 9.13198 7.9499C9.37645 7.70717 9.6668 7.51345 9.98682 7.37956C10.3176 7.24092 10.6738 7.16977 11.0336 7.17041C11.6522 7.1701 12.2517 7.38064 12.7293 7.76598C12.8837 7.89034 13.0236 8.03096 13.1465 8.18532L12.3437 8.62836C12.1777 8.4493 11.9755 8.30607 11.7499 8.20778C11.5244 8.1095 11.2804 8.05832 11.0336 8.05748C10.0496 8.05748 9.24911 8.85338 9.24911 9.83163C9.24911 10.8099 10.0497 11.6058 11.0336 11.6058H11.0534L11.0503 11.6541L11.9538 12.333C11.6591 12.4391 11.3476 12.4932 11.0336 12.4928Z" fill="white"/>
<path d="M13.3417 15.571L12.5485 15.1408C12.7252 14.8641 12.8187 14.5442 12.8183 14.2177C12.8183 13.2666 12.0403 12.4929 11.0841 12.4929C11.0751 12.4929 11.0657 12.4929 11.0551 12.4931L11.0149 12.3543L9.89893 11.8835C10.3945 11.6369 10.9573 11.5513 11.5058 11.6389C12.0543 11.7265 12.5603 11.9828 12.9505 12.3708C13.447 12.8621 13.7249 13.5261 13.7234 14.2177C13.7236 14.4593 13.69 14.6997 13.6235 14.9323C13.5592 15.1566 13.4645 15.3714 13.342 15.5711L13.3417 15.571Z" fill="white"/>
<path d="M24.281 16.5461C21.0768 16.5461 19.4746 14.8664 19.4746 11.5072C19.4746 9.82292 19.8945 8.56208 20.7341 7.72465C21.5738 6.88721 22.7561 6.46852 24.281 6.46856C25.1207 6.46856 25.876 6.60814 26.5467 6.88728C27.1953 7.14859 27.7497 7.59339 28.1392 8.16494C28.5301 8.7374 28.7255 9.43523 28.7255 10.2585H26.5684C26.5684 9.62448 26.3609 9.12535 25.9459 8.76107C25.5309 8.3968 24.9904 8.21464 24.3245 8.21459C23.4172 8.21459 22.7416 8.47953 22.2977 9.00939C21.8537 9.53926 21.6317 10.301 21.6317 11.2945V11.7203C21.6317 13.7736 22.5293 14.8002 24.3245 14.8002C25.0291 14.8002 25.5913 14.6205 26.0111 14.2609C26.431 13.9014 26.6409 13.4046 26.6409 12.7706H28.7255C28.7255 13.6033 28.5325 14.3011 28.1465 14.8641C27.7589 15.4284 27.2099 15.8679 26.5684 16.1274C25.9025 16.4065 25.14 16.5461 24.281 16.5461ZM33.7344 16.5461C32.4315 16.5461 31.4615 16.2291 30.8245 15.5951C30.1874 14.9611 29.869 13.977 29.869 12.6426C29.869 11.3084 30.1875 10.3243 30.8245 9.69006C31.4614 9.05586 32.4315 8.73918 33.7347 8.74002C35.0376 8.74002 36.01 9.05701 36.6517 9.69099C37.2935 10.325 37.6144 11.3091 37.6145 12.6435C37.6145 13.9777 37.2936 14.9619 36.6517 15.596C36.0099 16.2302 35.0375 16.5469 33.7347 16.5461H33.7344ZM33.7344 14.9564C34.3811 14.9564 34.8492 14.7743 35.1389 14.41C35.4286 14.0457 35.5733 13.4945 35.5732 12.7564V12.5294C35.5732 11.7913 35.4284 11.2402 35.1389 10.8758C34.8493 10.5115 34.3811 10.3294 33.7344 10.3294C33.0877 10.3294 32.622 10.5116 32.3373 10.8758C32.0526 11.2401 31.9103 11.7913 31.9105 12.5293V12.7564C31.9105 13.4944 32.0529 14.0456 32.3376 14.4099C32.6223 14.7743 33.088 14.9563 33.7347 14.9562L33.7344 14.9564ZM39.1925 8.91002H40.8863L41.0455 10.1165H41.1468C41.3109 9.69066 41.5232 9.35476 41.7838 9.10876C42.0444 8.86276 42.3871 8.73985 42.8118 8.74002C42.9748 8.73787 43.1376 8.75453 43.2967 8.78967C43.3881 8.80803 43.4777 8.83415 43.5645 8.86772V10.6845H43.0143C42.3677 10.6845 41.8995 10.8571 41.6098 11.2025C41.3201 11.5479 41.1754 12.0707 41.1755 12.7709V16.3757H39.1925V8.91002ZM47.9658 16.5461C46.7401 16.5461 45.8256 16.2291 45.2224 15.5951C44.6192 14.9611 44.3175 13.977 44.3175 12.6426C44.3175 11.3084 44.6192 10.3243 45.2224 9.69006C45.8256 9.05586 46.7401 8.73918 47.9658 8.74002C49.095 8.74002 49.9395 9.05937 50.4993 9.69807C51.0591 10.3368 51.339 11.3185 51.339 12.6432V13.0974H46.3298C46.3491 13.7597 46.4841 14.2494 46.7349 14.5664C46.9857 14.8833 47.4055 15.0418 47.9944 15.0418C48.4094 15.0418 48.7448 14.9283 49.0005 14.7011C49.2563 14.474 49.3843 14.1522 49.3846 13.7357H51.339C51.339 14.6725 51.0301 15.3751 50.4124 15.8435C49.7947 16.3119 48.9792 16.5461 47.9658 16.5461ZM49.2832 11.8055C49.2832 10.7741 48.8441 10.2584 47.9658 10.2584C47.4639 10.2584 47.0851 10.3861 46.8294 10.6416C46.5736 10.8971 46.4168 11.2851 46.3588 11.8055H49.2832ZM55.9141 16.5461C54.8524 16.5461 54.02 16.3308 53.4168 15.9003C52.8135 15.4698 52.5119 14.8949 52.5119 14.1758L52.5264 14.0054H54.4518V14.1047C54.4488 14.2547 54.4903 14.4023 54.5713 14.5295C54.6523 14.6568 54.7692 14.7582 54.9079 14.8215C55.2022 14.9682 55.5618 15.0415 55.9865 15.0415C56.3311 15.0497 56.6744 14.9968 56.9999 14.8854C57.2798 14.7813 57.4197 14.611 57.4197 14.3744C57.4197 14.1096 57.2774 13.911 56.9926 13.7786C56.7079 13.6462 56.2615 13.5138 55.6535 13.3814C55.1329 13.27 54.6203 13.1254 54.1189 12.9486C53.725 12.8031 53.3725 12.567 53.091 12.2601C52.8015 11.9478 52.6567 11.5315 52.6567 11.0111C52.6567 10.2825 52.968 9.72186 53.5905 9.3292C54.213 8.93655 55.0166 8.74016 56.0011 8.74002C56.918 8.74002 57.6756 8.92216 58.274 9.28644C58.8724 9.65072 59.1716 10.145 59.1716 10.7693L59.1572 11.0958H57.2313V11.0674C57.2322 10.9422 57.1991 10.8191 57.1355 10.7106C57.0719 10.6021 56.9801 10.5122 56.8693 10.45C56.6377 10.3128 56.324 10.2442 55.9283 10.2442C55.5326 10.2442 55.2189 10.2962 54.9872 10.4003C54.7556 10.5044 54.6397 10.651 54.6397 10.8403C54.6397 11.0768 54.7725 11.2519 55.0381 11.3655C55.3037 11.479 55.7308 11.5926 56.3193 11.7061C56.8535 11.8173 57.3804 11.9595 57.8974 12.1319C58.3031 12.2741 58.6663 12.5131 58.9542 12.8274C59.2534 13.1491 59.403 13.5844 59.403 14.1332C59.4029 15.7418 58.2398 16.5461 55.9138 16.5461H55.9141ZM64.3109 16.5461C63.0079 16.5461 62.038 16.2291 61.4009 15.5951C60.7639 14.9611 60.4454 13.977 60.4454 12.6426C60.4454 11.3084 60.7639 10.3243 61.4009 9.69006C62.038 9.05586 63.0079 8.73918 64.3106 8.74002C65.6136 8.74002 66.5859 9.05701 67.2277 9.69099C67.8694 10.325 68.1903 11.3091 68.1904 12.6435C68.1904 13.9777 67.8695 14.9619 67.2277 15.596C66.5858 16.2302 65.6135 16.5469 64.3106 16.5461H64.3109ZM64.3109 14.9564C64.9576 14.9564 65.4257 14.7743 65.7154 14.41C66.0051 14.0457 66.1498 13.4945 66.1497 12.7564V12.5294C66.1497 11.7913 66.0049 11.2402 65.7154 10.8758C65.4258 10.5115 64.9577 10.3294 64.3109 10.3294C63.6642 10.3294 63.1985 10.5116 62.9138 10.8758C62.6291 11.2401 62.4866 11.7913 62.4865 12.5293V12.7564C62.4865 13.4944 62.6288 14.0456 62.9135 14.4099C63.1983 14.7743 63.664 14.9563 64.3106 14.9562L64.3109 14.9564ZM69.9564 10.4997H68.8707V8.91002H69.9564V8.05816C69.9564 7.4715 70.1157 6.98184 70.4342 6.58918C70.7527 6.19653 71.2787 6.00013 72.0122 6C72.236 6.0022 72.4591 6.02597 72.6781 6.07097C72.8842 6.10914 73.0872 6.1613 73.2859 6.22707V7.5896H72.5629C72.1479 7.5896 71.9404 7.79303 71.9404 8.1999V8.90956H73.2867V10.4992H71.9401V16.3757H69.9564V10.4997ZM76.6305 16.5461C75.9162 16.5461 75.4047 16.3568 75.0958 15.9783C74.787 15.5999 74.6326 15.122 74.6328 14.5448V10.5H73.7208V8.91002H74.6764L75.0093 6.80943H76.6164V8.91002H77.9338V10.4997H76.6164V14.3459C76.6164 14.7528 76.8239 14.9562 77.2389 14.9562H77.9338V16.3189C77.7328 16.3852 77.5271 16.4374 77.3185 16.475C77.0921 16.5204 76.8618 16.5442 76.6307 16.5461H76.6305Z" fill="white"/>
</g>
<defs>
<linearGradient id="paint0_linear_4009_2608" x1="8.54545" y1="3.62207" x2="8.54545" y2="20.3778" gradientUnits="userSpaceOnUse">
<stop stop-color="#FF9800"/>
<stop offset="1" stop-color="#F44336"/>
</linearGradient>
<clipPath id="clip0_4009_2608">
<rect width="78" height="24" fill="white"/>
</clipPath>
</defs>
</svg>
