<svg width="12" height="12" viewBox="0 0 12 12" fill="none" xmlns="http://www.w3.org/2000/svg">
<g clip-path="url(#clip0_352_2823)">
<path fill-rule="evenodd" clip-rule="evenodd" d="M4.96342 0.5H5H7H7.03659H7.0366H7.03661C7.94832 0.499987 8.6832 0.499977 9.26117 0.577683C9.86124 0.658361 10.3665 0.830957 10.7678 1.23223C11.169 1.63351 11.3416 2.13876 11.4223 2.73883C11.5 3.31681 11.5 4.0517 11.5 4.96343V5V7V7.03657C11.5 7.9483 11.5 8.68319 11.4223 9.26117C11.3416 9.86124 11.169 10.3665 10.7678 10.7678C10.3665 11.169 9.86124 11.3416 9.26117 11.4223C8.68319 11.5 7.9483 11.5 7.03657 11.5H7H5H4.96343C4.0517 11.5 3.31682 11.5 2.73883 11.4223C2.13876 11.3416 1.63351 11.169 1.23223 10.7678C0.830957 10.3665 0.658361 9.86124 0.577683 9.26117C0.499977 8.6832 0.499987 7.94832 0.5 7.03661V7.0366V7.03658V7V5V4.96342V4.96341V4.9634C0.499987 4.05168 0.499977 3.31681 0.577683 2.73883C0.658361 2.13876 0.830957 1.63351 1.23223 1.23223C1.63351 0.830957 2.13876 0.658361 2.73883 0.577683C3.31681 0.499977 4.05168 0.499987 4.9634 0.5H4.96341H4.96342ZM9 4C9 4.55229 8.55229 5 8 5C7.44772 5 7 4.55229 7 4C7 3.44772 7.44772 3 8 3C8.55229 3 9 3.44772 9 4ZM2 7C2 6.54726 2.17985 6.11306 2.49999 5.79292L2.5858 5.70711C3.36685 4.92606 4.63318 4.92606 5.41423 5.70711L6.60357 6.89645C6.82252 7.1154 7.17751 7.1154 7.39646 6.89645C8.00594 6.28697 8.99409 6.28697 9.60357 6.89645C9.85728 7.15016 10.0008 7.49442 9.99725 7.85321C9.9921 8.36619 9.97742 8.75094 9.93569 9.0613C9.87738 9.49504 9.78323 9.63098 9.70711 9.70711C9.63098 9.78323 9.49504 9.87738 9.0613 9.93569C8.59879 9.99788 7.97108 10 7 10H5C4.02892 10 3.40121 9.99788 2.9387 9.93569C2.50496 9.87738 2.36902 9.78323 2.29289 9.70711C2.21677 9.63098 2.12262 9.49504 2.06431 9.0613C2.00212 8.59879 2 7.97108 2 7Z" fill="white"/>
</g>
<defs>
<clipPath id="clip0_352_2823">
<rect width="12" height="12" fill="white"/>
</clipPath>
</defs>
</svg>
