<svg width="20" height="20" viewBox="0 0 20 20" fill="none" xmlns="http://www.w3.org/2000/svg">
<path d="M2.49992 10C2.49992 7.54713 3.67654 5.36933 5.49967 3.99957L4.49854 2.66708C2.27445 4.33809 0.833252 7.00086 0.833252 10C0.833252 12.9991 2.27445 15.6619 4.49854 17.3329L5.49967 16.0004C3.67654 14.6307 2.49992 12.4529 2.49992 10Z" fill="white"/>
<path d="M14.5002 3.99957C16.3233 5.36933 17.4999 7.54713 17.4999 10C17.4999 12.4529 16.3233 14.6307 14.5002 16.0004L15.5013 17.3329C17.7254 15.6619 19.1666 12.9991 19.1666 10C19.1666 7.00086 17.7254 4.33809 15.5013 2.66708L14.5002 3.99957Z" fill="white"/>
<path d="M7.18737 7.3172C6.33797 7.99716 5.83325 8.95783 5.83325 9.99997C5.83325 11.0421 6.33797 12.0028 7.18737 12.6827L6.1458 13.9839C4.94937 13.0261 4.16659 11.6068 4.16659 9.99997C4.16659 8.39317 4.94937 6.97385 6.1458 6.01608L7.18737 7.3172Z" fill="white"/>
<path d="M14.1666 9.99997C14.1666 8.95783 13.6619 7.99716 12.8125 7.3172L13.854 6.01608C15.0505 6.97385 15.8333 8.39317 15.8333 9.99997C15.8333 11.6068 15.0505 13.0261 13.854 13.9839L12.8125 12.6827C13.6619 12.0028 14.1666 11.0421 14.1666 9.99997Z" fill="white"/>
<path d="M9.99992 7.50005C8.61921 7.50005 7.49992 8.61934 7.49992 10.0001C7.49992 11.3808 8.61921 12.5001 9.99992 12.5001C11.3806 12.5001 12.4999 11.3808 12.4999 10.0001C12.4999 8.61934 11.3806 7.50005 9.99992 7.50005Z" fill="white"/>
</svg>
