<svg width="24" height="24" viewBox="0 0 24 24" fill="none" xmlns="http://www.w3.org/2000/svg">
<path d="M5.6507 8.24072L4.34912 9.75924L6.76006 11.8258L4.29297 14.2928L5.70718 15.7071L8.28516 13.1291C8.83683 13.5933 9.32718 13.9858 9.77901 14.2843C10.4715 14.7416 11.1747 15.0487 11.9999 15.0487C12.8251 15.0487 13.5283 14.7416 14.2208 14.2843C14.6727 13.9858 15.1631 13.5932 15.7148 13.129L18.2928 15.7071L19.707 14.2928L17.2399 11.8257L19.6507 9.75924L18.3491 8.24072L15.2539 10.8938C14.3026 11.7092 13.6586 12.2587 13.1186 12.6154C12.602 12.9566 12.2845 13.0487 11.9999 13.0487C11.7153 13.0487 11.3979 12.9566 10.8812 12.6154C10.3412 12.2587 9.69726 11.7092 8.74596 10.8938L5.6507 8.24072Z" fill="#0044FF"/>
<path fill-rule="evenodd" clip-rule="evenodd" d="M14.0732 3H9.92684C8.10339 2.99997 6.63362 2.99995 5.47767 3.15537C4.27752 3.31672 3.26702 3.66191 2.46447 4.46447C1.66191 5.26702 1.31672 6.27752 1.15537 7.47767C0.999952 8.63362 0.999974 10.1034 1 11.9268V12.0732C0.999974 13.8966 0.999952 15.3664 1.15537 16.5223C1.31672 17.7225 1.66191 18.733 2.46447 19.5355C3.26702 20.3381 4.27752 20.6833 5.47767 20.8446C6.63363 21.0001 8.1034 21 9.92686 21H14.0731C15.8966 21 17.3664 21.0001 18.5223 20.8446C19.7225 20.6833 20.733 20.3381 21.5355 19.5355C22.3381 18.733 22.6833 17.7225 22.8446 16.5223C23.0001 15.3664 23 13.8966 23 12.0731V11.9269C23 10.1034 23.0001 8.63363 22.8446 7.47767C22.6833 6.27752 22.3381 5.26702 21.5355 4.46447C20.733 3.66191 19.7225 3.31672 18.5223 3.15537C17.3664 2.99995 15.8966 2.99997 14.0732 3ZM3.87868 5.87868C4.2477 5.50966 4.7658 5.26907 5.74416 5.13753C6.7513 5.00213 8.08611 5 10 5H14C15.9139 5 17.2487 5.00213 18.2558 5.13753C19.2342 5.26907 19.7523 5.50966 20.1213 5.87868C20.4903 6.2477 20.7309 6.7658 20.8625 7.74416C20.9979 8.7513 21 10.0861 21 12C21 13.9139 20.9979 15.2487 20.8625 16.2558C20.7309 17.2342 20.4903 17.7523 20.1213 18.1213C19.7523 18.4903 19.2342 18.7309 18.2558 18.8625C17.2487 18.9979 15.9139 19 14 19H10C8.08611 19 6.7513 18.9979 5.74416 18.8625C4.76579 18.7309 4.2477 18.4903 3.87868 18.1213C3.50966 17.7523 3.26907 17.2342 3.13753 16.2558C3.00213 15.2487 3 13.9139 3 12C3 10.0861 3.00213 8.7513 3.13753 7.74416C3.26907 6.7658 3.50966 6.2477 3.87868 5.87868Z" fill="#0044FF"/>
</svg>
