<svg width="20" height="20" viewBox="0 0 20 20" fill="none" xmlns="http://www.w3.org/2000/svg">
<path d="M1.66663 18.3333L2.84289 14.0576C2.12015 12.8033 1.74059 11.3807 1.74245 9.93304C1.73408 5.37124 5.43866 1.66667 9.99159 1.66667C12.2013 1.66667 14.2762 2.52339 15.8385 4.08616C16.6085 4.85222 17.2189 5.76347 17.6342 6.76712C18.0495 7.77076 18.2615 8.84686 18.258 9.93304C18.258 14.486 14.5534 18.1905 9.99996 18.1905C8.61394 18.1905 7.26141 17.8459 6.05166 17.1827L1.66663 18.3333ZM6.24516 15.6957L6.49725 15.8469C7.55537 16.473 8.76211 16.8037 9.99159 16.8045C13.772 16.8045 16.8552 13.7218 16.8552 9.94091C16.8552 8.1098 16.1413 6.37961 14.8473 5.08616C14.211 4.44627 13.4544 3.93864 12.621 3.59251C11.7876 3.24638 10.894 3.0686 9.99159 3.06942C6.20281 3.06992 3.12059 6.15263 3.12059 9.93353C3.12059 11.227 3.48199 12.4958 4.17081 13.5879L4.33034 13.8483L3.63314 16.385L6.24565 15.6962L6.24516 15.6957Z" fill="white"/>
<path fill-rule="evenodd" clip-rule="evenodd" d="M7.93349 6.47218C7.78233 6.12752 7.61443 6.11915 7.47165 6.11915C7.3456 6.11078 7.21069 6.11078 7.06791 6.11078C6.93398 6.11078 6.707 6.161 6.51399 6.37124C6.32049 6.58099 5.79169 7.07681 5.79169 8.09306C5.79169 9.1098 6.53073 10.0926 6.63167 10.227C6.73211 10.3614 8.05954 12.5116 10.16 13.3437C11.9069 14.0325 12.2599 13.8981 12.6381 13.8557C13.0157 13.8139 13.8562 13.3604 14.0325 12.873C14.2004 12.3944 14.2004 11.9744 14.1501 11.8902C14.0999 11.8065 13.9566 11.7558 13.7553 11.6465C13.545 11.546 12.5371 11.0418 12.3441 10.9744C12.1506 10.9074 12.0162 10.874 11.8818 11.0753C11.7474 11.2856 11.3525 11.7474 11.2269 11.8818C11.1088 12.0162 10.9832 12.033 10.7813 11.9321C10.5716 11.8316 9.90789 11.613 9.11813 10.9074C8.50464 10.3609 8.09302 9.68094 7.96697 9.47957C7.84979 9.26932 7.95023 9.16002 8.05954 9.05908C8.1521 8.96701 8.26978 8.81585 8.37071 8.69818C8.47116 8.58001 8.50464 8.48794 8.58046 8.35352C8.64742 8.2191 8.61394 8.09306 8.56372 7.99261C8.51301 7.90005 8.11862 6.88331 7.93349 6.47169V6.47218Z" fill="white"/>
</svg>
