<svg width="16" height="32" viewBox="0 0 16 32" fill="none" xmlns="http://www.w3.org/2000/svg">
<path fill-rule="evenodd" clip-rule="evenodd" d="M5.79957 17.5534L5.75863 17.5252C5.3352 17.2341 4.95716 16.9741 4.63869 16.818C4.3105 16.6571 3.84872 16.5071 3.37911 16.7541C2.9095 17.0011 2.77156 17.4667 2.71819 17.8282C2.66641 18.1791 2.66645 18.6379 2.66651 19.1518L2.66651 19.1518L2.66651 19.2015V28.7987L2.66651 28.8484C2.66645 29.3623 2.66641 29.8211 2.71819 30.1719C2.77156 30.5335 2.9095 30.9991 3.37911 31.2461C3.84872 31.4931 4.3105 31.3431 4.63869 31.1822C4.95715 31.0261 5.33519 30.7661 5.75862 30.475L5.79957 30.4468L12.7794 25.6482L12.8165 25.6227C13.1471 25.3955 13.4538 25.1847 13.6716 24.9823C13.9079 24.7627 14.1564 24.4479 14.1564 24.0001C14.1564 23.5523 13.9079 23.2375 13.6716 23.0179C13.4538 22.8155 13.1471 22.6047 12.8165 22.3775L12.7794 22.352L5.79957 17.5534Z" fill="#F2F0FF"/>
<path fill-rule="evenodd" clip-rule="evenodd" d="M5.79957 1.55338L5.75863 1.52523C5.3352 1.23406 4.95716 0.974094 4.63869 0.817993C4.3105 0.657125 3.84872 0.507051 3.37911 0.754079C2.9095 1.00111 2.77156 1.46665 2.71819 1.82823C2.66641 2.1791 2.66645 2.6379 2.66651 3.15178L2.66651 3.15178L2.66651 3.20146V12.7987L2.66651 12.8484C2.66645 13.3623 2.66641 13.8211 2.71819 14.1719C2.77156 14.5335 2.9095 14.9991 3.37911 15.2461C3.84872 15.4931 4.3105 15.3431 4.63869 15.1822C4.95715 15.0261 5.33519 14.7661 5.75862 14.475L5.79957 14.4468L12.7794 9.64817L12.8165 9.62268C13.1471 9.39546 13.4538 9.18467 13.6716 8.98232C13.9079 8.76272 14.1564 8.44787 14.1564 8.00009C14.1564 7.55231 13.9079 7.23746 13.6716 7.01786C13.4538 6.8155 13.1471 6.60471 12.8165 6.37749L12.7794 6.352L5.79957 1.55338Z" fill="#101019"/>
</svg>
