<svg width="20" height="20" viewBox="0 0 20 20" fill="none" xmlns="http://www.w3.org/2000/svg">
<path fill-rule="evenodd" clip-rule="evenodd" d="M18.3333 10C18.3333 14.6024 14.6023 18.3333 9.99996 18.3333C5.39759 18.3333 1.66663 14.6024 1.66663 10C1.66663 5.39763 5.39759 1.66667 9.99996 1.66667C14.6023 1.66667 18.3333 5.39763 18.3333 10ZM10.2986 7.8187C9.48804 8.15583 7.8681 8.85361 5.43877 9.91203C5.04428 10.0689 4.83763 10.2224 4.81882 10.3724C4.78702 10.626 5.10461 10.7259 5.53709 10.8619C5.59591 10.8804 5.65686 10.8996 5.71935 10.9199C6.14484 11.0582 6.71719 11.22 7.01473 11.2264C7.28463 11.2322 7.58587 11.121 7.91845 10.8926C10.1883 9.36042 11.3599 8.58598 11.4335 8.56929C11.4854 8.55751 11.5573 8.5427 11.606 8.58601C11.6548 8.62931 11.65 8.71133 11.6448 8.73334C11.6133 8.86746 10.3667 10.0265 9.72155 10.6262C9.52044 10.8132 9.37778 10.9459 9.34862 10.9761C9.28329 11.044 9.2167 11.1082 9.15271 11.1699C8.75743 11.5509 8.461 11.8367 9.16913 12.3033C9.50942 12.5276 9.78172 12.713 10.0534 12.898C10.3501 13.1001 10.646 13.3016 11.0288 13.5526C11.1264 13.6165 11.2196 13.6829 11.3103 13.7476C11.6556 13.9937 11.9657 14.2149 12.349 14.1796C12.5716 14.1591 12.8017 13.9497 12.9185 13.3253C13.1945 11.8494 13.7372 8.65171 13.8626 7.33401C13.8736 7.21856 13.8598 7.07081 13.8487 7.00595C13.8376 6.9411 13.8144 6.84869 13.7301 6.78028C13.6302 6.69926 13.4761 6.68218 13.4071 6.68333C13.0937 6.68891 12.6128 6.85612 10.2986 7.8187Z" fill="white"/>
</svg>
