<svg width="24" height="24" viewBox="0 0 24 24" fill="none" xmlns="http://www.w3.org/2000/svg">
<path fill-rule="evenodd" clip-rule="evenodd" d="M3.46861 3.05323C3.79206 3.00285 4.24328 3.00001 4.99999 3.00001H6.56825C7.05845 3.00001 7.3483 3.00132 7.56419 3.02427C7.7507 3.04409 7.79465 3.07295 7.80405 3.07913C7.80434 3.07931 7.80383 3.07898 7.80405 3.07913L7.80559 3.08011C7.8151 3.08612 7.85956 3.11419 7.95478 3.27577C8.06501 3.46282 8.18614 3.72614 8.38899 4.17241L9.32665 6.23528C9.49409 6.60364 9.59274 6.82277 9.65326 6.99371C9.70659 7.14434 9.7042 7.189 9.70387 7.1951C9.70193 7.24084 9.69371 7.28651 9.67946 7.33001C9.67762 7.33584 9.66406 7.37889 9.56123 7.50121C9.44455 7.64002 9.27524 7.81055 8.98912 8.09667L8.95833 8.12745C8.66364 8.42209 8.39068 8.69499 8.18466 8.94923C7.95649 9.23081 7.75605 9.55263 7.6617 9.96283C7.60269 10.2193 7.58427 10.5135 7.61082 10.7754C7.68414 11.4987 8.11327 12.0475 8.52621 12.5757C8.55725 12.6153 8.58819 12.6549 8.61888 12.6944C9.43161 13.7409 10.2572 14.5668 11.3056 15.381C11.3451 15.4117 11.3847 15.4427 11.4244 15.4737C11.9525 15.8867 12.5013 16.3158 13.2247 16.3891C13.4865 16.4157 13.7807 16.3973 14.0372 16.3383C14.4474 16.2439 14.7692 16.0435 15.0508 15.8153C15.305 15.6093 15.5779 15.3363 15.8726 15.0417L15.9033 15.0109C16.1895 14.7248 16.36 14.5555 16.4988 14.4388C16.6211 14.3359 16.6638 14.3225 16.6696 14.3207C16.7131 14.3064 16.7588 14.2981 16.8045 14.2962C16.8106 14.2958 16.8557 14.2934 17.0063 14.3467C17.1772 14.4073 17.3964 14.5059 17.7647 14.6733L19.8276 15.611C20.2739 15.8139 20.5372 15.935 20.7242 16.0452C20.8858 16.1404 20.9139 16.1849 20.9199 16.1944C20.92 16.1946 20.9207 16.1957 20.9209 16.196C20.9271 16.2054 20.9559 16.2493 20.9757 16.4358C20.9987 16.6517 21 16.9416 21 17.4317V19.3453C21 19.9128 20.9983 20.2497 20.9684 20.4983C20.9427 20.7109 20.9062 20.7573 20.8973 20.7686C20.897 20.769 20.8967 20.7694 20.8964 20.7697C20.8658 20.8095 20.7936 20.8729 20.7501 20.898C20.7243 20.9129 20.679 20.939 20.5007 20.9389C20.2834 20.9387 19.9947 20.9025 19.4838 20.835C16.6515 20.4604 14.0162 19.462 11.7198 17.9815C10.5578 17.2325 9.48262 16.36 8.51277 15.3826C7.57766 14.4403 6.7407 13.4006 6.01846 12.2802C4.59473 10.0717 3.61678 7.5499 3.21082 4.84093C3.10843 4.15772 3.05347 3.76864 3.05895 3.48297C3.06325 3.25881 3.10342 3.2122 3.13557 3.17491L3.1366 3.17371C3.13732 3.17287 3.13808 3.17196 3.1389 3.17099C3.15699 3.14935 3.20271 3.09465 3.46861 3.05323ZM3.16077 1.07706C2.60235 1.16405 2.05332 1.36681 1.62121 1.86849C1.20471 2.35206 1.06992 2.89192 1.05932 3.44461C1.0502 3.91982 1.13415 4.47922 1.22263 5.06884C1.22605 5.09163 1.22948 5.11446 1.2329 5.13734C1.68191 8.13352 2.76379 10.9227 4.33747 13.3639C5.13562 14.602 6.06026 15.7505 7.0931 16.7914C8.16429 17.8709 9.35207 18.8347 10.6361 19.6625C13.1746 21.2989 16.0893 22.4035 19.2216 22.8177C19.2387 22.82 19.2557 22.8222 19.2728 22.8245C19.714 22.8829 20.1348 22.9386 20.4992 22.9389C20.9159 22.9392 21.3346 22.87 21.7503 22.6299C22.0208 22.4737 22.292 22.236 22.4823 21.9884C22.7857 21.5935 22.9028 21.1619 22.954 20.7376C23.0001 20.355 23.0001 19.8956 23 19.3966L23 17.3872C23 16.9565 23.0001 16.5588 22.9645 16.2244C22.9253 15.8548 22.8358 15.4757 22.6019 15.1124C22.368 14.7491 22.0599 14.5109 21.7397 14.3222C21.45 14.1515 21.0879 13.9869 20.6957 13.8087L18.5594 12.8376C18.2349 12.6901 17.9362 12.5543 17.6737 12.4614C17.3862 12.3596 17.0738 12.283 16.72 12.2979C16.4913 12.3076 16.265 12.3486 16.0475 12.4199C15.711 12.5301 15.4453 12.7116 15.2119 12.9078C14.9987 13.087 14.7667 13.319 14.5147 13.5711L14.4891 13.5967C14.1533 13.9325 13.9547 14.1293 13.7917 14.2614C13.6512 14.3753 13.6013 14.3864 13.5898 14.3889C13.5463 14.399 13.4708 14.4038 13.4264 14.3993C13.4029 14.3969 13.3574 14.3923 13.2265 14.3125C13.0693 14.2166 12.8756 14.068 12.5324 13.8015C11.6159 13.0896 10.9088 12.3823 10.1985 11.4677C9.9319 11.1245 9.78332 10.9308 9.68747 10.7735C9.60768 10.6426 9.603 10.5972 9.60062 10.5737C9.59612 10.5293 9.60078 10.4547 9.6108 10.4112C9.61335 10.3997 9.62467 10.3489 9.73853 10.2084C9.87063 10.0454 10.0675 9.84673 10.4033 9.51088L10.4289 9.48529C10.681 9.23327 10.913 9.00127 11.0922 8.78815C11.2884 8.55467 11.4699 8.28902 11.5801 7.9525C11.6514 7.73498 11.6924 7.50871 11.7021 7.28003C11.717 6.92624 11.6404 6.61379 11.5386 6.32626C11.4457 6.0638 11.3099 5.76511 11.1624 5.44066L10.1913 3.30424C10.0131 2.91213 9.84855 2.55003 9.67784 2.26035C9.48914 1.94015 9.25087 1.632 8.88759 1.39808C8.52431 1.16416 8.14517 1.07475 7.77559 1.03547C7.44124 0.999929 7.04349 0.999968 6.61278 1.00001L4.99999 1.00001C4.97703 1.00001 4.95412 1.00001 4.93128 1.00001C4.26648 0.999915 3.65657 0.999832 3.16077 1.07706Z" fill="#0044FF"/>
</svg>
