<svg width="20" height="40" viewBox="0 0 20 40" fill="none" xmlns="http://www.w3.org/2000/svg">
<g clip-path="url(#clip0_367_25)">
<path d="M9.16683 23.3333V20.8333H10.8335V23.3333H9.16683Z" fill="#F5F5FA"/>
<path fill-rule="evenodd" clip-rule="evenodd" d="M4.16683 29.9999C4.16683 26.7783 6.7785 24.1666 10.0002 24.1666C13.2218 24.1666 15.8335 26.7783 15.8335 29.9999C15.8335 33.2216 13.2218 35.8333 10.0002 35.8333C6.7785 35.8333 4.16683 33.2216 4.16683 29.9999ZM10.0002 25.8333C7.69898 25.8333 5.8335 27.6987 5.8335 29.9999C5.8335 32.3011 7.69898 34.1666 10.0002 34.1666C12.3014 34.1666 14.1668 32.3011 14.1668 29.9999C14.1668 27.6987 12.3014 25.8333 10.0002 25.8333Z" fill="#F5F5FA"/>
<path d="M15.8929 22.9288L14.1251 24.6966L15.3036 25.8751L17.0714 24.1073L15.8929 22.9288Z" fill="#F5F5FA"/>
<path d="M16.6668 29.1666H19.1668V30.8333H16.6668V29.1666Z" fill="#F5F5FA"/>
<path d="M17.0713 35.8925L15.3035 34.1247L14.125 35.3032L15.8928 37.071L17.0713 35.8925Z" fill="#F5F5FA"/>
<path d="M9.16683 39.1666V36.6666H10.8335V39.1666H9.16683Z" fill="#F5F5FA"/>
<path d="M4.69702 34.1247L2.92925 35.8924L4.10777 37.071L5.87553 35.3032L4.69702 34.1247Z" fill="#F5F5FA"/>
<path d="M0.833496 29.1666H3.3335V30.8333H0.833496V29.1666Z" fill="#F5F5FA"/>
<path d="M5.87541 24.6966L4.10764 22.9288L2.92913 24.1073L4.6969 25.8751L5.87541 24.6966Z" fill="#F5F5FA"/>
</g>
<g clip-path="url(#clip1_367_25)">
<path fill-rule="evenodd" clip-rule="evenodd" d="M8.72391 2.65546C5.1523 3.36368 2.50016 6.40439 2.50016 9.99992C2.50016 14.1129 5.97065 17.4999 10.318 17.4999C12.7255 17.4999 14.8696 16.4577 16.3002 14.8282C15.766 14.9407 15.2117 14.9999 14.6436 14.9999C10.3907 14.9999 6.88931 11.6712 6.88931 7.49992C6.88931 5.64779 7.58249 3.95886 8.72391 2.65546ZM0.833496 9.99992C0.833496 4.90818 5.10952 0.833252 10.318 0.833252C10.6465 0.833252 10.9713 0.849418 11.2916 0.881018C11.6549 0.916852 11.9525 1.18492 12.0261 1.54246C12.0996 1.89999 11.9319 2.26377 11.6123 2.44004C9.77401 3.45383 8.55597 5.34817 8.55597 7.49992C8.55597 10.6925 11.2518 13.3333 14.6436 13.3333C15.8446 13.3333 16.9605 13.0007 17.9005 12.4291C18.2094 12.2412 18.6043 12.274 18.8781 12.5103C19.1518 12.7466 19.2419 13.1325 19.1011 13.4656C17.6821 16.8219 14.2744 19.1666 10.318 19.1666C5.10952 19.1666 0.833496 15.0917 0.833496 9.99992Z" fill="#141A29"/>
</g>
<defs>
<clipPath id="clip0_367_25">
<rect width="20" height="20" fill="white" transform="translate(0 20)"/>
</clipPath>
<clipPath id="clip1_367_25">
<rect width="20" height="20" fill="white"/>
</clipPath>
</defs>
</svg>
