<svg width="16" height="16" viewBox="0 0 16 16" fill="none" xmlns="http://www.w3.org/2000/svg">
<path fill-rule="evenodd" clip-rule="evenodd" d="M8.00004 0.666748C7.65534 0.666748 7.36748 0.929523 7.33614 1.2728L6.8391 6.71653C6.81469 6.98388 6.50269 7.11671 6.29306 6.949C6.2469 6.91207 6.21126 6.86364 6.18974 6.80858L4.73262 3.08155C4.64773 2.8644 4.45556 2.70738 4.22585 2.66747C3.99613 2.62756 3.76226 2.71055 3.60909 2.88634C2.21347 4.48805 1.33337 6.75433 1.33337 8.95246C1.33337 10.9673 2.07442 12.5827 3.31367 13.6879C4.54298 14.7842 6.21064 15.3334 8.00004 15.3334C9.78944 15.3334 11.4571 14.7842 12.6864 13.6879C13.9257 12.5827 14.6667 10.9673 14.6667 8.95246C14.6667 6.85696 13.3546 4.79383 11.9821 3.30961C11.2835 2.55406 10.5371 1.91316 9.868 1.45577C9.53385 1.22734 9.20864 1.03756 8.90982 0.902378C8.62607 0.774015 8.30588 0.666748 8.00004 0.666748Z" fill="#2D1595"/>
</svg>
