<svg width="24" height="24" viewBox="0 0 24 24" fill="none" xmlns="http://www.w3.org/2000/svg">
<path fill-rule="evenodd" clip-rule="evenodd" d="M12 5.99982C9.79086 5.99982 8 7.79068 8 9.99982C8 12.209 9.79086 13.9998 12 13.9998C14.2091 13.9998 16 12.209 16 9.99982C16 7.79068 14.2091 5.99982 12 5.99982ZM10 9.99982C10 8.89525 10.8954 7.99982 12 7.99982C13.1046 7.99982 14 8.89525 14 9.99982C14 11.1044 13.1046 11.9998 12 11.9998C10.8954 11.9998 10 11.1044 10 9.99982Z" fill="#0044FF"/>
<path fill-rule="evenodd" clip-rule="evenodd" d="M12 0.999817C7.04434 0.999817 3 4.9585 3 9.87482C3 10.8684 3.32698 11.9569 3.78465 13.0159C4.24904 14.0906 4.88395 15.2155 5.57756 16.3042C6.96511 18.4821 8.63793 20.5927 9.80047 21.9846C10.955 23.367 13.045 23.367 14.1995 21.9846C15.3621 20.5927 17.0349 18.4821 18.4224 16.3042C19.116 15.2155 19.751 14.0906 20.2154 13.0159C20.673 11.9569 21 10.8684 21 9.87482C21 4.9585 16.9557 0.999817 12 0.999817ZM5 9.87482C5 6.09265 8.1191 2.99982 12 2.99982C15.8809 2.99982 19 6.09265 19 9.87482C19 10.4694 18.7937 11.264 18.3794 12.2226C17.972 13.1655 17.3964 14.1925 16.7357 15.2296C15.4146 17.3031 13.8034 19.3388 12.6645 20.7026C12.3095 21.1277 11.6905 21.1277 11.3355 20.7026C10.1966 19.3388 8.58539 17.3031 7.26431 15.2296C6.60361 14.1925 6.02805 13.1655 5.62055 12.2226C5.20633 11.264 5 10.4694 5 9.87482Z" fill="#0044FF"/>
</svg>
