<svg width="20" height="20" viewBox="0 0 20 20" fill="none" xmlns="http://www.w3.org/2000/svg">
<path d="M18.3334 2.89199V17.1077C18.3334 17.4327 18.2043 17.7444 17.9745 17.9742C17.7447 18.2041 17.4329 18.3332 17.1079 18.3332H2.89224C2.56722 18.3332 2.25551 18.2041 2.02569 17.9742C1.79586 17.7444 1.66675 17.4327 1.66675 17.1077V2.89199C1.66675 2.56697 1.79586 2.25527 2.02569 2.02544C2.25551 1.79562 2.56722 1.6665 2.89224 1.6665L17.1079 1.6665C17.4329 1.6665 17.7447 1.79562 17.9745 2.02544C18.2043 2.25527 18.3334 2.56697 18.3334 2.89199ZM6.56871 8.03905H4.11773V15.8822H6.56871V8.03905ZM6.7893 5.34297C6.79059 5.15758 6.75535 4.97374 6.68559 4.80196C6.61584 4.63019 6.51293 4.47383 6.38274 4.34182C6.25256 4.20982 6.09765 4.10475 5.92685 4.03261C5.75606 3.96048 5.57273 3.92269 5.38734 3.92141H5.34322C4.9662 3.92141 4.60461 4.07118 4.33802 4.33777C4.07142 4.60437 3.92165 4.96595 3.92165 5.34297C3.92165 5.72 4.07142 6.08158 4.33802 6.34818C4.60461 6.61477 4.9662 6.76454 5.34322 6.76454C5.52863 6.7691 5.71312 6.73709 5.88615 6.67032C6.05918 6.60356 6.21736 6.50335 6.35166 6.37544C6.48595 6.24752 6.59372 6.09439 6.66881 5.92481C6.7439 5.75522 6.78484 5.5725 6.7893 5.38709V5.34297ZM15.8824 11.1175C15.8824 8.75964 14.3824 7.84297 12.8922 7.84297C12.4043 7.81854 11.9185 7.92247 11.4833 8.14438C11.0481 8.36629 10.6786 8.69843 10.4118 9.10768H10.3432V8.03905H8.0393V15.8822H10.4903V11.7106C10.4548 11.2834 10.5894 10.8594 10.8648 10.5308C11.1401 10.2022 11.534 9.99557 11.9609 9.95572H12.054C12.8334 9.95572 13.4118 10.4459 13.4118 11.6812V15.8822H15.8628L15.8824 11.1175Z" fill="#BFD2A6"/>
</svg>
