<svg width="24" height="24" viewBox="0 0 24 24" fill="none" xmlns="http://www.w3.org/2000/svg">
<path d="M18.836 5.16351C17.2846 3.61216 14.7694 3.61216 13.218 5.16351L10.7066 7.67498L9.29235 6.26077L11.8038 3.74929C14.1362 1.4169 17.9178 1.4169 20.2502 3.74929C22.5826 6.08169 22.5826 9.86324 20.2502 12.1956L17.7387 14.7071L16.3245 13.2929L18.836 10.7814C20.3873 9.23008 20.3873 6.71485 18.836 5.16351Z" fill="#3EC9F0"/>
<path d="M5.15563 18.8431C6.69811 20.3856 9.19895 20.3856 10.7414 18.8431L13.2414 16.3431L14.6556 17.7574L12.1556 20.2574C9.83211 22.5809 6.06494 22.5809 3.74142 20.2574C1.4179 17.9338 1.4179 14.1667 3.74142 11.8431L6.24142 9.34314L7.65563 10.7574L5.15563 13.2574C3.61316 14.7998 3.61316 17.3007 5.15563 18.8431Z" fill="#3EC9F0"/>
<path d="M14.2924 8.29297L8.29235 14.293L9.70657 15.7072L15.7066 9.70718L14.2924 8.29297Z" fill="#3EC9F0"/>
</svg>
