<svg width="20" height="20" viewBox="0 0 20 20" fill="none" xmlns="http://www.w3.org/2000/svg">
<path fill-rule="evenodd" clip-rule="evenodd" d="M10 4.99986C8.15905 4.99986 6.66667 6.49224 6.66667 8.33319C6.66667 10.1741 8.15905 11.6665 10 11.6665C11.8409 11.6665 13.3333 10.1741 13.3333 8.33319C13.3333 6.49224 11.8409 4.99986 10 4.99986ZM8.33333 8.33319C8.33333 7.41272 9.07953 6.66652 10 6.66652C10.9205 6.66652 11.6667 7.41272 11.6667 8.33319C11.6667 9.25367 10.9205 9.99986 10 9.99986C9.07953 9.99986 8.33333 9.25367 8.33333 8.33319Z" fill="white"/>
<path fill-rule="evenodd" clip-rule="evenodd" d="M10 0.833191C5.87029 0.833191 2.5 4.13209 2.5 8.22902C2.5 9.05699 2.77248 9.96407 3.15387 10.8466C3.54087 11.7421 4.06996 12.6796 4.64797 13.5868C5.80426 15.4017 7.19828 17.1606 8.16706 18.3205C9.12916 19.4725 10.8708 19.4725 11.8329 18.3205C12.8017 17.1606 14.1957 15.4017 15.352 13.5868C15.93 12.6796 16.4591 11.7421 16.8461 10.8466C17.2275 9.96407 17.5 9.05699 17.5 8.22902C17.5 4.13209 14.1297 0.833191 10 0.833191ZM4.16667 8.22902C4.16667 5.07722 6.76592 2.49986 10 2.49986C13.2341 2.49986 15.8333 5.07722 15.8333 8.22902C15.8333 8.72447 15.6614 9.3867 15.3162 10.1855C14.9766 10.9713 14.497 11.8271 13.9464 12.6913C12.8455 14.4193 11.5029 16.1157 10.5537 17.2522C10.2579 17.6064 9.74212 17.6064 9.44627 17.2522C8.49714 16.1157 7.15449 14.4193 6.05359 12.6913C5.50301 11.8271 5.02338 10.9713 4.6838 10.1855C4.33861 9.3867 4.16667 8.72447 4.16667 8.22902Z" fill="white"/>
</svg>
