<svg xmlns="http://www.w3.org/2000/svg" width="165" height="44" viewBox="0 0 165 44" fill="none">
  <g clip-path="url(#clip0_272_415)">
    <path d="M37.4869 14.0987C38.0234 11.0092 39.9349 8.28247 42.585 6.60104C43.3992 6.08396 45.3636 5.6915 44.9915 4.57179L44.5552 4.26489C40.5299 5.66918 38.0555 8.73073 36.5935 12.5679C35.2637 16.0628 34.4987 19.1988 32.6249 22.5709C31.3537 24.8569 28.3353 27.2823 33.0556 27.6469C36.8617 27.9407 39.5477 26.8936 42.0996 24.1185C42.789 23.3689 45.458 20.3334 43.4388 20.0618C42.6134 20.9509 42.1789 22.0836 41.3459 23.0043C39.7045 24.8197 37.1318 26.1942 34.6612 26.3411C34.7518 23.2368 34.5969 18.0344 38.1065 16.658C38.6467 16.446 40.8322 15.9531 41.344 15.9531H48.2139C48.1422 17.8949 48.3084 19.8628 48.2215 21.8046C48.1554 23.3019 47.9892 26.3114 47.311 27.5855C46.4233 29.2502 44.0376 29.7449 42.2904 29.8733C38.981 30.1169 34.4798 30.1839 31.2007 29.8454C30.5887 29.7821 27.5004 28.8484 27.3115 29.6203C27.3946 30.66 27.2454 32.6409 28.5563 32.8251C31.1535 32.6577 33.6468 31.856 36.2516 31.7147C37.9119 31.6254 41.0758 31.5268 42.6436 31.7388C43.6636 31.8765 44.7724 32.5349 45.2729 33.4147C45.9794 34.6572 46.0889 37.3653 46.1494 38.857C46.2174 40.4883 46.1532 42.1622 46.0587 43.7916C45.8623 44.0687 41.9957 43.9999 41.3327 43.9739C39.9973 43.9181 37.859 43.7916 36.6237 43.4215C35.3884 43.0513 34.6196 42.2348 34.221 40.9644C34.1625 40.7803 33.9056 39.6959 33.9056 39.6066V36.4539C34.2626 36.0243 34.9766 36.1582 35.5036 36.1786C37.3509 36.2512 39.4457 36.9152 40.7849 38.2079C41.3762 38.7808 42.3508 40.944 43.1272 40.5441C44.166 40.0102 42.2639 37.8061 41.7162 37.2909C38.9527 34.6907 33.218 34.2889 29.9559 36.0856C28.0973 37.1105 30.1788 39.9005 31.1743 41.0016C31.6352 41.5112 33.3257 42.6775 33.4334 42.856C33.6279 43.1778 33.507 43.6168 33.5297 43.9683H16.0235C15.8157 42.551 17.1417 42.7519 18.1617 42.272C19.3404 41.7177 22.1548 40.2465 21.8262 38.725C21.6883 38.087 19.3498 36.4242 18.6661 36.0764C14.1913 33.7997 6.8284 34.0452 4.12918 38.831C3.70796 39.5787 3.01474 41.2043 4.60707 40.8231C4.7544 40.7877 5.67051 38.7585 6.16162 38.2358C8.0014 36.2809 10.4494 35.9499 13.0107 35.8048C13.0088 37.8415 13.0636 41.6619 11.0066 42.8263C10.7384 42.9769 9.38218 43.4103 9.15173 43.4103H1.62829L1.37707 43.1034C1.3204 42.8058 1.32796 42.5008 1.33551 42.1976C1.38085 40.2818 1.40918 37.1812 1.77185 35.3881C2.10996 33.7123 3.01474 32.4549 4.72796 31.9937C7.65007 31.2069 15.4474 31.9007 18.4791 32.7414C19.5916 33.0501 21.9641 34.4024 22.7158 34.3354C23.9946 34.2201 23.7831 32.5926 23.7472 31.631C23.7132 30.7623 23.3958 27.3102 23.1333 26.6704C22.4929 25.108 21.1405 26.7187 20.2263 27.2302C16.3711 29.3953 12.6273 30.037 8.21673 30.236C5.93873 30.3383 2.35174 30.4648 1.12207 28.1416C0.29096 26.5736 0.0945156 22.8983 0.020849 21.0625C-0.0509287 19.2416 0.0907378 17.402 0.0284045 15.5811C3.91762 15.6797 8.09584 15.3728 11.8302 16.4739C13.8853 17.402 13.9382 19.342 14.1403 21.2466C14.1648 21.481 14.3348 21.7414 14.3348 21.7953V25.32L14.0534 25.599H11.2295C10.9632 25.599 9.12718 24.7267 8.75129 24.5165C6.69051 23.3652 5.04529 21.4512 3.98751 19.3773L3.69662 19.2769C3.34718 19.2397 2.84851 19.5336 2.8844 19.9056C4.2954 23.4042 8.94584 27.3846 12.922 27.0796C16.3012 26.821 21.9811 23.2257 21.2878 19.3941C21.1273 18.5031 19.3234 16.3586 18.5659 15.7708C15.3227 13.2542 9.79584 14.2103 5.77251 13.909C3.47374 13.7378 1.15985 13.2449 0.487404 10.7693C0.440182 10.5944 0.217293 9.45427 0.217293 9.36685V1.02106L0.498738 0.742059H7.08718C7.73884 0.742059 9.28584 1.04152 9.96395 1.24612C10.9915 1.55674 12.0512 2.17425 12.548 3.15075C12.803 3.65109 13.2053 5.33252 13.2053 5.84216V10.3861C10.8158 10.3917 8.50573 8.66749 6.9984 6.94886C6.67162 6.57686 5.32296 4.51599 5.17562 4.46763C4.77896 4.33929 4.16318 4.63317 4.20096 5.06468C4.29729 6.14162 7.35729 9.21433 8.32629 9.90625C11.5563 12.2108 13.7984 11.3663 17.3004 12.3782C21.7997 13.6802 24.0059 16.8756 25.3848 21.1053C25.5681 21.6688 26.2122 24.6634 26.3689 24.7732C27.1358 25.3107 29.0153 23.3707 29.1683 22.8667C29.4138 22.0594 28.5487 20.59 28.3164 19.701C26.9602 14.5116 28.4675 8.14111 23.3562 4.55505C22.8065 4.16817 20.3207 2.98893 19.7975 3.23631C18.1277 4.02309 22.2266 5.3195 22.8651 5.78078C24.9051 7.25576 26.1083 9.63469 26.0138 12.1345C23.8737 12.6144 19.2648 12.8543 17.8274 10.9311C16.1935 8.74375 16.8074 2.72295 16.5921 -0.00193787H26.6617C26.7278 -0.00193787 27.7724 0.344021 27.9311 0.416561C29.6556 1.1959 30.0258 3.21399 30.1505 4.90658C30.4017 8.28805 29.9087 11.7272 30.3337 15.1142C30.4622 16.1354 30.6511 18.0381 31.5596 18.5608C32.64 18.6612 33.6827 15.1737 33.8225 14.2903C34.3929 10.693 32.6627 4.22955 37.2433 2.63553C37.978 2.37885 39.8556 2.03847 40.5904 2.03847H47.1788C47.6454 2.33607 47.2733 2.76573 47.2638 3.23631C47.2185 5.29532 47.3753 7.49011 47.0617 9.52867C46.7991 11.2473 46.291 12.8302 44.5212 13.5165C43.9186 13.7509 42.1336 14.095 41.5329 14.095H37.485L37.4869 14.0987Z" fill="#BFD2A6"/>
    <path d="M74.4183 26.3468C74.4183 28.2273 73.6344 29.7394 72.0647 30.8852C70.4951 32.0309 68.4022 32.6038 65.788 32.6038C64.1409 32.6038 62.558 32.3583 61.0412 31.8691C59.5244 31.3799 58.1909 30.6843 57.0405 29.7822L58.9634 26.3821C60.297 27.2582 61.5059 27.8887 62.592 28.2756C63.6762 28.6625 64.7812 28.8559 65.907 28.8559C67.2141 28.8559 68.2341 28.6495 68.967 28.2384C69.6998 27.8274 70.0663 27.2731 70.0663 26.5774C70.0663 25.8818 69.7527 25.335 69.1256 25.0132C68.4985 24.6914 67.4653 24.5054 66.026 24.4533C63.0963 24.299 60.9902 23.7651 59.7095 22.85C58.427 21.9368 57.7866 20.5139 57.7866 18.5813C57.7866 16.779 58.5252 15.3115 60.0023 14.1769C61.4794 13.0441 63.4344 12.4768 65.8673 12.4768C67.3841 12.4768 68.8423 12.6963 70.242 13.1334C71.6416 13.5724 72.8505 14.1899 73.8705 14.9878L72.1441 18.3488C71.0183 17.629 69.9341 17.0933 68.8876 16.7455C67.8412 16.3977 66.7947 16.2247 65.7483 16.2247C64.649 16.2247 63.7725 16.4237 63.119 16.8236C62.4654 17.2235 62.1386 17.7443 62.1386 18.3879C62.1386 19.0315 62.4333 19.5467 63.0207 19.8554C63.6101 20.1642 64.5696 20.3576 65.9051 20.4357C68.9651 20.5901 71.1486 21.1184 72.4557 22.0205C73.7628 22.9226 74.4164 24.3641 74.4164 26.3468H74.4183Z" fill="#282828"/>
    <path d="M78.1829 26.0362V17.0357H75.5933V12.979H78.1829V7.57018H82.89V12.979H87.2061V17.0357H82.89V25.5731C82.89 26.4231 83.0733 27.0406 83.4397 27.4275C83.8061 27.8143 84.3804 28.0078 85.1661 28.0078H87.2061V32.0644H84.3823C82.1855 32.0644 80.6026 31.5883 79.6355 30.636C78.6684 29.6836 78.1848 28.151 78.1848 26.0399L78.1829 26.0362Z" fill="#282828"/>
    <path d="M89.9524 12.9809H94.5027V15.1831C95.0769 14.4112 95.8098 13.8309 96.6995 13.444C97.5892 13.0572 98.6469 12.8637 99.8766 12.8637H101.68V17.1901H99.6008C97.9008 17.1901 96.6523 17.603 95.8552 18.427C95.0562 19.2509 94.6595 20.5269 94.6595 22.2511V32.0626H89.9524V12.979V12.9809Z" fill="#282828"/>
    <path d="M120.67 32.0626H116.197V29.6669C115.386 30.5932 114.398 31.2963 113.235 31.7724C112.071 32.2486 110.783 32.4866 109.37 32.4866C107.2 32.4866 105.453 31.9454 104.132 30.8647C102.812 29.7822 102.151 28.3537 102.151 26.5774C102.151 24.6207 102.922 23.1402 104.465 22.1358C106.008 21.1314 108.282 20.6292 111.291 20.6292H116.078C116.051 19.1877 115.666 18.0866 114.92 17.3258C114.174 16.567 113.082 16.1857 111.644 16.1857C110.651 16.1857 109.669 16.3791 108.702 16.766C107.734 17.1529 106.779 17.7313 105.838 18.5051L103.641 15.4919C104.844 14.4875 106.152 13.7286 107.564 13.2134C108.977 12.6982 110.481 12.4415 112.075 12.4415C114.795 12.4415 116.907 13.1892 118.41 14.6828C119.914 16.1764 120.666 18.2744 120.666 20.9789V32.0663L120.67 32.0626ZM116.08 23.8358H111.253C109.71 23.8358 108.566 24.0479 107.821 24.4738C107.075 24.8979 106.703 25.5619 106.703 26.464C106.703 27.2359 107.03 27.8683 107.683 28.3575C108.337 28.8466 109.2 29.0922 110.273 29.0922C111.867 29.0922 113.216 28.6086 114.313 27.6432C115.413 26.6779 116 25.4094 116.08 23.8377V23.8358Z" fill="#282828"/>
    <path d="M125.26 17.0357H122.67V12.979H125.26V10.6615C125.26 8.80707 125.762 7.40464 126.771 6.45046C127.777 5.49815 129.249 5.02199 131.183 5.02199H134.166V8.69176H131.969C131.289 8.69176 130.785 8.85915 130.458 9.19395C130.131 9.52875 129.967 10.044 129.967 10.7396V12.9809H134.164V17.0375H129.967V32.0644H125.26V17.0375V17.0357ZM136.519 5.02199H141.54V9.69615H136.519V5.02199ZM136.676 32.0626V12.979H141.383V32.0626H136.676Z" fill="#282828"/>
    <path d="M160.331 29.9385V29.0122C159.441 29.8622 158.434 30.5058 157.31 30.9429C156.186 31.3818 154.996 31.5994 153.74 31.5994C151.047 31.5994 148.818 30.7234 147.052 28.9731C145.286 27.2229 144.404 24.9425 144.404 22.1358C144.404 19.3291 145.318 17.0561 147.15 15.2408C148.98 13.4254 151.283 12.5178 154.054 12.5178C155.31 12.5178 156.487 12.7428 157.584 13.1929C158.684 13.6431 159.637 14.3071 160.448 15.1831V12.9809H164.998V29.8231C164.998 32.9647 164.135 35.2822 162.408 36.7758C160.682 38.2694 158.028 39.0171 154.445 39.0171H149.188V35.1929H154.602C156.511 35.1929 157.943 34.754 158.897 33.8798C159.851 33.0037 160.329 31.6906 160.329 29.9403L160.331 29.9385ZM154.76 27.66C156.355 27.66 157.703 27.1261 158.801 26.0567C159.9 24.989 160.448 23.6684 160.448 22.0967C160.448 20.525 159.898 19.1672 158.801 18.0977C157.701 17.0301 156.355 16.4944 154.76 16.4944C153.166 16.4944 151.772 17.0041 150.739 18.0196C149.706 19.037 149.19 20.3818 149.19 22.0558C149.19 23.7298 149.706 25.082 150.739 26.1125C151.772 27.1429 153.111 27.6581 154.76 27.6581V27.66Z" fill="#282828"/>
  </g>
  <defs>
    <clipPath id="clip0_272_415">
      <rect width="165" height="44" fill="white"/>
    </clipPath>
  </defs>
</svg>