<svg width="20" height="20" viewBox="0 0 20 20" fill="none" xmlns="http://www.w3.org/2000/svg">
<path d="M4.70859 6.86727L3.62394 8.1327L5.63306 9.8548L3.57715 11.9107L4.75566 13.0892L6.90398 10.9409C7.3637 11.3277 7.77233 11.6549 8.14885 11.9035C8.7259 12.2847 9.31196 12.5406 9.9996 12.5406C10.6872 12.5406 11.2733 12.2847 11.8504 11.9035C12.2269 11.6549 12.6356 11.3277 13.0953 10.9408L15.2437 13.0892L16.4222 11.9107L14.3662 9.85473L16.3753 8.1327L15.2906 6.86727L12.7112 9.07816C11.9185 9.75766 11.3819 10.2156 10.9318 10.5128C10.5013 10.7972 10.2368 10.874 9.9996 10.874C9.76243 10.874 9.49789 10.7972 9.06736 10.5128C8.61734 10.2156 8.08072 9.75766 7.28797 9.07816L4.70859 6.86727Z" fill="white"/>
<path fill-rule="evenodd" clip-rule="evenodd" d="M11.7273 2.5H8.27204C6.7525 2.49998 5.52769 2.49996 4.5644 2.62947C3.56428 2.76393 2.72219 3.05159 2.0534 3.72039C1.3846 4.38919 1.09694 5.23127 0.962479 6.23139C0.832968 7.19468 0.832986 8.41948 0.833008 9.93901V10.061C0.832986 11.5805 0.832968 12.8053 0.962479 13.7686C1.09694 14.7687 1.3846 15.6108 2.0534 16.2796C2.72219 16.9484 3.56428 17.2361 4.5644 17.3705C5.5277 17.5 6.75251 17.5 8.27206 17.5H11.7273C13.2468 17.5 14.4717 17.5 15.435 17.3705C16.4351 17.2361 17.2772 16.9484 17.946 16.2796C18.6147 15.6108 18.9024 14.7687 19.0369 13.7686C19.1664 12.8053 19.1664 11.5805 19.1663 10.061V9.93905C19.1664 8.4195 19.1664 7.19469 19.0369 6.23139C18.9024 5.23127 18.6147 4.38919 17.946 3.72039C17.2772 3.05159 16.4351 2.76393 15.435 2.62947C14.4717 2.49996 13.2469 2.49998 11.7273 2.5ZM3.23191 4.8989C3.53942 4.59139 3.97117 4.39089 4.78648 4.28128C5.62575 4.16844 6.7381 4.16667 8.33301 4.16667H11.6663C13.2612 4.16667 14.3736 4.16844 15.2129 4.28128C16.0282 4.39089 16.4599 4.59139 16.7674 4.8989C17.075 5.20642 17.2755 5.63816 17.3851 6.45347C17.4979 7.29275 17.4997 8.4051 17.4997 10C17.4997 11.5949 17.4979 12.7073 17.3851 13.5465C17.2755 14.3618 17.075 14.7936 16.7674 15.1011C16.4599 15.4086 16.0282 15.6091 15.2129 15.7187C14.3736 15.8316 13.2612 15.8333 11.6663 15.8333H8.33301C6.7381 15.8333 5.62575 15.8316 4.78648 15.7187C3.97117 15.6091 3.53942 15.4086 3.23191 15.1011C2.92439 14.7936 2.7239 14.3618 2.61428 13.5465C2.50145 12.7073 2.49968 11.5949 2.49968 10C2.49968 8.4051 2.50145 7.29275 2.61428 6.45347C2.7239 5.63816 2.92439 5.20642 3.23191 4.8989Z" fill="white"/>
</svg>
