<svg width="16" height="16" viewBox="0 0 16 16" fill="none" xmlns="http://www.w3.org/2000/svg">
<path fill-rule="evenodd" clip-rule="evenodd" d="M9.91917 7.52861L4.19531 1.80475L5.13812 0.861938L10.862 6.5858C10.8705 6.59435 10.8791 6.6029 10.8876 6.61144C11.0876 6.81131 11.2819 7.00555 11.4206 7.18733C11.5769 7.39226 11.7239 7.65757 11.7239 8.00001C11.7239 8.34245 11.5769 8.60776 11.4206 8.81269C11.2819 8.99446 11.0876 9.1887 10.8876 9.38856C10.8791 9.3971 10.8705 9.40566 10.862 9.41422L5.13812 15.1381L4.19531 14.1953L9.91917 8.47141C10.1547 8.23586 10.283 8.10562 10.3606 8.00391C10.3616 8.00259 10.3626 8.00129 10.3635 8.00001C10.3626 7.99873 10.3616 7.99743 10.3606 7.99611C10.283 7.89439 10.1547 7.76415 9.91917 7.52861Z" fill="#14141F"/>
</svg>
