<svg width="16" height="16" viewBox="0 0 16 16" fill="none" xmlns="http://www.w3.org/2000/svg">
<path d="M9.26691 12.4C9.36691 12.5 9.49358 12.5466 9.62024 12.5466C9.74691 12.5466 9.87358 12.5 9.97357 12.4L14.0202 8.35329C14.2136 8.15996 14.2136 7.83996 14.0202 7.64662L9.97357 3.59996C9.78024 3.40662 9.46024 3.40662 9.26691 3.59996C9.07357 3.79329 9.07357 4.11329 9.26691 4.30662L12.4602 7.49996H2.3335C2.06016 7.49996 1.8335 7.72663 1.8335 7.99996C1.8335 8.27329 2.06016 8.49996 2.3335 8.49996H12.4602L9.26691 11.6933C9.07357 11.8866 9.07357 12.2066 9.26691 12.4Z" fill="#101019"/>
</svg>
