<svg xmlns="http://www.w3.org/2000/svg" width="16" height="16" viewBox="0 0 16 16" fill="none">
  <path d="M9.26666 12.4001C9.36666 12.5001 9.49333 12.5467 9.62 12.5467C9.74666 12.5467 9.87333 12.5001 9.97333 12.4001L14.02 8.35341C14.2133 8.16008 14.2133 7.84008 14.02 7.64675L9.97333 3.60008C9.78 3.40674 9.46 3.40674 9.26666 3.60008C9.07333 3.79341 9.07333 4.11341 9.26666 4.30674L12.46 7.50008H2.33325C2.05992 7.50008 1.83325 7.72675 1.83325 8.00008C1.83325 8.27341 2.05992 8.50008 2.33325 8.50008H12.46L9.26666 11.6934C9.07333 11.8867 9.07333 12.2067 9.26666 12.4001Z" fill="#141A29"/>
</svg>