<svg xmlns="http://www.w3.org/2000/svg" width="16" height="16" viewBox="0 0 16 16" fill="none">
  <path d="M6.02663 12.4001C6.12663 12.5001 6.25329 12.5467 6.37996 12.5467C6.50663 12.5467 6.63996 12.5001 6.73329 12.4001C6.92663 12.2067 6.92663 11.8867 6.73329 11.6934L3.53996 8.50008H13.6666C13.9399 8.50008 14.1666 8.27341 14.1666 8.00008C14.1666 7.72675 13.9399 7.50008 13.6666 7.50008H3.53996L6.73329 4.30674C6.92663 4.11341 6.92663 3.79341 6.73329 3.60008C6.53996 3.40674 6.21996 3.40674 6.02663 3.60008L1.97996 7.64674C1.78663 7.84008 1.78663 8.16008 1.97996 8.35341L6.02663 12.4001Z" fill="#141A29"/>
</svg>