<svg width="16" height="16" viewBox="0 0 16 16" fill="none" xmlns="http://www.w3.org/2000/svg">
<path d="M6.02663 12.4C6.12663 12.5 6.25329 12.5466 6.37996 12.5466C6.50663 12.5466 6.63996 12.5 6.73329 12.4C6.92663 12.2066 6.92663 11.8866 6.73329 11.6933L3.53996 8.49996H13.6666C13.9399 8.49996 14.1666 8.27329 14.1666 7.99996C14.1666 7.72663 13.9399 7.49996 13.6666 7.49996H3.53996L6.73329 4.30662C6.92663 4.11329 6.92663 3.79329 6.73329 3.59996C6.53996 3.40662 6.21996 3.40662 6.02663 3.59996L1.97996 7.64662C1.78663 7.83996 1.78663 8.15996 1.97996 8.35329L6.02663 12.4Z" fill="#F5F5FA"/>
</svg>
