<svg width="20" height="20" viewBox="0 0 20 20" fill="none" xmlns="http://www.w3.org/2000/svg">
<g clip-path="url(#clip0_2290_5033)">
<path fill-rule="evenodd" clip-rule="evenodd" d="M2.89083 2.54434C3.16038 2.50235 3.53639 2.49999 4.16699 2.49999H5.47387C5.88237 2.49999 6.12391 2.50108 6.30382 2.5202C6.45924 2.53672 6.49586 2.56077 6.5037 2.56592C6.50394 2.56607 6.50351 2.5658 6.5037 2.56592L6.50498 2.56674C6.51291 2.57175 6.54996 2.59514 6.62931 2.72979C6.72117 2.88566 6.82211 3.1051 6.99115 3.47698L7.77254 5.19604C7.91207 5.50301 7.99428 5.68562 8.04471 5.82807C8.08915 5.9536 8.08716 5.99081 8.08688 5.9959C8.08527 6.03401 8.07841 6.07207 8.06654 6.10832C8.06501 6.11318 8.05371 6.14905 7.96802 6.25099C7.87078 6.36666 7.72969 6.50877 7.49126 6.7472L7.4656 6.77286C7.22003 7.01839 6.99256 7.24581 6.82088 7.45767C6.63073 7.69232 6.4637 7.9605 6.38507 8.30234C6.3359 8.5161 6.32055 8.76123 6.34267 8.97946C6.40377 9.58224 6.76138 10.0396 7.1055 10.4797C7.13136 10.5128 7.15715 10.5457 7.18272 10.5787C7.86 11.4507 8.54799 12.139 9.42168 12.8175C9.45461 12.8431 9.48759 12.8689 9.52066 12.8947C9.96074 13.2389 10.4181 13.5965 11.0209 13.6576C11.2391 13.6797 11.4842 13.6644 11.698 13.6152C12.0398 13.5366 12.308 13.3695 12.5427 13.1794C12.7545 13.0077 12.9819 12.7803 13.2275 12.5347L13.2531 12.509C13.4915 12.2706 13.6336 12.1295 13.7493 12.0323C13.8513 11.9466 13.8868 11.9354 13.8917 11.9339C13.9279 11.922 13.966 11.9151 14.0041 11.9134C14.0091 11.9132 14.0467 11.9112 14.1722 11.9556C14.3147 12.006 14.4973 12.0882 14.8043 12.2278L16.5233 13.0092C16.8952 13.1782 17.1146 13.2791 17.2705 13.371C17.4052 13.4503 17.4286 13.4874 17.4336 13.4953C17.4337 13.4955 17.4342 13.4964 17.4344 13.4966C17.4395 13.5044 17.4636 13.5411 17.4801 13.6965C17.4992 13.8764 17.5003 14.1179 17.5003 14.5264V16.121C17.5003 16.594 17.4989 16.8748 17.474 17.0819C17.4526 17.2591 17.4221 17.2978 17.4147 17.3072C17.4145 17.3075 17.4142 17.3078 17.414 17.308C17.3885 17.3412 17.3283 17.394 17.292 17.415C17.2706 17.4274 17.2328 17.4492 17.0842 17.4491C16.9032 17.4489 16.6626 17.4188 16.2369 17.3625C13.8766 17.0503 11.6805 16.2183 9.76682 14.9846C8.79852 14.3604 7.90251 13.6333 7.0943 12.8189C6.31504 12.0335 5.61757 11.1671 5.0157 10.2335C3.82927 8.39307 3.01431 6.29156 2.67601 4.03409C2.59068 3.46474 2.54488 3.14052 2.54945 2.90245C2.55303 2.71566 2.58651 2.67682 2.6133 2.64574L2.61416 2.64474C2.61476 2.64404 2.61539 2.64328 2.61607 2.64247C2.63115 2.62444 2.66925 2.57886 2.89083 2.54434ZM2.6343 0.897533C2.16895 0.970022 1.71142 1.13898 1.35134 1.55706C1.00425 1.96003 0.891926 2.40991 0.883091 2.87049C0.875494 3.2665 0.945448 3.73266 1.01918 4.22401C1.02203 4.243 1.02489 4.26203 1.02774 4.2811C1.40192 6.77791 2.30348 9.10226 3.61489 11.1365C4.28001 12.1683 5.05055 13.1254 5.91124 13.9928C6.8039 14.8924 7.79372 15.6956 8.86377 16.3854C10.9791 17.7491 13.4081 18.6696 16.0184 19.0148C16.0326 19.0166 16.0468 19.0185 16.061 19.0204C16.4286 19.0691 16.7793 19.1155 17.083 19.1157C17.4302 19.116 17.7791 19.0583 18.1256 18.8582C18.351 18.7281 18.577 18.53 18.7356 18.3236C18.9884 17.9945 19.086 17.6349 19.1286 17.2813C19.1671 16.9625 19.167 16.5796 19.167 16.1638L19.167 14.4893C19.167 14.1304 19.1671 13.799 19.1374 13.5203C19.1047 13.2123 19.0302 12.8964 18.8353 12.5937C18.6403 12.2909 18.3835 12.0924 18.1167 11.9351C17.8753 11.7929 17.5735 11.6557 17.2468 11.5072L15.4665 10.698C15.1961 10.5751 14.9472 10.4619 14.7284 10.3845C14.4888 10.2997 14.2285 10.2358 13.9336 10.2483C13.7431 10.2563 13.5545 10.2905 13.3732 10.3499C13.0928 10.4417 12.8714 10.5929 12.6769 10.7565C12.4993 10.9058 12.3059 11.0992 12.0959 11.3092L12.0746 11.3305C11.7947 11.6104 11.6292 11.7744 11.4934 11.8845C11.3763 11.9794 11.3347 11.9886 11.3251 11.9908C11.2889 11.9991 11.226 12.0032 11.189 11.9994C11.1694 11.9974 11.1315 11.9935 11.0224 11.927C10.8914 11.8472 10.73 11.7234 10.444 11.5012C9.68021 10.908 9.09098 10.3186 8.49904 9.55638C8.27691 9.27036 8.15309 9.10894 8.07321 8.97791C8.00672 8.86883 8.00282 8.83095 8.00084 8.81138C7.99709 8.77436 8.00098 8.71222 8.00932 8.67595C8.01145 8.66638 8.02088 8.62407 8.11576 8.50698C8.22585 8.37113 8.3899 8.20558 8.66977 7.92572L8.6911 7.90439C8.90114 7.69438 9.09451 7.50104 9.24381 7.32344C9.40736 7.12887 9.55858 6.90749 9.65042 6.62707C9.70979 6.4458 9.74398 6.25724 9.75204 6.06667C9.76451 5.77185 9.70065 5.51147 9.61583 5.27186C9.5384 5.05315 9.42524 4.80424 9.30231 4.53386L8.49306 2.75352C8.34457 2.42675 8.20745 2.125 8.06519 1.88361C7.90794 1.61677 7.70938 1.35998 7.40665 1.16504C7.10391 0.970109 6.78797 0.895607 6.47998 0.86287C6.20135 0.833254 5.8699 0.833286 5.51098 0.833321L4.16699 0.833323C4.14785 0.833323 4.12876 0.833321 4.10972 0.833318C3.55572 0.833242 3.04747 0.833173 2.6343 0.897533Z" fill="white"/>
</g>
<defs>
<clipPath id="clip0_2290_5033">
<rect width="20" height="20" fill="white"/>
</clipPath>
</defs>
</svg>
