<svg width="24" height="24" viewBox="0 0 24 24" fill="none" xmlns="http://www.w3.org/2000/svg">
<path fill-rule="evenodd" clip-rule="evenodd" d="M15.1231 0.999944C13.6733 0.999257 12.6658 0.999262 11.7442 1.3808C10.8224 1.76264 10.1091 2.47585 9.08406 3.5019L5.25398 7.33198C4.27012 8.31581 3.47593 9.10854 2.90632 9.81049C2.31815 10.5353 1.89592 11.25 1.74031 12.0937C1.62986 12.6929 1.62986 13.307 1.74031 13.9062C1.89592 14.7499 2.31815 15.4646 2.90632 16.1894C3.47593 16.8913 4.27015 17.6841 5.25398 18.6679L5.3321 18.746C6.31595 19.7299 7.10866 20.5241 7.81062 21.0937C8.53544 21.6819 9.25011 22.1041 10.0938 22.2597C10.693 22.3702 11.3071 22.3702 11.9063 22.2597C12.75 22.1041 13.4647 21.6819 14.1895 21.0937C14.8914 20.5241 15.6843 19.7298 16.668 18.746L20.4981 14.916C21.5242 13.8909 22.2374 13.1776 22.6192 12.2558C23.0008 11.3342 23.0008 10.3267 23.0001 8.8769V7.92963C23.0001 6.57551 22.9998 5.45792 22.8809 4.57416C22.7561 3.64666 22.4841 2.82774 21.8282 2.17182C21.1723 1.5159 20.3533 1.24388 19.4259 1.11908C18.5421 1.00027 17.4245 0.999904 16.0704 0.999944H15.1231ZM15.6993 5.99994C16.6379 5.99994 17.4 6.76066 17.4005 7.69916C17.4005 8.63805 16.6382 9.40034 15.6993 9.40034C14.7607 9.39994 14.0001 8.63781 14.0001 7.69916C14.0005 6.76091 14.761 6.00034 15.6993 5.99994Z" fill="#BFD2A6"/>
</svg>
