<svg width="16" height="16" viewBox="0 0 16 16" fill="none" xmlns="http://www.w3.org/2000/svg">
<path fill-rule="evenodd" clip-rule="evenodd" d="M5.79981 1.55325L5.75888 1.52511C5.33545 1.23394 4.9574 0.973972 4.63893 0.817871C4.31074 0.657003 3.84896 0.506929 3.37936 0.753957C2.90975 1.00099 2.77181 1.46653 2.71844 1.82811C2.66665 2.17898 2.6667 2.63778 2.66675 3.15166L2.66675 3.15166L2.66675 3.20134V12.7986L2.66675 12.8483C2.6667 13.3622 2.66665 13.821 2.71844 14.1718C2.77181 14.5334 2.90975 14.9989 3.37936 15.246C3.84896 15.493 4.31074 15.3429 4.63893 15.1821C4.9574 15.026 5.33544 14.766 5.75886 14.4748L5.79981 14.4467L12.7796 9.64805L12.8167 9.62255C13.1474 9.39533 13.454 9.18455 13.6718 8.9822C13.9081 8.7626 14.1567 8.44775 14.1567 7.99997C14.1567 7.55219 13.9081 7.23734 13.6718 7.01774C13.454 6.81538 13.1473 6.60459 12.8167 6.37737L12.7796 6.35188L5.79981 1.55325Z" fill="#F5F5FA"/>
</svg>
