<svg width="56" height="56" viewBox="0 0 56 56" fill="none" xmlns="http://www.w3.org/2000/svg">
<path fill-rule="evenodd" clip-rule="evenodd" d="M2.33337 27.9999C2.33337 13.8246 13.8247 2.33325 28 2.33325C42.1753 2.33325 53.6667 13.8246 53.6667 27.9999C53.6667 42.1752 42.1753 53.6666 28 53.6666C13.8247 53.6666 2.33337 42.1752 2.33337 27.9999ZM22.2324 16.6093C22.9911 16.2033 23.9117 16.2478 24.6277 16.7251L38.6277 26.0585C39.2768 26.4912 39.6667 27.2198 39.6667 27.9999C39.6667 28.7801 39.2768 29.5086 38.6277 29.9414L24.6277 39.2747C23.9117 39.752 22.9911 39.7965 22.2324 39.3905C21.4737 38.9845 21 38.1938 21 37.3333V18.6666C21 17.8061 21.4737 17.0154 22.2324 16.6093Z" fill="white"/>
</svg>
