<svg width="16" height="16" viewBox="0 0 16 16" fill="none" xmlns="http://www.w3.org/2000/svg">
<g clip-path="url(#clip0_4052_1087)">
<path fill-rule="evenodd" clip-rule="evenodd" d="M5.79981 1.55338L5.75888 1.52523C5.33545 1.23406 4.9574 0.974094 4.63893 0.817993C4.31074 0.657125 3.84896 0.507051 3.37936 0.754079C2.90975 1.00111 2.77181 1.46665 2.71844 1.82823C2.66665 2.1791 2.6667 2.6379 2.66675 3.15178L2.66675 3.15178L2.66675 3.20146V12.7987L2.66675 12.8484C2.6667 13.3623 2.66665 13.8211 2.71844 14.1719C2.77181 14.5335 2.90975 14.9991 3.37936 15.2461C3.84896 15.4931 4.31074 15.3431 4.63893 15.1822C4.9574 15.0261 5.33544 14.7661 5.75886 14.475L5.79981 14.4468L12.7796 9.64817L12.8167 9.62268C13.1474 9.39546 13.454 9.18467 13.6718 8.98232C13.9081 8.76272 14.1567 8.44787 14.1567 8.00009C14.1567 7.55231 13.9081 7.23746 13.6718 7.01786C13.454 6.8155 13.1473 6.60471 12.8167 6.37749L12.7796 6.352L5.79981 1.55338Z" fill="#10101A"/>
</g>
<defs>
<clipPath id="clip0_4052_1087">
<rect width="16" height="16" fill="white"/>
</clipPath>
</defs>
</svg>
