<svg width="16" height="16" viewBox="0 0 16 16" fill="none" xmlns="http://www.w3.org/2000/svg">
<path fill-rule="evenodd" clip-rule="evenodd" d="M0.666748 4.00008H15.3334V2.66675H0.666748V4.00008ZM0.666748 7.66675H7.33341V6.33341H0.666748V7.66675ZM7.33341 11.6667H0.666748V10.3334H7.33341V11.6667ZM11.249 6.05361C11.5632 6.1907 11.9367 6.42422 12.3519 6.6838L13.9175 7.66226C14.2891 7.89445 14.6292 8.10699 14.8703 8.31248C15.1278 8.53201 15.4089 8.85675 15.4089 9.3334C15.4089 9.81005 15.1278 10.1348 14.8703 10.3543C14.6292 10.5598 14.2891 10.7724 13.9175 11.0045L12.3519 11.983C11.9367 12.2426 11.5632 12.4761 11.249 12.6132C10.9214 12.7562 10.47 12.8793 10.0204 12.6301C9.57079 12.3809 9.43597 11.9329 9.38356 11.5793C9.33331 11.2402 9.33336 10.7997 9.33342 10.31V8.35681C9.33336 7.86713 9.33331 7.4266 9.38356 7.08754C9.43597 6.73392 9.57079 6.2859 10.0204 6.03671C10.47 5.78752 10.9214 5.91063 11.249 6.05361Z" fill="black"/>
</svg>
