<svg width="16" height="16" viewBox="0 0 16 16" fill="none" xmlns="http://www.w3.org/2000/svg">
<path fill-rule="evenodd" clip-rule="evenodd" d="M6.08083 7.52861L11.8047 1.80475L10.8619 0.861938L5.13802 6.5858C5.12946 6.59435 5.12091 6.6029 5.11237 6.61144C4.91243 6.81131 4.71811 7.00555 4.57941 7.18733C4.42305 7.39226 4.27609 7.65757 4.27609 8.00001C4.27609 8.34245 4.42305 8.60776 4.57941 8.81269C4.7181 8.99446 4.91241 9.1887 5.11235 9.38856C5.1209 9.3971 5.12946 9.40566 5.13802 9.41422L10.8619 15.1381L11.8047 14.1953L6.08083 8.47141C5.84528 8.23586 5.71704 8.10562 5.63944 8.00391C5.63843 8.00259 5.63744 8.00129 5.63648 8.00001C5.63744 7.99873 5.63843 7.99743 5.63944 7.99611C5.71704 7.89439 5.84528 7.76415 6.08083 7.52861Z" fill="#14141F"/>
</svg>
