<svg width="20" height="40" viewBox="0 0 20 40" fill="none" xmlns="http://www.w3.org/2000/svg">
<path fill-rule="evenodd" clip-rule="evenodd" d="M8.75016 20.8335C4.37791 20.8335 0.833496 24.3779 0.833496 28.7502C0.833496 33.1224 4.37791 36.6668 8.75016 36.6668C10.6361 36.6668 12.368 36.0074 13.7279 34.9064L17.7443 38.9228L18.9228 37.7443L14.9064 33.7279C16.0074 32.368 16.6668 30.6361 16.6668 28.7502C16.6668 24.3779 13.1224 20.8335 8.75016 20.8335ZM2.50016 28.7502C2.50016 25.2984 5.29838 22.5002 8.75016 22.5002C12.2019 22.5002 15.0002 25.2984 15.0002 28.7502C15.0002 32.2019 12.2019 35.0002 8.75016 35.0002C5.29838 35.0002 2.50016 32.2019 2.50016 28.7502Z" fill="#F5F5FA"/>
<path fill-rule="evenodd" clip-rule="evenodd" d="M8.75016 0.833496C4.37791 0.833496 0.833496 4.37791 0.833496 8.75016C0.833496 13.1224 4.37791 16.6668 8.75016 16.6668C10.6361 16.6668 12.368 16.0074 13.7279 14.9064L17.7443 18.9228L18.9228 17.7443L14.9064 13.7279C16.0074 12.368 16.6668 10.6361 16.6668 8.75016C16.6668 4.37791 13.1224 0.833496 8.75016 0.833496ZM2.50016 8.75016C2.50016 5.29838 5.29838 2.50016 8.75016 2.50016C12.2019 2.50016 15.0002 5.29838 15.0002 8.75016C15.0002 12.2019 12.2019 15.0002 8.75016 15.0002C5.29838 15.0002 2.50016 12.2019 2.50016 8.75016Z" fill="#101019"/>
</svg>
