<svg xmlns="http://www.w3.org/2000/svg" width="24" height="24" viewBox="0 0 24 24" fill="none">
  <path d="M18.836 5.16351C17.2847 3.61216 14.7694 3.61216 13.2181 5.16351L10.7066 7.67498L9.29241 6.26077L11.8039 3.74929C14.1363 1.4169 17.9178 1.4169 20.2502 3.74929C22.5826 6.08169 22.5826 9.86324 20.2502 12.1956L17.7388 14.7071L16.3245 13.2929L18.836 10.7814C20.3874 9.23008 20.3874 6.71485 18.836 5.16351Z" fill="#6C8288"/>
  <path d="M5.15569 18.8431C6.69817 20.3856 9.19901 20.3856 10.7415 18.8431L13.2415 16.3431L14.6557 17.7574L12.1557 20.2574C9.83217 22.5809 6.065 22.5809 3.74148 20.2574C1.41796 17.9338 1.41796 14.1667 3.74148 11.8431L6.24148 9.34314L7.65569 10.7574L5.15569 13.2574C3.61322 14.7998 3.61322 17.3007 5.15569 18.8431Z" fill="#6C8288"/>
  <path d="M14.2924 8.29297L8.29241 14.293L9.70663 15.7072L15.7066 9.70718L14.2924 8.29297Z" fill="#6C8288"/>
</svg>