<svg width="16" height="16" viewBox="0 0 16 16" fill="none" xmlns="http://www.w3.org/2000/svg">
<path d="M13.0572 6.00001L10.8619 3.80475L11.8047 2.86194L14.2209 5.27811C14.4208 5.47797 14.6152 5.67223 14.7538 5.854C14.9102 6.05893 15.0572 6.32423 15.0572 6.66668C15.0572 7.00912 14.9102 7.27442 14.7538 7.47935C14.6151 7.66113 14.4208 7.85538 14.2209 8.05524L11.8047 10.4714L10.8619 9.52861L13.0572 7.33334L4.33329 7.33334C3.04463 7.33334 1.99996 8.37801 1.99996 9.66668C1.99996 10.9553 3.04463 12 4.33329 12H9.33329V13.3333H4.33329C2.30825 13.3333 0.666626 11.6917 0.666626 9.66668C0.666626 7.64163 2.30825 6.00001 4.33329 6.00001L13.0572 6.00001Z" fill="#101019"/>
</svg>
