<svg width="300" height="600" viewBox="0 0 300 600" fill="none" xmlns="http://www.w3.org/2000/svg">
<rect width="300" height="600" rx="8" fill="white"/>
<g opacity="0.24">
<path d="M124.222 299.969C120.997 298.264 120.997 294.002 124.222 292.297L142.929 282.409L161.635 272.521C164.861 270.816 168.892 272.947 168.892 276.357V315.907C168.892 319.317 164.861 321.448 161.635 319.743L142.929 309.855L124.222 299.967V299.969Z" fill="#00007C"/>
<path d="M178.193 224.971V272.327C178.193 272.549 178.177 272.766 178.15 272.981C177.811 275.584 175.466 277.435 172.835 277.621C171.732 277.702 170.58 277.493 169.501 276.922L168.033 276.145H168.029L162.118 273.02L154.992 269.255L151.433 267.374L147.102 265.085L146.273 264.646L146.086 264.549L135.401 258.898L131.971 257.087L124.704 253.243C120.841 251.203 120.841 246.101 124.704 244.056L133.774 239.264L135.401 238.401L135.487 238.354L137.355 237.367L146.086 232.754L146.698 232.432L147.103 232.218L151.434 229.929L154.827 228.134L155.367 227.85L156.52 227.239L158.879 225.991L159.055 225.898L161.61 224.549L161.68 224.51L162.073 224.304L162.521 224.067L166.388 222.023L169.504 220.375C170.505 219.846 171.572 219.625 172.604 219.66H172.623C174.613 219.734 176.467 220.757 177.453 222.353C177.472 222.384 177.492 222.415 177.508 222.446C177.797 222.936 178.007 223.475 178.112 224.058C178.169 224.35 178.197 224.657 178.197 224.967L178.193 224.971Z" fill="#4DA2FF"/>
<path d="M175.295 267.719C179.157 269.761 179.157 274.864 175.295 276.906L152.895 288.745L130.494 300.584C126.632 302.626 121.804 300.074 121.804 295.992V248.632C121.804 244.55 126.632 241.998 130.494 244.04L152.895 255.879L175.295 267.718V267.719Z" fill="#0044FF"/>
</g>
<path d="M104.036 357.583C102.724 357.583 101.556 357.383 100.532 356.983C99.524 356.583 98.724 355.983 98.132 355.183C97.556 354.383 97.268 353.407 97.268 352.255H100.964C101.044 352.719 101.212 353.103 101.468 353.407C101.74 353.695 102.076 353.911 102.476 354.055C102.892 354.199 103.364 354.271 103.892 354.271C104.452 354.271 104.932 354.199 105.332 354.055C105.748 353.911 106.06 353.703 106.268 353.431C106.492 353.143 106.604 352.783 106.604 352.351C106.604 351.711 106.356 351.215 105.86 350.863C105.38 350.511 104.724 350.335 103.892 350.335H102.452V347.407H103.892C104.436 347.407 104.892 347.327 105.26 347.167C105.628 347.007 105.9 346.783 106.076 346.495C106.268 346.207 106.364 345.879 106.364 345.511C106.364 344.951 106.148 344.495 105.716 344.143C105.3 343.791 104.692 343.615 103.892 343.615C103.444 343.615 103.028 343.687 102.644 343.831C102.276 343.975 101.964 344.199 101.708 344.503C101.452 344.791 101.284 345.167 101.204 345.631H97.508C97.604 344.479 97.94 343.503 98.516 342.703C99.092 341.903 99.844 341.303 100.772 340.903C101.716 340.503 102.804 340.303 104.036 340.303C105.204 340.303 106.244 340.495 107.156 340.879C108.068 341.263 108.78 341.823 109.292 342.559C109.82 343.279 110.084 344.127 110.084 345.103C110.084 346.031 109.844 346.807 109.364 347.431C108.884 348.039 108.236 348.503 107.42 348.823C108.3 349.143 109.004 349.639 109.532 350.311C110.06 350.983 110.324 351.807 110.324 352.783C110.324 353.791 110.052 354.663 109.508 355.399C108.964 356.119 108.22 356.663 107.276 357.031C106.332 357.399 105.252 357.583 104.036 357.583ZM119.43 357.583C117.974 357.583 116.702 357.263 115.614 356.623C114.542 355.967 113.702 354.999 113.094 353.719C112.502 352.423 112.206 350.831 112.206 348.943C112.206 347.055 112.502 345.471 113.094 344.191C113.702 342.895 114.542 341.927 115.614 341.287C116.702 340.631 117.974 340.303 119.43 340.303C120.902 340.303 122.174 340.631 123.246 341.287C124.334 341.927 125.174 342.895 125.766 344.191C126.374 345.471 126.678 347.055 126.678 348.943C126.678 350.831 126.374 352.423 125.766 353.719C125.174 354.999 124.334 355.967 123.246 356.623C122.174 357.263 120.902 357.583 119.43 357.583ZM119.43 354.247C120.086 354.247 120.678 354.055 121.206 353.671C121.734 353.287 122.158 352.695 122.478 351.895C122.814 351.095 122.982 350.111 122.982 348.943C122.982 347.775 122.814 346.791 122.478 345.991C122.158 345.191 121.734 344.599 121.206 344.215C120.678 343.831 120.086 343.639 119.43 343.639C118.79 343.639 118.198 343.831 117.654 344.215C117.126 344.599 116.702 345.191 116.382 345.991C116.062 346.791 115.902 347.775 115.902 348.943C115.902 350.111 116.062 351.095 116.382 351.895C116.702 352.695 117.126 353.287 117.654 353.671C118.198 354.055 118.79 354.247 119.43 354.247ZM135.765 357.583C134.309 357.583 133.037 357.263 131.949 356.623C130.877 355.967 130.037 354.999 129.429 353.719C128.837 352.423 128.541 350.831 128.541 348.943C128.541 347.055 128.837 345.471 129.429 344.191C130.037 342.895 130.877 341.927 131.949 341.287C133.037 340.631 134.309 340.303 135.765 340.303C137.237 340.303 138.509 340.631 139.581 341.287C140.669 341.927 141.509 342.895 142.101 344.191C142.709 345.471 143.013 347.055 143.013 348.943C143.013 350.831 142.709 352.423 142.101 353.719C141.509 354.999 140.669 355.967 139.581 356.623C138.509 357.263 137.237 357.583 135.765 357.583ZM135.765 354.247C136.421 354.247 137.013 354.055 137.541 353.671C138.069 353.287 138.493 352.695 138.813 351.895C139.149 351.095 139.317 350.111 139.317 348.943C139.317 347.775 139.149 346.791 138.813 345.991C138.493 345.191 138.069 344.599 137.541 344.215C137.013 343.831 136.421 343.639 135.765 343.639C135.125 343.639 134.533 343.831 133.989 344.215C133.461 344.599 133.037 345.191 132.717 345.991C132.397 346.791 132.237 347.775 132.237 348.943C132.237 350.111 132.397 351.095 132.717 351.895C133.037 352.695 133.461 353.287 133.989 353.671C134.533 354.055 135.125 354.247 135.765 354.247ZM143.701 357.343L147.757 350.743L143.941 344.599H147.733L150.013 348.631L152.269 344.599H156.013L152.197 350.743L156.253 357.343H152.437L149.941 352.999L147.421 357.343H143.701ZM163.308 357.583C162.012 357.583 160.868 357.327 159.876 356.815C158.9 356.303 158.14 355.591 157.596 354.679C157.068 353.767 156.804 352.735 156.804 351.583C156.804 350.959 156.876 350.367 157.02 349.807C157.164 349.231 157.364 348.679 157.62 348.151C157.876 347.607 158.204 347.023 158.604 346.399L162.324 340.543H166.38L162.804 346.159H162.924C163.068 346.111 163.26 346.079 163.5 346.063C163.74 346.047 163.98 346.039 164.22 346.039C165.18 346.039 166.084 346.263 166.932 346.711C167.796 347.143 168.492 347.791 169.02 348.655C169.564 349.503 169.836 350.511 169.836 351.679C169.836 352.799 169.572 353.815 169.044 354.727C168.516 355.623 167.764 356.327 166.788 356.839C165.812 357.335 164.652 357.583 163.308 357.583ZM163.308 354.247C163.884 354.247 164.38 354.143 164.796 353.935C165.228 353.711 165.556 353.407 165.78 353.023C166.02 352.623 166.14 352.175 166.14 351.679C166.14 351.135 166.012 350.663 165.756 350.263C165.5 349.863 165.156 349.551 164.724 349.327C164.308 349.103 163.836 348.991 163.308 348.991C162.748 348.991 162.252 349.103 161.82 349.327C161.404 349.535 161.076 349.839 160.836 350.239C160.612 350.639 160.5 351.119 160.5 351.679C160.5 352.175 160.612 352.623 160.836 353.023C161.076 353.407 161.404 353.711 161.82 353.935C162.252 354.143 162.748 354.247 163.308 354.247ZM178.82 357.583C177.364 357.583 176.092 357.263 175.004 356.623C173.932 355.967 173.092 354.999 172.484 353.719C171.892 352.423 171.596 350.831 171.596 348.943C171.596 347.055 171.892 345.471 172.484 344.191C173.092 342.895 173.932 341.927 175.004 341.287C176.092 340.631 177.364 340.303 178.82 340.303C180.292 340.303 181.564 340.631 182.636 341.287C183.724 341.927 184.564 342.895 185.156 344.191C185.764 345.471 186.068 347.055 186.068 348.943C186.068 350.831 185.764 352.423 185.156 353.719C184.564 354.999 183.724 355.967 182.636 356.623C181.564 357.263 180.292 357.583 178.82 357.583ZM178.82 354.247C179.476 354.247 180.068 354.055 180.596 353.671C181.124 353.287 181.548 352.695 181.868 351.895C182.204 351.095 182.372 350.111 182.372 348.943C182.372 347.775 182.204 346.791 181.868 345.991C181.548 345.191 181.124 344.599 180.596 344.215C180.068 343.831 179.476 343.639 178.82 343.639C178.18 343.639 177.588 343.831 177.044 344.215C176.516 344.599 176.092 345.191 175.772 345.991C175.452 346.791 175.292 347.775 175.292 348.943C175.292 350.111 175.452 351.095 175.772 351.895C176.092 352.695 176.516 353.287 177.044 353.671C177.588 354.055 178.18 354.247 178.82 354.247ZM195.156 357.583C193.7 357.583 192.428 357.263 191.34 356.623C190.268 355.967 189.428 354.999 188.82 353.719C188.228 352.423 187.932 350.831 187.932 348.943C187.932 347.055 188.228 345.471 188.82 344.191C189.428 342.895 190.268 341.927 191.34 341.287C192.428 340.631 193.7 340.303 195.156 340.303C196.628 340.303 197.9 340.631 198.972 341.287C200.06 341.927 200.9 342.895 201.492 344.191C202.1 345.471 202.404 347.055 202.404 348.943C202.404 350.831 202.1 352.423 201.492 353.719C200.9 354.999 200.06 355.967 198.972 356.623C197.9 357.263 196.628 357.583 195.156 357.583ZM195.156 354.247C195.812 354.247 196.404 354.055 196.932 353.671C197.46 353.287 197.884 352.695 198.204 351.895C198.54 351.095 198.708 350.111 198.708 348.943C198.708 347.775 198.54 346.791 198.204 345.991C197.884 345.191 197.46 344.599 196.932 344.215C196.404 343.831 195.812 343.639 195.156 343.639C194.516 343.639 193.924 343.831 193.38 344.215C192.852 344.599 192.428 345.191 192.108 345.991C191.788 346.791 191.628 347.775 191.628 348.943C191.628 350.111 191.788 351.095 192.108 351.895C192.428 352.695 192.852 353.287 193.38 353.671C193.924 354.055 194.516 354.247 195.156 354.247Z" fill="#6E717A"/>
<path d="M106.395 376.343L103.935 372.827H105.363L107.835 376.343H106.395ZM101.595 376.343V367.943H104.955C105.499 367.943 105.971 368.051 106.371 368.267C106.779 368.483 107.095 368.787 107.319 369.179C107.543 369.571 107.655 370.027 107.655 370.547C107.655 371.051 107.543 371.499 107.319 371.891C107.095 372.283 106.787 372.587 106.395 372.803C106.003 373.011 105.563 373.115 105.075 373.115H102.867V376.343H101.595ZM104.871 371.999C105.183 371.999 105.451 371.939 105.675 371.819C105.907 371.699 106.083 371.531 106.203 371.315C106.323 371.091 106.383 370.835 106.383 370.547C106.383 370.099 106.247 369.743 105.975 369.479C105.703 369.215 105.335 369.083 104.871 369.083H102.867V371.999H104.871ZM111.427 376.463C110.835 376.463 110.315 376.335 109.867 376.079C109.427 375.823 109.083 375.455 108.835 374.975C108.595 374.487 108.475 373.895 108.475 373.199C108.475 372.519 108.595 371.935 108.835 371.447C109.083 370.951 109.427 370.579 109.867 370.331C110.307 370.075 110.815 369.947 111.391 369.947C111.999 369.947 112.519 370.091 112.951 370.379C113.391 370.659 113.723 371.031 113.947 371.495C114.171 371.959 114.283 372.447 114.283 372.959C114.283 373.079 114.275 373.195 114.259 373.307C114.251 373.419 114.239 373.511 114.223 373.583H109.255V372.623H113.143C113.103 372.335 113.015 372.067 112.879 371.819C112.743 371.563 112.547 371.359 112.291 371.207C112.043 371.055 111.743 370.979 111.391 370.979C110.999 370.979 110.671 371.075 110.407 371.267C110.143 371.451 109.947 371.703 109.819 372.023C109.691 372.343 109.627 372.715 109.627 373.139C109.627 373.627 109.695 374.043 109.831 374.387C109.975 374.731 110.183 374.991 110.455 375.167C110.727 375.343 111.051 375.431 111.427 375.431C111.771 375.431 112.059 375.363 112.291 375.227C112.523 375.083 112.723 374.875 112.891 374.603H114.127C113.999 374.987 113.811 375.319 113.563 375.599C113.315 375.871 113.011 376.083 112.651 376.235C112.291 376.387 111.883 376.463 111.427 376.463ZM115.655 376.343V367.943H116.807V372.959L119.567 370.067H120.959L118.055 373.127L121.139 376.343H119.723L116.807 373.319V376.343H115.655ZM121.843 376.343V367.943H122.995V376.343H121.843ZM126.477 376.463C126.045 376.463 125.661 376.379 125.325 376.211C124.997 376.043 124.745 375.811 124.569 375.515C124.393 375.219 124.305 374.887 124.305 374.519C124.305 374.151 124.397 373.823 124.581 373.535C124.765 373.239 125.033 373.007 125.385 372.839C125.745 372.671 126.177 372.587 126.681 372.587H128.697V373.547H126.705C126.289 373.547 125.977 373.631 125.769 373.799C125.561 373.967 125.457 374.195 125.457 374.483C125.457 374.779 125.557 375.015 125.757 375.191C125.965 375.359 126.253 375.443 126.621 375.443C126.965 375.443 127.265 375.375 127.521 375.239C127.785 375.103 127.985 374.919 128.121 374.687C128.265 374.447 128.337 374.179 128.337 373.883V372.203C128.337 371.827 128.213 371.531 127.965 371.315C127.717 371.091 127.389 370.979 126.981 370.979C126.653 370.979 126.377 371.051 126.153 371.195C125.937 371.331 125.785 371.519 125.697 371.759H124.497C124.641 371.199 124.929 370.759 125.361 370.439C125.793 370.111 126.341 369.947 127.005 369.947C127.517 369.947 127.961 370.039 128.337 370.223C128.713 370.407 129.001 370.671 129.201 371.015C129.401 371.359 129.501 371.763 129.501 372.227V376.343H128.541L128.397 375.539H128.337C128.201 375.779 127.965 375.995 127.629 376.187C127.301 376.371 126.917 376.463 126.477 376.463ZM131.04 376.343V370.067H131.988L132.132 370.859H132.192C132.384 370.539 132.616 370.307 132.888 370.163C133.16 370.019 133.468 369.947 133.812 369.947C134.196 369.947 134.544 370.043 134.856 370.235C135.168 370.427 135.412 370.695 135.588 371.039H135.648C135.84 370.687 136.108 370.419 136.452 370.235C136.804 370.043 137.192 369.947 137.616 369.947C138.032 369.947 138.408 370.051 138.744 370.259C139.08 370.459 139.344 370.751 139.536 371.135C139.736 371.511 139.836 371.955 139.836 372.467V376.343H138.672V372.539C138.672 372.211 138.616 371.931 138.504 371.699C138.4 371.467 138.244 371.295 138.036 371.183C137.836 371.063 137.608 371.003 137.352 371.003C137.104 371.003 136.876 371.067 136.668 371.195C136.468 371.323 136.308 371.507 136.188 371.747C136.068 371.979 136.008 372.243 136.008 372.539V376.343H134.856V372.539C134.856 372.211 134.8 371.931 134.688 371.699C134.576 371.467 134.42 371.295 134.22 371.183C134.02 371.063 133.792 371.003 133.536 371.003C133.288 371.003 133.06 371.067 132.852 371.195C132.652 371.323 132.492 371.507 132.372 371.747C132.252 371.979 132.192 372.243 132.192 372.539V376.343H131.04ZM141.376 376.343V370.067H142.528V376.343H141.376ZM144.142 376.343V370.067H145.09L145.234 370.859H145.294C145.494 370.547 145.746 370.319 146.05 370.175C146.362 370.023 146.698 369.947 147.058 369.947C147.506 369.947 147.906 370.051 148.258 370.259C148.61 370.459 148.886 370.751 149.086 371.135C149.294 371.519 149.398 371.967 149.398 372.479V376.343H148.234V372.563C148.234 372.235 148.174 371.955 148.054 371.723C147.942 371.483 147.778 371.303 147.562 371.183C147.346 371.063 147.098 371.003 146.818 371.003C146.53 371.003 146.27 371.071 146.038 371.207C145.806 371.343 145.622 371.535 145.486 371.783C145.358 372.023 145.294 372.283 145.294 372.563V376.343H144.142ZM150.939 376.343V370.067H152.091V376.343H150.939ZM153.26 376.343V375.443L156.584 371.123H153.38V370.067H158V370.955L154.676 375.287H158.06V376.343H153.26ZM165.064 376.463C164.632 376.463 164.252 376.383 163.924 376.223C163.596 376.055 163.324 375.827 163.108 375.539H163.048L162.904 376.343H161.956V367.943H163.108V370.799H163.168C163.368 370.543 163.628 370.339 163.948 370.187C164.268 370.027 164.64 369.947 165.064 369.947C165.6 369.947 166.072 370.075 166.48 370.331C166.888 370.579 167.208 370.947 167.44 371.435C167.672 371.923 167.788 372.511 167.788 373.199C167.788 373.887 167.672 374.479 167.44 374.975C167.208 375.463 166.888 375.835 166.48 376.091C166.072 376.339 165.6 376.463 165.064 376.463ZM164.872 375.407C165.216 375.407 165.52 375.327 165.784 375.167C166.048 374.999 166.256 374.751 166.408 374.423C166.56 374.087 166.636 373.679 166.636 373.199C166.636 372.487 166.472 371.943 166.144 371.567C165.824 371.191 165.4 371.003 164.872 371.003C164.52 371.003 164.212 371.087 163.948 371.255C163.684 371.415 163.476 371.663 163.324 371.999C163.18 372.327 163.108 372.727 163.108 373.199C163.108 373.679 163.18 374.087 163.324 374.423C163.476 374.751 163.684 374.999 163.948 375.167C164.212 375.327 164.52 375.407 164.872 375.407ZM171.431 376.463C170.983 376.463 170.579 376.363 170.219 376.163C169.867 375.955 169.591 375.659 169.391 375.275C169.191 374.883 169.091 374.431 169.091 373.919V370.067H170.243V373.847C170.243 374.175 170.299 374.455 170.411 374.687C170.531 374.919 170.699 375.099 170.915 375.227C171.131 375.347 171.383 375.407 171.671 375.407C171.959 375.407 172.215 375.339 172.439 375.203C172.671 375.059 172.851 374.867 172.979 374.627C173.115 374.387 173.183 374.127 173.183 373.847V370.067H174.347V376.343H173.387L173.243 375.539H173.183C172.983 375.859 172.727 376.095 172.415 376.247C172.111 376.391 171.783 376.463 171.431 376.463ZM175.947 376.343V370.067H176.895L177.039 370.859H177.099C177.275 370.579 177.495 370.379 177.759 370.259C178.023 370.131 178.343 370.067 178.719 370.067H179.415V371.159H178.755C178.435 371.159 178.147 371.227 177.891 371.363C177.643 371.491 177.447 371.675 177.303 371.915C177.167 372.147 177.099 372.415 177.099 372.719V376.343H175.947ZM182.036 376.463C181.604 376.463 181.22 376.379 180.884 376.211C180.556 376.043 180.304 375.811 180.128 375.515C179.952 375.219 179.864 374.887 179.864 374.519C179.864 374.151 179.956 373.823 180.14 373.535C180.324 373.239 180.592 373.007 180.944 372.839C181.304 372.671 181.736 372.587 182.24 372.587H184.256V373.547H182.264C181.848 373.547 181.536 373.631 181.328 373.799C181.12 373.967 181.016 374.195 181.016 374.483C181.016 374.779 181.116 375.015 181.316 375.191C181.524 375.359 181.812 375.443 182.18 375.443C182.524 375.443 182.824 375.375 183.08 375.239C183.344 375.103 183.544 374.919 183.68 374.687C183.824 374.447 183.896 374.179 183.896 373.883V372.203C183.896 371.827 183.772 371.531 183.524 371.315C183.276 371.091 182.948 370.979 182.54 370.979C182.212 370.979 181.936 371.051 181.712 371.195C181.496 371.331 181.344 371.519 181.256 371.759H180.056C180.2 371.199 180.488 370.759 180.92 370.439C181.352 370.111 181.9 369.947 182.564 369.947C183.076 369.947 183.52 370.039 183.896 370.223C184.272 370.407 184.56 370.671 184.76 371.015C184.96 371.359 185.06 371.763 185.06 372.227V376.343H184.1L183.956 375.539H183.896C183.76 375.779 183.524 375.995 183.188 376.187C182.86 376.371 182.476 376.463 182.036 376.463ZM189.011 376.463C188.483 376.463 188.015 376.339 187.607 376.091C187.199 375.835 186.879 375.463 186.647 374.975C186.415 374.479 186.299 373.887 186.299 373.199C186.299 372.511 186.415 371.923 186.647 371.435C186.879 370.947 187.199 370.579 187.607 370.331C188.015 370.075 188.483 369.947 189.011 369.947C189.443 369.947 189.819 370.027 190.139 370.187C190.459 370.339 190.719 370.543 190.919 370.799H190.979V367.943H192.131V376.343H191.171L191.039 375.539H190.979C190.763 375.827 190.491 376.055 190.163 376.223C189.835 376.383 189.451 376.463 189.011 376.463ZM189.215 375.407C189.559 375.407 189.863 375.327 190.127 375.167C190.391 374.999 190.599 374.751 190.751 374.423C190.903 374.087 190.979 373.679 190.979 373.199C190.979 372.727 190.903 372.327 190.751 371.999C190.599 371.663 190.391 371.415 190.127 371.255C189.863 371.087 189.559 371.003 189.215 371.003C188.863 371.003 188.555 371.087 188.291 371.255C188.027 371.415 187.819 371.663 187.667 371.999C187.523 372.327 187.451 372.727 187.451 373.199C187.451 373.911 187.611 374.459 187.931 374.843C188.259 375.219 188.687 375.407 189.215 375.407ZM195.606 376.463C195.174 376.463 194.79 376.379 194.454 376.211C194.126 376.043 193.874 375.811 193.698 375.515C193.522 375.219 193.434 374.887 193.434 374.519C193.434 374.151 193.526 373.823 193.71 373.535C193.894 373.239 194.162 373.007 194.514 372.839C194.874 372.671 195.306 372.587 195.81 372.587H197.826V373.547H195.834C195.418 373.547 195.106 373.631 194.898 373.799C194.69 373.967 194.586 374.195 194.586 374.483C194.586 374.779 194.686 375.015 194.886 375.191C195.094 375.359 195.382 375.443 195.75 375.443C196.094 375.443 196.394 375.375 196.65 375.239C196.914 375.103 197.114 374.919 197.25 374.687C197.394 374.447 197.466 374.179 197.466 373.883V372.203C197.466 371.827 197.342 371.531 197.094 371.315C196.846 371.091 196.518 370.979 196.11 370.979C195.782 370.979 195.506 371.051 195.282 371.195C195.066 371.331 194.914 371.519 194.826 371.759H193.626C193.77 371.199 194.058 370.759 194.49 370.439C194.922 370.111 195.47 369.947 196.134 369.947C196.646 369.947 197.09 370.039 197.466 370.223C197.842 370.407 198.13 370.671 198.33 371.015C198.53 371.359 198.63 371.763 198.63 372.227V376.343H197.67L197.526 375.539H197.466C197.33 375.779 197.094 375.995 196.758 376.187C196.43 376.371 196.046 376.463 195.606 376.463Z" fill="#464C5C"/>
</svg>
