<svg width="300" height="100" viewBox="0 0 300 100" fill="none" xmlns="http://www.w3.org/2000/svg">
<rect width="300" height="100" rx="8" fill="white"/>
<g opacity="0.24">
<path d="M73.5907 70.2399C71.4122 69.0883 71.4122 66.2102 73.5907 65.0586L86.2242 58.3807L98.8577 51.7029C101.036 50.5513 103.759 51.9904 103.759 54.2936V81.004C103.759 83.3072 101.036 84.7462 98.8577 83.5946L86.2242 76.9168L73.5907 70.239V70.2399Z" fill="#00007C"/>
<path d="M110.041 19.589V51.5718C110.041 51.7213 110.03 51.8681 110.011 52.0132C109.783 53.7715 108.199 55.0213 106.422 55.1469C105.677 55.2017 104.899 55.0602 104.17 54.6746L103.179 54.1501H103.176L99.1841 52.0397L94.3714 49.4968L91.9677 48.2267L89.0429 46.6807L88.4828 46.3844L88.3569 46.3189L81.1406 42.5024L78.8237 41.2791L73.9162 38.6832C71.3069 37.3052 71.3069 33.8592 73.9162 32.4786L80.0415 29.2422L81.1406 28.6594L81.1982 28.6275L82.4603 27.9606L88.3569 24.8455L88.7699 24.6279L89.0438 24.4837L91.9686 22.9377L94.2597 21.725L94.6249 21.5331L95.4031 21.1209L96.9967 20.278L97.1154 20.2152L98.8411 19.3042L98.8881 19.2777L99.154 19.1388L99.4562 18.9787L102.068 17.5981L104.172 16.4854C104.849 16.1281 105.569 15.9786 106.266 16.0025H106.279C107.623 16.052 108.875 16.7428 109.541 17.8209C109.554 17.8422 109.567 17.8625 109.578 17.8837C109.773 18.2145 109.915 18.5789 109.986 18.9725C110.025 19.1698 110.043 19.3767 110.043 19.5864L110.041 19.589Z" fill="#4DA2FF"/>
<path d="M108.083 48.4595C110.692 49.8384 110.692 53.2852 108.083 54.6641L92.955 62.6598L77.8265 70.6555C75.2181 72.0345 71.9574 70.3106 71.9574 67.5537V35.5691C71.9574 32.8122 75.2181 31.0883 77.8265 32.4672L92.955 40.4629L108.083 48.4586V48.4595Z" fill="#0044FF"/>
</g>
<path d="M133.411 49.24C132.099 49.24 130.931 49.04 129.907 48.64C128.899 48.24 128.099 47.64 127.507 46.84C126.931 46.04 126.643 45.064 126.643 43.912H130.339C130.419 44.376 130.587 44.76 130.843 45.064C131.115 45.352 131.451 45.568 131.851 45.712C132.267 45.856 132.739 45.928 133.267 45.928C133.827 45.928 134.307 45.856 134.707 45.712C135.123 45.568 135.435 45.36 135.643 45.088C135.867 44.8 135.979 44.44 135.979 44.008C135.979 43.368 135.731 42.872 135.235 42.52C134.755 42.168 134.099 41.992 133.267 41.992H131.827V39.064H133.267C133.811 39.064 134.267 38.984 134.635 38.824C135.003 38.664 135.275 38.44 135.451 38.152C135.643 37.864 135.739 37.536 135.739 37.168C135.739 36.608 135.523 36.152 135.091 35.8C134.675 35.448 134.067 35.272 133.267 35.272C132.819 35.272 132.403 35.344 132.019 35.488C131.651 35.632 131.339 35.856 131.083 36.16C130.827 36.448 130.659 36.824 130.579 37.288H126.883C126.979 36.136 127.315 35.16 127.891 34.36C128.467 33.56 129.219 32.96 130.147 32.56C131.091 32.16 132.179 31.96 133.411 31.96C134.579 31.96 135.619 32.152 136.531 32.536C137.443 32.92 138.155 33.48 138.667 34.216C139.195 34.936 139.459 35.784 139.459 36.76C139.459 37.688 139.219 38.464 138.739 39.088C138.259 39.696 137.611 40.16 136.795 40.48C137.675 40.8 138.379 41.296 138.907 41.968C139.435 42.64 139.699 43.464 139.699 44.44C139.699 45.448 139.427 46.32 138.883 47.056C138.339 47.776 137.595 48.32 136.651 48.688C135.707 49.056 134.627 49.24 133.411 49.24ZM148.805 49.24C147.349 49.24 146.077 48.92 144.989 48.28C143.917 47.624 143.077 46.656 142.469 45.376C141.877 44.08 141.581 42.488 141.581 40.6C141.581 38.712 141.877 37.128 142.469 35.848C143.077 34.552 143.917 33.584 144.989 32.944C146.077 32.288 147.349 31.96 148.805 31.96C150.277 31.96 151.549 32.288 152.621 32.944C153.709 33.584 154.549 34.552 155.141 35.848C155.749 37.128 156.053 38.712 156.053 40.6C156.053 42.488 155.749 44.08 155.141 45.376C154.549 46.656 153.709 47.624 152.621 48.28C151.549 48.92 150.277 49.24 148.805 49.24ZM148.805 45.904C149.461 45.904 150.053 45.712 150.581 45.328C151.109 44.944 151.533 44.352 151.853 43.552C152.189 42.752 152.357 41.768 152.357 40.6C152.357 39.432 152.189 38.448 151.853 37.648C151.533 36.848 151.109 36.256 150.581 35.872C150.053 35.488 149.461 35.296 148.805 35.296C148.165 35.296 147.573 35.488 147.029 35.872C146.501 36.256 146.077 36.848 145.757 37.648C145.437 38.448 145.277 39.432 145.277 40.6C145.277 41.768 145.437 42.752 145.757 43.552C146.077 44.352 146.501 44.944 147.029 45.328C147.573 45.712 148.165 45.904 148.805 45.904ZM165.141 49.24C163.685 49.24 162.413 48.92 161.325 48.28C160.253 47.624 159.413 46.656 158.805 45.376C158.213 44.08 157.917 42.488 157.917 40.6C157.917 38.712 158.213 37.128 158.805 35.848C159.413 34.552 160.253 33.584 161.325 32.944C162.413 32.288 163.685 31.96 165.141 31.96C166.613 31.96 167.885 32.288 168.957 32.944C170.045 33.584 170.885 34.552 171.477 35.848C172.085 37.128 172.389 38.712 172.389 40.6C172.389 42.488 172.085 44.08 171.477 45.376C170.885 46.656 170.045 47.624 168.957 48.28C167.885 48.92 166.613 49.24 165.141 49.24ZM165.141 45.904C165.797 45.904 166.389 45.712 166.917 45.328C167.445 44.944 167.869 44.352 168.189 43.552C168.525 42.752 168.693 41.768 168.693 40.6C168.693 39.432 168.525 38.448 168.189 37.648C167.869 36.848 167.445 36.256 166.917 35.872C166.389 35.488 165.797 35.296 165.141 35.296C164.501 35.296 163.909 35.488 163.365 35.872C162.837 36.256 162.413 36.848 162.093 37.648C161.773 38.448 161.613 39.432 161.613 40.6C161.613 41.768 161.773 42.752 162.093 43.552C162.413 44.352 162.837 44.944 163.365 45.328C163.909 45.712 164.501 45.904 165.141 45.904ZM173.077 49L177.133 42.4L173.317 36.256H177.109L179.389 40.288L181.645 36.256H185.389L181.573 42.4L185.629 49H181.813L179.317 44.656L176.797 49H173.077ZM189.587 49V37.432H186.203V34.096H188.747C189.051 34.096 189.283 34.016 189.443 33.856C189.619 33.68 189.707 33.44 189.707 33.136V32.2H193.283V49H189.587ZM203.109 49.24C201.653 49.24 200.381 48.92 199.293 48.28C198.221 47.624 197.381 46.656 196.773 45.376C196.181 44.08 195.885 42.488 195.885 40.6C195.885 38.712 196.181 37.128 196.773 35.848C197.381 34.552 198.221 33.584 199.293 32.944C200.381 32.288 201.653 31.96 203.109 31.96C204.581 31.96 205.853 32.288 206.925 32.944C208.013 33.584 208.853 34.552 209.445 35.848C210.053 37.128 210.357 38.712 210.357 40.6C210.357 42.488 210.053 44.08 209.445 45.376C208.853 46.656 208.013 47.624 206.925 48.28C205.853 48.92 204.581 49.24 203.109 49.24ZM203.109 45.904C203.765 45.904 204.357 45.712 204.885 45.328C205.413 44.944 205.837 44.352 206.157 43.552C206.493 42.752 206.661 41.768 206.661 40.6C206.661 39.432 206.493 38.448 206.157 37.648C205.837 36.848 205.413 36.256 204.885 35.872C204.357 35.488 203.765 35.296 203.109 35.296C202.469 35.296 201.877 35.488 201.333 35.872C200.805 36.256 200.381 36.848 200.061 37.648C199.741 38.448 199.581 39.432 199.581 40.6C199.581 41.768 199.741 42.752 200.061 43.552C200.381 44.352 200.805 44.944 201.333 45.328C201.877 45.712 202.469 45.904 203.109 45.904ZM219.445 49.24C217.989 49.24 216.717 48.92 215.629 48.28C214.557 47.624 213.717 46.656 213.109 45.376C212.517 44.08 212.221 42.488 212.221 40.6C212.221 38.712 212.517 37.128 213.109 35.848C213.717 34.552 214.557 33.584 215.629 32.944C216.717 32.288 217.989 31.96 219.445 31.96C220.917 31.96 222.189 32.288 223.261 32.944C224.349 33.584 225.189 34.552 225.781 35.848C226.389 37.128 226.693 38.712 226.693 40.6C226.693 42.488 226.389 44.08 225.781 45.376C225.189 46.656 224.349 47.624 223.261 48.28C222.189 48.92 220.917 49.24 219.445 49.24ZM219.445 45.904C220.101 45.904 220.693 45.712 221.221 45.328C221.749 44.944 222.173 44.352 222.493 43.552C222.829 42.752 222.997 41.768 222.997 40.6C222.997 39.432 222.829 38.448 222.493 37.648C222.173 36.848 221.749 36.256 221.221 35.872C220.693 35.488 220.101 35.296 219.445 35.296C218.805 35.296 218.213 35.488 217.669 35.872C217.141 36.256 216.717 36.848 216.397 37.648C216.077 38.448 215.917 39.432 215.917 40.6C215.917 41.768 216.077 42.752 216.397 43.552C216.717 44.352 217.141 44.944 217.669 45.328C218.213 45.712 218.805 45.904 219.445 45.904Z" fill="#6E717A"/>
<path d="M131.803 68L129.343 64.484H130.771L133.243 68H131.803ZM127.003 68V59.6H130.363C130.907 59.6 131.379 59.708 131.779 59.924C132.187 60.14 132.503 60.444 132.727 60.836C132.951 61.228 133.063 61.684 133.063 62.204C133.063 62.708 132.951 63.156 132.727 63.548C132.503 63.94 132.195 64.244 131.803 64.46C131.411 64.668 130.971 64.772 130.483 64.772H128.275V68H127.003ZM130.279 63.656C130.591 63.656 130.859 63.596 131.083 63.476C131.315 63.356 131.491 63.188 131.611 62.972C131.731 62.748 131.791 62.492 131.791 62.204C131.791 61.756 131.655 61.4 131.383 61.136C131.111 60.872 130.743 60.74 130.279 60.74H128.275V63.656H130.279ZM136.835 68.12C136.243 68.12 135.723 67.992 135.275 67.736C134.835 67.48 134.491 67.112 134.243 66.632C134.003 66.144 133.883 65.552 133.883 64.856C133.883 64.176 134.003 63.592 134.243 63.104C134.491 62.608 134.835 62.236 135.275 61.988C135.715 61.732 136.223 61.604 136.799 61.604C137.407 61.604 137.927 61.748 138.359 62.036C138.799 62.316 139.131 62.688 139.355 63.152C139.579 63.616 139.691 64.104 139.691 64.616C139.691 64.736 139.683 64.852 139.667 64.964C139.659 65.076 139.647 65.168 139.631 65.24H134.663V64.28H138.551C138.511 63.992 138.423 63.724 138.287 63.476C138.151 63.22 137.955 63.016 137.699 62.864C137.451 62.712 137.151 62.636 136.799 62.636C136.407 62.636 136.079 62.732 135.815 62.924C135.551 63.108 135.355 63.36 135.227 63.68C135.099 64 135.035 64.372 135.035 64.796C135.035 65.284 135.103 65.7 135.239 66.044C135.383 66.388 135.591 66.648 135.863 66.824C136.135 67 136.459 67.088 136.835 67.088C137.179 67.088 137.467 67.02 137.699 66.884C137.931 66.74 138.131 66.532 138.299 66.26H139.535C139.407 66.644 139.219 66.976 138.971 67.256C138.723 67.528 138.419 67.74 138.059 67.892C137.699 68.044 137.291 68.12 136.835 68.12ZM141.063 68V59.6H142.215V64.616L144.975 61.724H146.367L143.463 64.784L146.547 68H145.131L142.215 64.976V68H141.063ZM147.251 68V59.6H148.403V68H147.251ZM151.886 68.12C151.454 68.12 151.07 68.036 150.734 67.868C150.406 67.7 150.154 67.468 149.978 67.172C149.802 66.876 149.714 66.544 149.714 66.176C149.714 65.808 149.806 65.48 149.99 65.192C150.174 64.896 150.442 64.664 150.794 64.496C151.154 64.328 151.586 64.244 152.09 64.244H154.106V65.204H152.114C151.698 65.204 151.386 65.288 151.178 65.456C150.97 65.624 150.866 65.852 150.866 66.14C150.866 66.436 150.966 66.672 151.166 66.848C151.374 67.016 151.662 67.1 152.03 67.1C152.374 67.1 152.674 67.032 152.93 66.896C153.194 66.76 153.394 66.576 153.53 66.344C153.674 66.104 153.746 65.836 153.746 65.54V63.86C153.746 63.484 153.622 63.188 153.374 62.972C153.126 62.748 152.798 62.636 152.39 62.636C152.062 62.636 151.786 62.708 151.562 62.852C151.346 62.988 151.194 63.176 151.106 63.416H149.906C150.05 62.856 150.338 62.416 150.77 62.096C151.202 61.768 151.75 61.604 152.414 61.604C152.926 61.604 153.37 61.696 153.746 61.88C154.122 62.064 154.41 62.328 154.61 62.672C154.81 63.016 154.91 63.42 154.91 63.884V68H153.95L153.806 67.196H153.746C153.61 67.436 153.374 67.652 153.038 67.844C152.71 68.028 152.326 68.12 151.886 68.12ZM156.449 68V61.724H157.397L157.541 62.516H157.601C157.793 62.196 158.025 61.964 158.297 61.82C158.569 61.676 158.877 61.604 159.221 61.604C159.605 61.604 159.953 61.7 160.265 61.892C160.577 62.084 160.821 62.352 160.997 62.696H161.057C161.249 62.344 161.517 62.076 161.861 61.892C162.213 61.7 162.601 61.604 163.025 61.604C163.441 61.604 163.817 61.708 164.153 61.916C164.489 62.116 164.753 62.408 164.945 62.792C165.145 63.168 165.245 63.612 165.245 64.124V68H164.081V64.196C164.081 63.868 164.025 63.588 163.913 63.356C163.809 63.124 163.653 62.952 163.445 62.84C163.245 62.72 163.017 62.66 162.761 62.66C162.513 62.66 162.285 62.724 162.077 62.852C161.877 62.98 161.717 63.164 161.597 63.404C161.477 63.636 161.417 63.9 161.417 64.196V68H160.265V64.196C160.265 63.868 160.209 63.588 160.097 63.356C159.985 63.124 159.829 62.952 159.629 62.84C159.429 62.72 159.201 62.66 158.945 62.66C158.697 62.66 158.469 62.724 158.261 62.852C158.061 62.98 157.901 63.164 157.781 63.404C157.661 63.636 157.601 63.9 157.601 64.196V68H156.449ZM166.785 68V61.724H167.937V68H166.785ZM169.55 68V61.724H170.498L170.642 62.516H170.702C170.902 62.204 171.154 61.976 171.458 61.832C171.77 61.68 172.106 61.604 172.466 61.604C172.914 61.604 173.314 61.708 173.666 61.916C174.018 62.116 174.294 62.408 174.494 62.792C174.702 63.176 174.806 63.624 174.806 64.136V68H173.642V64.22C173.642 63.892 173.582 63.612 173.462 63.38C173.35 63.14 173.186 62.96 172.97 62.84C172.754 62.72 172.506 62.66 172.226 62.66C171.938 62.66 171.678 62.728 171.446 62.864C171.214 63 171.03 63.192 170.894 63.44C170.766 63.68 170.702 63.94 170.702 64.22V68H169.55ZM176.347 68V61.724H177.499V68H176.347ZM178.669 68V67.1L181.993 62.78H178.789V61.724H183.409V62.612L180.085 66.944H183.469V68H178.669ZM190.472 68.12C190.04 68.12 189.66 68.04 189.332 67.88C189.004 67.712 188.732 67.484 188.516 67.196H188.456L188.312 68H187.364V59.6H188.516V62.456H188.576C188.776 62.2 189.036 61.996 189.356 61.844C189.676 61.684 190.048 61.604 190.472 61.604C191.008 61.604 191.48 61.732 191.888 61.988C192.296 62.236 192.616 62.604 192.848 63.092C193.08 63.58 193.196 64.168 193.196 64.856C193.196 65.544 193.08 66.136 192.848 66.632C192.616 67.12 192.296 67.492 191.888 67.748C191.48 67.996 191.008 68.12 190.472 68.12ZM190.28 67.064C190.624 67.064 190.928 66.984 191.192 66.824C191.456 66.656 191.664 66.408 191.816 66.08C191.968 65.744 192.044 65.336 192.044 64.856C192.044 64.144 191.88 63.6 191.552 63.224C191.232 62.848 190.808 62.66 190.28 62.66C189.928 62.66 189.62 62.744 189.356 62.912C189.092 63.072 188.884 63.32 188.732 63.656C188.588 63.984 188.516 64.384 188.516 64.856C188.516 65.336 188.588 65.744 188.732 66.08C188.884 66.408 189.092 66.656 189.356 66.824C189.62 66.984 189.928 67.064 190.28 67.064ZM196.84 68.12C196.392 68.12 195.988 68.02 195.628 67.82C195.276 67.612 195 67.316 194.8 66.932C194.6 66.54 194.5 66.088 194.5 65.576V61.724H195.652V65.504C195.652 65.832 195.708 66.112 195.82 66.344C195.94 66.576 196.108 66.756 196.324 66.884C196.54 67.004 196.792 67.064 197.08 67.064C197.368 67.064 197.624 66.996 197.848 66.86C198.08 66.716 198.26 66.524 198.388 66.284C198.524 66.044 198.592 65.784 198.592 65.504V61.724H199.756V68H198.796L198.652 67.196H198.592C198.392 67.516 198.136 67.752 197.824 67.904C197.52 68.048 197.192 68.12 196.84 68.12ZM201.355 68V61.724H202.303L202.447 62.516H202.507C202.683 62.236 202.903 62.036 203.167 61.916C203.431 61.788 203.751 61.724 204.127 61.724H204.823V62.816H204.163C203.843 62.816 203.555 62.884 203.299 63.02C203.051 63.148 202.855 63.332 202.711 63.572C202.575 63.804 202.507 64.072 202.507 64.376V68H201.355ZM207.444 68.12C207.012 68.12 206.628 68.036 206.292 67.868C205.964 67.7 205.712 67.468 205.536 67.172C205.36 66.876 205.272 66.544 205.272 66.176C205.272 65.808 205.364 65.48 205.548 65.192C205.732 64.896 206 64.664 206.352 64.496C206.712 64.328 207.144 64.244 207.648 64.244H209.664V65.204H207.672C207.256 65.204 206.944 65.288 206.736 65.456C206.528 65.624 206.424 65.852 206.424 66.14C206.424 66.436 206.524 66.672 206.724 66.848C206.932 67.016 207.22 67.1 207.588 67.1C207.932 67.1 208.232 67.032 208.488 66.896C208.752 66.76 208.952 66.576 209.088 66.344C209.232 66.104 209.304 65.836 209.304 65.54V63.86C209.304 63.484 209.18 63.188 208.932 62.972C208.684 62.748 208.356 62.636 207.948 62.636C207.62 62.636 207.344 62.708 207.12 62.852C206.904 62.988 206.752 63.176 206.664 63.416H205.464C205.608 62.856 205.896 62.416 206.328 62.096C206.76 61.768 207.308 61.604 207.972 61.604C208.484 61.604 208.928 61.696 209.304 61.88C209.68 62.064 209.968 62.328 210.168 62.672C210.368 63.016 210.468 63.42 210.468 63.884V68H209.508L209.364 67.196H209.304C209.168 67.436 208.932 67.652 208.596 67.844C208.268 68.028 207.884 68.12 207.444 68.12ZM214.419 68.12C213.891 68.12 213.423 67.996 213.015 67.748C212.607 67.492 212.287 67.12 212.055 66.632C211.823 66.136 211.707 65.544 211.707 64.856C211.707 64.168 211.823 63.58 212.055 63.092C212.287 62.604 212.607 62.236 213.015 61.988C213.423 61.732 213.891 61.604 214.419 61.604C214.851 61.604 215.227 61.684 215.547 61.844C215.867 61.996 216.127 62.2 216.327 62.456H216.387V59.6H217.539V68H216.579L216.447 67.196H216.387C216.171 67.484 215.899 67.712 215.571 67.88C215.243 68.04 214.859 68.12 214.419 68.12ZM214.623 67.064C214.967 67.064 215.271 66.984 215.535 66.824C215.799 66.656 216.007 66.408 216.159 66.08C216.311 65.744 216.387 65.336 216.387 64.856C216.387 64.384 216.311 63.984 216.159 63.656C216.007 63.32 215.799 63.072 215.535 62.912C215.271 62.744 214.967 62.66 214.623 62.66C214.271 62.66 213.963 62.744 213.699 62.912C213.435 63.072 213.227 63.32 213.075 63.656C212.931 63.984 212.859 64.384 212.859 64.856C212.859 65.568 213.019 66.116 213.339 66.5C213.667 66.876 214.095 67.064 214.623 67.064ZM221.015 68.12C220.583 68.12 220.199 68.036 219.863 67.868C219.535 67.7 219.283 67.468 219.107 67.172C218.931 66.876 218.843 66.544 218.843 66.176C218.843 65.808 218.935 65.48 219.119 65.192C219.303 64.896 219.571 64.664 219.923 64.496C220.283 64.328 220.715 64.244 221.219 64.244H223.235V65.204H221.243C220.827 65.204 220.515 65.288 220.307 65.456C220.099 65.624 219.995 65.852 219.995 66.14C219.995 66.436 220.095 66.672 220.295 66.848C220.503 67.016 220.791 67.1 221.159 67.1C221.503 67.1 221.803 67.032 222.059 66.896C222.323 66.76 222.523 66.576 222.659 66.344C222.803 66.104 222.875 65.836 222.875 65.54V63.86C222.875 63.484 222.751 63.188 222.503 62.972C222.255 62.748 221.927 62.636 221.519 62.636C221.191 62.636 220.915 62.708 220.691 62.852C220.475 62.988 220.323 63.176 220.235 63.416H219.035C219.179 62.856 219.467 62.416 219.899 62.096C220.331 61.768 220.879 61.604 221.543 61.604C222.055 61.604 222.499 61.696 222.875 61.88C223.251 62.064 223.539 62.328 223.739 62.672C223.939 63.016 224.039 63.42 224.039 63.884V68H223.079L222.935 67.196H222.875C222.739 67.436 222.503 67.652 222.167 67.844C221.839 68.028 221.455 68.12 221.015 68.12Z" fill="#464C5C"/>
</svg>
