<svg width="300" height="250" viewBox="0 0 300 250" fill="none" xmlns="http://www.w3.org/2000/svg">
<rect width="300" height="250" rx="8" fill="white"/>
<g opacity="0.24">
<path d="M124.222 124.969C120.997 123.264 120.997 119.002 124.222 117.297L142.929 107.409L161.635 97.5215C164.861 95.8163 168.892 97.9471 168.892 101.357V140.907C168.892 144.317 164.861 146.448 161.635 144.743L142.929 134.855L124.222 124.967V124.969Z" fill="#00007C"/>
<path d="M178.193 49.971V97.3274C178.193 97.5487 178.177 97.7661 178.15 97.9809C177.811 100.584 175.466 102.435 172.835 102.621C171.732 102.702 170.58 102.493 169.501 101.922L168.033 101.145H168.029L162.118 98.0202L154.992 94.255L151.433 92.3744L147.102 90.0851L146.273 89.6464L146.086 89.5495L135.401 83.8984L131.971 82.0872L124.704 78.2434C120.841 76.203 120.841 71.1006 124.704 69.0563L133.774 64.2643L135.401 63.4013L135.487 63.3541L137.355 62.3667L146.086 57.7541L146.698 57.432L147.103 57.2185L151.434 54.9293L154.827 53.1337L155.367 52.8496L156.52 52.2393L158.879 50.9912L159.055 50.8982L161.61 49.5493L161.68 49.51L162.073 49.3044L162.521 49.0673L166.388 47.023L169.504 45.3755C170.505 44.8464 171.572 44.625 172.604 44.6604H172.623C174.613 44.7337 176.467 45.7566 177.453 47.353C177.472 47.3844 177.492 47.4146 177.508 47.446C177.797 47.9358 178.007 48.4754 178.112 49.0582C178.169 49.3502 178.197 49.6567 178.197 49.967L178.193 49.971Z" fill="#4DA2FF"/>
<path d="M175.295 92.719C179.157 94.7607 179.157 99.8644 175.295 101.906L152.895 113.745L130.494 125.584C126.632 127.626 121.804 125.074 121.804 120.991V73.6324C121.804 69.5503 126.632 66.9978 130.494 69.0395L152.895 80.8786L175.295 92.7177V92.719Z" fill="#0044FF"/>
</g>
<path d="M105.278 182.583C103.966 182.583 102.798 182.383 101.774 181.983C100.766 181.583 99.9662 180.983 99.3742 180.183C98.7982 179.383 98.5102 178.407 98.5102 177.255H102.206C102.286 177.719 102.454 178.103 102.71 178.407C102.982 178.695 103.318 178.911 103.718 179.055C104.134 179.199 104.606 179.271 105.134 179.271C105.694 179.271 106.174 179.199 106.574 179.055C106.99 178.911 107.302 178.703 107.51 178.431C107.734 178.143 107.846 177.783 107.846 177.351C107.846 176.711 107.598 176.215 107.102 175.863C106.622 175.511 105.966 175.335 105.134 175.335H103.694V172.407H105.134C105.678 172.407 106.134 172.327 106.502 172.167C106.87 172.007 107.142 171.783 107.318 171.495C107.51 171.207 107.606 170.879 107.606 170.511C107.606 169.951 107.39 169.495 106.958 169.143C106.542 168.791 105.934 168.615 105.134 168.615C104.686 168.615 104.27 168.687 103.886 168.831C103.518 168.975 103.206 169.199 102.95 169.503C102.694 169.791 102.526 170.167 102.446 170.631H98.7502C98.8462 169.479 99.1822 168.503 99.7582 167.703C100.334 166.903 101.086 166.303 102.014 165.903C102.958 165.503 104.046 165.303 105.278 165.303C106.446 165.303 107.486 165.495 108.398 165.879C109.31 166.263 110.022 166.823 110.534 167.559C111.062 168.279 111.326 169.127 111.326 170.103C111.326 171.031 111.086 171.807 110.606 172.431C110.126 173.039 109.478 173.503 108.662 173.823C109.542 174.143 110.246 174.639 110.774 175.311C111.302 175.983 111.566 176.807 111.566 177.783C111.566 178.791 111.294 179.663 110.75 180.399C110.206 181.119 109.462 181.663 108.518 182.031C107.574 182.399 106.494 182.583 105.278 182.583ZM120.672 182.583C119.216 182.583 117.944 182.263 116.856 181.623C115.784 180.967 114.944 179.999 114.336 178.719C113.744 177.423 113.448 175.831 113.448 173.943C113.448 172.055 113.744 170.471 114.336 169.191C114.944 167.895 115.784 166.927 116.856 166.287C117.944 165.631 119.216 165.303 120.672 165.303C122.144 165.303 123.416 165.631 124.488 166.287C125.576 166.927 126.416 167.895 127.008 169.191C127.616 170.471 127.92 172.055 127.92 173.943C127.92 175.831 127.616 177.423 127.008 178.719C126.416 179.999 125.576 180.967 124.488 181.623C123.416 182.263 122.144 182.583 120.672 182.583ZM120.672 179.247C121.328 179.247 121.92 179.055 122.448 178.671C122.976 178.287 123.4 177.695 123.72 176.895C124.056 176.095 124.224 175.111 124.224 173.943C124.224 172.775 124.056 171.791 123.72 170.991C123.4 170.191 122.976 169.599 122.448 169.215C121.92 168.831 121.328 168.639 120.672 168.639C120.032 168.639 119.44 168.831 118.896 169.215C118.368 169.599 117.944 170.191 117.624 170.991C117.304 171.791 117.144 172.775 117.144 173.943C117.144 175.111 117.304 176.095 117.624 176.895C117.944 177.695 118.368 178.287 118.896 178.671C119.44 179.055 120.032 179.247 120.672 179.247ZM137.008 182.583C135.552 182.583 134.28 182.263 133.192 181.623C132.12 180.967 131.28 179.999 130.672 178.719C130.08 177.423 129.784 175.831 129.784 173.943C129.784 172.055 130.08 170.471 130.672 169.191C131.28 167.895 132.12 166.927 133.192 166.287C134.28 165.631 135.552 165.303 137.008 165.303C138.48 165.303 139.752 165.631 140.824 166.287C141.912 166.927 142.752 167.895 143.344 169.191C143.952 170.471 144.256 172.055 144.256 173.943C144.256 175.831 143.952 177.423 143.344 178.719C142.752 179.999 141.912 180.967 140.824 181.623C139.752 182.263 138.48 182.583 137.008 182.583ZM137.008 179.247C137.664 179.247 138.256 179.055 138.784 178.671C139.312 178.287 139.736 177.695 140.056 176.895C140.392 176.095 140.56 175.111 140.56 173.943C140.56 172.775 140.392 171.791 140.056 170.991C139.736 170.191 139.312 169.599 138.784 169.215C138.256 168.831 137.664 168.639 137.008 168.639C136.368 168.639 135.776 168.831 135.232 169.215C134.704 169.599 134.28 170.191 133.96 170.991C133.64 171.791 133.48 172.775 133.48 173.943C133.48 175.111 133.64 176.095 133.96 176.895C134.28 177.695 134.704 178.287 135.232 178.671C135.776 179.055 136.368 179.247 137.008 179.247ZM144.944 182.343L149 175.743L145.184 169.599H148.976L151.256 173.631L153.512 169.599H157.256L153.44 175.743L157.496 182.343H153.68L151.184 177.999L148.664 182.343H144.944ZM158.046 182.343V179.007L165.366 172.647C165.75 172.311 166.038 171.983 166.23 171.663C166.438 171.343 166.542 170.991 166.542 170.607C166.542 169.951 166.358 169.455 165.99 169.119C165.622 168.783 165.03 168.615 164.214 168.615C163.766 168.615 163.374 168.695 163.038 168.855C162.702 169.015 162.422 169.247 162.198 169.551C161.974 169.839 161.822 170.199 161.742 170.631H158.046C158.174 169.495 158.502 168.535 159.03 167.751C159.558 166.967 160.262 166.367 161.142 165.951C162.022 165.519 163.046 165.303 164.214 165.303C165.574 165.303 166.71 165.519 167.622 165.951C168.55 166.383 169.238 166.983 169.686 167.751C170.134 168.503 170.358 169.367 170.358 170.343C170.358 170.871 170.27 171.383 170.094 171.879C169.934 172.375 169.678 172.855 169.326 173.319C168.99 173.783 168.558 174.239 168.03 174.687L163.086 179.007H170.598V182.343H158.046ZM178.543 182.583C177.375 182.583 176.335 182.375 175.423 181.959C174.511 181.527 173.767 180.911 173.191 180.111C172.631 179.311 172.279 178.367 172.135 177.279H175.831C175.959 177.871 176.247 178.351 176.695 178.719C177.159 179.087 177.735 179.271 178.423 179.271C179.031 179.271 179.543 179.159 179.959 178.935C180.391 178.711 180.711 178.399 180.919 177.999C181.127 177.583 181.231 177.103 181.231 176.559C181.231 176.031 181.111 175.567 180.871 175.167C180.647 174.767 180.319 174.455 179.887 174.231C179.455 173.991 178.967 173.871 178.423 173.871C177.879 173.871 177.399 173.975 176.983 174.183C176.583 174.391 176.239 174.719 175.951 175.167H172.375L173.335 165.543H183.967V168.711H176.383L176.047 171.759H176.167C176.535 171.519 176.991 171.327 177.535 171.183C178.095 171.023 178.679 170.943 179.287 170.943C180.359 170.943 181.319 171.183 182.167 171.663C183.031 172.143 183.703 172.815 184.183 173.679C184.679 174.543 184.927 175.543 184.927 176.679C184.927 177.783 184.679 178.783 184.183 179.679C183.703 180.575 182.983 181.287 182.023 181.815C181.063 182.327 179.903 182.583 178.543 182.583ZM193.914 182.583C192.458 182.583 191.186 182.263 190.098 181.623C189.026 180.967 188.186 179.999 187.578 178.719C186.986 177.423 186.69 175.831 186.69 173.943C186.69 172.055 186.986 170.471 187.578 169.191C188.186 167.895 189.026 166.927 190.098 166.287C191.186 165.631 192.458 165.303 193.914 165.303C195.386 165.303 196.658 165.631 197.73 166.287C198.818 166.927 199.658 167.895 200.25 169.191C200.858 170.471 201.162 172.055 201.162 173.943C201.162 175.831 200.858 177.423 200.25 178.719C199.658 179.999 198.818 180.967 197.73 181.623C196.658 182.263 195.386 182.583 193.914 182.583ZM193.914 179.247C194.57 179.247 195.162 179.055 195.69 178.671C196.218 178.287 196.642 177.695 196.962 176.895C197.298 176.095 197.466 175.111 197.466 173.943C197.466 172.775 197.298 171.791 196.962 170.991C196.642 170.191 196.218 169.599 195.69 169.215C195.162 168.831 194.57 168.639 193.914 168.639C193.274 168.639 192.682 168.831 192.138 169.215C191.61 169.599 191.186 170.191 190.866 170.991C190.546 171.791 190.386 172.775 190.386 173.943C190.386 175.111 190.546 176.095 190.866 176.895C191.186 177.695 191.61 178.287 192.138 178.671C192.682 179.055 193.274 179.247 193.914 179.247Z" fill="#6E717A"/>
<path d="M106.395 201.343L103.935 197.827H105.363L107.835 201.343H106.395ZM101.595 201.343V192.943H104.955C105.499 192.943 105.971 193.051 106.371 193.267C106.779 193.483 107.095 193.787 107.319 194.179C107.543 194.571 107.655 195.027 107.655 195.547C107.655 196.051 107.543 196.499 107.319 196.891C107.095 197.283 106.787 197.587 106.395 197.803C106.003 198.011 105.563 198.115 105.075 198.115H102.867V201.343H101.595ZM104.871 196.999C105.183 196.999 105.451 196.939 105.675 196.819C105.907 196.699 106.083 196.531 106.203 196.315C106.323 196.091 106.383 195.835 106.383 195.547C106.383 195.099 106.247 194.743 105.975 194.479C105.703 194.215 105.335 194.083 104.871 194.083H102.867V196.999H104.871ZM111.427 201.463C110.835 201.463 110.315 201.335 109.867 201.079C109.427 200.823 109.083 200.455 108.835 199.975C108.595 199.487 108.475 198.895 108.475 198.199C108.475 197.519 108.595 196.935 108.835 196.447C109.083 195.951 109.427 195.579 109.867 195.331C110.307 195.075 110.815 194.947 111.391 194.947C111.999 194.947 112.519 195.091 112.951 195.379C113.391 195.659 113.723 196.031 113.947 196.495C114.171 196.959 114.283 197.447 114.283 197.959C114.283 198.079 114.275 198.195 114.259 198.307C114.251 198.419 114.239 198.511 114.223 198.583H109.255V197.623H113.143C113.103 197.335 113.015 197.067 112.879 196.819C112.743 196.563 112.547 196.359 112.291 196.207C112.043 196.055 111.743 195.979 111.391 195.979C110.999 195.979 110.671 196.075 110.407 196.267C110.143 196.451 109.947 196.703 109.819 197.023C109.691 197.343 109.627 197.715 109.627 198.139C109.627 198.627 109.695 199.043 109.831 199.387C109.975 199.731 110.183 199.991 110.455 200.167C110.727 200.343 111.051 200.431 111.427 200.431C111.771 200.431 112.059 200.363 112.291 200.227C112.523 200.083 112.723 199.875 112.891 199.603H114.127C113.999 199.987 113.811 200.319 113.563 200.599C113.315 200.871 113.011 201.083 112.651 201.235C112.291 201.387 111.883 201.463 111.427 201.463ZM115.655 201.343V192.943H116.807V197.959L119.567 195.067H120.959L118.055 198.127L121.139 201.343H119.723L116.807 198.319V201.343H115.655ZM121.843 201.343V192.943H122.995V201.343H121.843ZM126.477 201.463C126.045 201.463 125.661 201.379 125.325 201.211C124.997 201.043 124.745 200.811 124.569 200.515C124.393 200.219 124.305 199.887 124.305 199.519C124.305 199.151 124.397 198.823 124.581 198.535C124.765 198.239 125.033 198.007 125.385 197.839C125.745 197.671 126.177 197.587 126.681 197.587H128.697V198.547H126.705C126.289 198.547 125.977 198.631 125.769 198.799C125.561 198.967 125.457 199.195 125.457 199.483C125.457 199.779 125.557 200.015 125.757 200.191C125.965 200.359 126.253 200.443 126.621 200.443C126.965 200.443 127.265 200.375 127.521 200.239C127.785 200.103 127.985 199.919 128.121 199.687C128.265 199.447 128.337 199.179 128.337 198.883V197.203C128.337 196.827 128.213 196.531 127.965 196.315C127.717 196.091 127.389 195.979 126.981 195.979C126.653 195.979 126.377 196.051 126.153 196.195C125.937 196.331 125.785 196.519 125.697 196.759H124.497C124.641 196.199 124.929 195.759 125.361 195.439C125.793 195.111 126.341 194.947 127.005 194.947C127.517 194.947 127.961 195.039 128.337 195.223C128.713 195.407 129.001 195.671 129.201 196.015C129.401 196.359 129.501 196.763 129.501 197.227V201.343H128.541L128.397 200.539H128.337C128.201 200.779 127.965 200.995 127.629 201.187C127.301 201.371 126.917 201.463 126.477 201.463ZM131.04 201.343V195.067H131.988L132.132 195.859H132.192C132.384 195.539 132.616 195.307 132.888 195.163C133.16 195.019 133.468 194.947 133.812 194.947C134.196 194.947 134.544 195.043 134.856 195.235C135.168 195.427 135.412 195.695 135.588 196.039H135.648C135.84 195.687 136.108 195.419 136.452 195.235C136.804 195.043 137.192 194.947 137.616 194.947C138.032 194.947 138.408 195.051 138.744 195.259C139.08 195.459 139.344 195.751 139.536 196.135C139.736 196.511 139.836 196.955 139.836 197.467V201.343H138.672V197.539C138.672 197.211 138.616 196.931 138.504 196.699C138.4 196.467 138.244 196.295 138.036 196.183C137.836 196.063 137.608 196.003 137.352 196.003C137.104 196.003 136.876 196.067 136.668 196.195C136.468 196.323 136.308 196.507 136.188 196.747C136.068 196.979 136.008 197.243 136.008 197.539V201.343H134.856V197.539C134.856 197.211 134.8 196.931 134.688 196.699C134.576 196.467 134.42 196.295 134.22 196.183C134.02 196.063 133.792 196.003 133.536 196.003C133.288 196.003 133.06 196.067 132.852 196.195C132.652 196.323 132.492 196.507 132.372 196.747C132.252 196.979 132.192 197.243 132.192 197.539V201.343H131.04ZM141.376 201.343V195.067H142.528V201.343H141.376ZM144.142 201.343V195.067H145.09L145.234 195.859H145.294C145.494 195.547 145.746 195.319 146.05 195.175C146.362 195.023 146.698 194.947 147.058 194.947C147.506 194.947 147.906 195.051 148.258 195.259C148.61 195.459 148.886 195.751 149.086 196.135C149.294 196.519 149.398 196.967 149.398 197.479V201.343H148.234V197.563C148.234 197.235 148.174 196.955 148.054 196.723C147.942 196.483 147.778 196.303 147.562 196.183C147.346 196.063 147.098 196.003 146.818 196.003C146.53 196.003 146.27 196.071 146.038 196.207C145.806 196.343 145.622 196.535 145.486 196.783C145.358 197.023 145.294 197.283 145.294 197.563V201.343H144.142ZM150.939 201.343V195.067H152.091V201.343H150.939ZM153.26 201.343V200.443L156.584 196.123H153.38V195.067H158V195.955L154.676 200.287H158.06V201.343H153.26ZM165.064 201.463C164.632 201.463 164.252 201.383 163.924 201.223C163.596 201.055 163.324 200.827 163.108 200.539H163.048L162.904 201.343H161.956V192.943H163.108V195.799H163.168C163.368 195.543 163.628 195.339 163.948 195.187C164.268 195.027 164.64 194.947 165.064 194.947C165.6 194.947 166.072 195.075 166.48 195.331C166.888 195.579 167.208 195.947 167.44 196.435C167.672 196.923 167.788 197.511 167.788 198.199C167.788 198.887 167.672 199.479 167.44 199.975C167.208 200.463 166.888 200.835 166.48 201.091C166.072 201.339 165.6 201.463 165.064 201.463ZM164.872 200.407C165.216 200.407 165.52 200.327 165.784 200.167C166.048 199.999 166.256 199.751 166.408 199.423C166.56 199.087 166.636 198.679 166.636 198.199C166.636 197.487 166.472 196.943 166.144 196.567C165.824 196.191 165.4 196.003 164.872 196.003C164.52 196.003 164.212 196.087 163.948 196.255C163.684 196.415 163.476 196.663 163.324 196.999C163.18 197.327 163.108 197.727 163.108 198.199C163.108 198.679 163.18 199.087 163.324 199.423C163.476 199.751 163.684 199.999 163.948 200.167C164.212 200.327 164.52 200.407 164.872 200.407ZM171.431 201.463C170.983 201.463 170.579 201.363 170.219 201.163C169.867 200.955 169.591 200.659 169.391 200.275C169.191 199.883 169.091 199.431 169.091 198.919V195.067H170.243V198.847C170.243 199.175 170.299 199.455 170.411 199.687C170.531 199.919 170.699 200.099 170.915 200.227C171.131 200.347 171.383 200.407 171.671 200.407C171.959 200.407 172.215 200.339 172.439 200.203C172.671 200.059 172.851 199.867 172.979 199.627C173.115 199.387 173.183 199.127 173.183 198.847V195.067H174.347V201.343H173.387L173.243 200.539H173.183C172.983 200.859 172.727 201.095 172.415 201.247C172.111 201.391 171.783 201.463 171.431 201.463ZM175.947 201.343V195.067H176.895L177.039 195.859H177.099C177.275 195.579 177.495 195.379 177.759 195.259C178.023 195.131 178.343 195.067 178.719 195.067H179.415V196.159H178.755C178.435 196.159 178.147 196.227 177.891 196.363C177.643 196.491 177.447 196.675 177.303 196.915C177.167 197.147 177.099 197.415 177.099 197.719V201.343H175.947ZM182.036 201.463C181.604 201.463 181.22 201.379 180.884 201.211C180.556 201.043 180.304 200.811 180.128 200.515C179.952 200.219 179.864 199.887 179.864 199.519C179.864 199.151 179.956 198.823 180.14 198.535C180.324 198.239 180.592 198.007 180.944 197.839C181.304 197.671 181.736 197.587 182.24 197.587H184.256V198.547H182.264C181.848 198.547 181.536 198.631 181.328 198.799C181.12 198.967 181.016 199.195 181.016 199.483C181.016 199.779 181.116 200.015 181.316 200.191C181.524 200.359 181.812 200.443 182.18 200.443C182.524 200.443 182.824 200.375 183.08 200.239C183.344 200.103 183.544 199.919 183.68 199.687C183.824 199.447 183.896 199.179 183.896 198.883V197.203C183.896 196.827 183.772 196.531 183.524 196.315C183.276 196.091 182.948 195.979 182.54 195.979C182.212 195.979 181.936 196.051 181.712 196.195C181.496 196.331 181.344 196.519 181.256 196.759H180.056C180.2 196.199 180.488 195.759 180.92 195.439C181.352 195.111 181.9 194.947 182.564 194.947C183.076 194.947 183.52 195.039 183.896 195.223C184.272 195.407 184.56 195.671 184.76 196.015C184.96 196.359 185.06 196.763 185.06 197.227V201.343H184.1L183.956 200.539H183.896C183.76 200.779 183.524 200.995 183.188 201.187C182.86 201.371 182.476 201.463 182.036 201.463ZM189.011 201.463C188.483 201.463 188.015 201.339 187.607 201.091C187.199 200.835 186.879 200.463 186.647 199.975C186.415 199.479 186.299 198.887 186.299 198.199C186.299 197.511 186.415 196.923 186.647 196.435C186.879 195.947 187.199 195.579 187.607 195.331C188.015 195.075 188.483 194.947 189.011 194.947C189.443 194.947 189.819 195.027 190.139 195.187C190.459 195.339 190.719 195.543 190.919 195.799H190.979V192.943H192.131V201.343H191.171L191.039 200.539H190.979C190.763 200.827 190.491 201.055 190.163 201.223C189.835 201.383 189.451 201.463 189.011 201.463ZM189.215 200.407C189.559 200.407 189.863 200.327 190.127 200.167C190.391 199.999 190.599 199.751 190.751 199.423C190.903 199.087 190.979 198.679 190.979 198.199C190.979 197.727 190.903 197.327 190.751 196.999C190.599 196.663 190.391 196.415 190.127 196.255C189.863 196.087 189.559 196.003 189.215 196.003C188.863 196.003 188.555 196.087 188.291 196.255C188.027 196.415 187.819 196.663 187.667 196.999C187.523 197.327 187.451 197.727 187.451 198.199C187.451 198.911 187.611 199.459 187.931 199.843C188.259 200.219 188.687 200.407 189.215 200.407ZM195.606 201.463C195.174 201.463 194.79 201.379 194.454 201.211C194.126 201.043 193.874 200.811 193.698 200.515C193.522 200.219 193.434 199.887 193.434 199.519C193.434 199.151 193.526 198.823 193.71 198.535C193.894 198.239 194.162 198.007 194.514 197.839C194.874 197.671 195.306 197.587 195.81 197.587H197.826V198.547H195.834C195.418 198.547 195.106 198.631 194.898 198.799C194.69 198.967 194.586 199.195 194.586 199.483C194.586 199.779 194.686 200.015 194.886 200.191C195.094 200.359 195.382 200.443 195.75 200.443C196.094 200.443 196.394 200.375 196.65 200.239C196.914 200.103 197.114 199.919 197.25 199.687C197.394 199.447 197.466 199.179 197.466 198.883V197.203C197.466 196.827 197.342 196.531 197.094 196.315C196.846 196.091 196.518 195.979 196.11 195.979C195.782 195.979 195.506 196.051 195.282 196.195C195.066 196.331 194.914 196.519 194.826 196.759H193.626C193.77 196.199 194.058 195.759 194.49 195.439C194.922 195.111 195.47 194.947 196.134 194.947C196.646 194.947 197.09 195.039 197.466 195.223C197.842 195.407 198.13 195.671 198.33 196.015C198.53 196.359 198.63 196.763 198.63 197.227V201.343H197.67L197.526 200.539H197.466C197.33 200.779 197.094 200.995 196.758 201.187C196.43 201.371 196.046 201.463 195.606 201.463Z" fill="#464C5C"/>
</svg>
