<svg xmlns="http://www.w3.org/2000/svg" width="20" height="20" viewBox="0 0 20 20" fill="none">
  <path fill-rule="evenodd" clip-rule="evenodd" d="M17.1626 3.71682C17.9519 3.92811 18.5722 4.54838 18.7835 5.33767C19.1653 6.76684 19.1668 9.75046 19.1668 9.75046C19.1668 9.75046 19.1668 12.7341 18.7835 14.1633C18.5722 14.9526 17.9519 15.5728 17.1626 15.7841C15.7335 16.1674 10.0001 16.1674 10.0001 16.1674C10.0001 16.1674 4.26684 16.1674 2.83766 15.7841C2.04838 15.5728 1.42811 14.9526 1.21682 14.1633C0.833496 12.7341 0.833496 9.75046 0.833496 9.75046C0.833496 9.75046 0.833496 6.76684 1.21682 5.33767C1.42811 4.54838 2.04838 3.92811 2.83766 3.71682C4.26684 3.3335 10.0001 3.3335 10.0001 3.3335C10.0001 3.3335 15.7335 3.3335 17.1626 3.71682ZM12.928 9.75072L8.16507 12.5004V7.001L12.928 9.75072Z" fill="#464C3C"/>
</svg>