<svg xmlns="http://www.w3.org/2000/svg" width="20" height="20" viewBox="0 0 20 20" fill="none">
  <path d="M1.6665 18.3332L2.84277 14.0574C2.12002 12.8031 1.74047 11.3805 1.74233 9.93287C1.73396 5.37108 5.43854 1.6665 9.99147 1.6665C12.2012 1.6665 14.2761 2.52322 15.8383 4.086C16.6084 4.85205 17.2188 5.7633 17.6341 6.76695C18.0494 7.7706 18.2614 8.84669 18.2578 9.93287C18.2578 14.4858 14.5533 18.1904 9.99984 18.1904C8.61382 18.1904 7.26128 17.8457 6.05154 17.1825L1.6665 18.3332ZM6.24504 15.6956L6.49713 15.8467C7.55525 16.4728 8.76198 16.8035 9.99147 16.8044C13.7719 16.8044 16.8551 13.7216 16.8551 9.94075C16.8551 8.10963 16.1411 6.37945 14.8472 5.086C14.2109 4.44611 13.4543 3.93847 12.6209 3.59235C11.7875 3.24622 10.8939 3.06844 9.99147 3.06926C6.20269 3.06975 3.12047 6.15247 3.12047 9.93337C3.12047 11.2268 3.48187 12.4957 4.17069 13.5877L4.33022 13.8482L3.63302 16.3849L6.24553 15.696L6.24504 15.6956Z" fill="#464C3C"/>
  <path fill-rule="evenodd" clip-rule="evenodd" d="M7.93337 6.47202C7.78221 6.12736 7.61431 6.11899 7.47153 6.11899C7.34548 6.11062 7.21057 6.11062 7.06778 6.11062C6.93386 6.11062 6.70688 6.16084 6.51387 6.37108C6.32037 6.58083 5.79157 7.07665 5.79157 8.09289C5.79157 9.10963 6.53061 10.0924 6.63155 10.2268C6.73199 10.3612 8.05941 12.5114 10.1599 13.3435C11.9068 14.0323 12.2598 13.8979 12.6379 13.8556C13.0156 13.8137 13.8561 13.3602 14.0323 12.8728C14.2002 12.3942 14.2002 11.9742 14.15 11.89C14.0998 11.8063 13.9565 11.7556 13.7551 11.6463C13.5449 11.5459 12.537 11.0417 12.344 10.9742C12.1505 10.9073 12.0161 10.8738 11.8817 11.0752C11.7473 11.2854 11.3524 11.7473 11.2268 11.8817C11.1087 12.0161 10.9831 12.0328 10.7812 11.9319C10.5715 11.8314 9.90776 11.6128 9.11801 10.9073C8.50451 10.3607 8.09289 9.68078 7.96685 9.4794C7.84966 9.26916 7.95011 9.15986 8.05941 9.05892C8.15198 8.96685 8.26965 8.81569 8.37059 8.69801C8.47103 8.57985 8.50451 8.48777 8.58034 8.35336C8.6473 8.21894 8.61382 8.09289 8.5636 7.99245C8.51288 7.89989 8.1185 6.88315 7.93337 6.47153V6.47202Z" fill="#464C3C"/>
</svg>