<svg xmlns="http://www.w3.org/2000/svg" width="20" height="20" viewBox="0 0 20 20" fill="none">
  <path d="M14.0182 4.27851C13.4072 3.57812 13.04 2.66488 13.04 1.6665H12.2744C12.4716 2.75775 13.1212 3.69422 14.0182 4.27851Z" fill="#464C3C"/>
  <path d="M6.93483 9.92048C5.60865 9.92048 4.52993 11.0001 4.52993 12.3274C4.52993 13.2523 5.05575 14.0572 5.8213 14.4596C5.53519 14.0649 5.36507 13.5812 5.36507 13.0549C5.36507 11.7276 6.44379 10.648 7.77 10.648C8.01744 10.648 8.25714 10.6905 8.4814 10.7602V7.83477C8.24939 7.80378 8.01357 7.78441 7.77 7.78441C7.72745 7.78441 7.68878 7.78828 7.64625 7.78828V10.0327C7.41813 9.96303 7.18228 9.92048 6.93483 9.92048Z" fill="#464C3C"/>
  <path d="M16.1871 5.56324V7.78828C14.7024 7.78828 13.326 7.31234 12.2047 6.50743V12.3313C12.2047 15.2374 9.84233 17.6057 6.93476 17.6057C5.81351 17.6057 4.76958 17.2496 3.9151 16.6499C4.87784 17.683 6.25041 18.3332 7.76994 18.3332C10.6736 18.3332 13.0398 15.9688 13.0398 13.0588V7.23493C14.1611 8.03984 15.5375 8.51578 17.0222 8.51578V5.65228C16.7322 5.65228 16.4539 5.62128 16.1871 5.56324Z" fill="#464C3C"/>
  <path d="M12.2047 12.3313V6.50743C13.326 7.31234 14.7024 7.78828 16.1871 7.78828V5.56324C15.3287 5.38141 14.5749 4.91703 14.0182 4.27851C13.1211 3.69422 12.4753 2.75775 12.2704 1.6665H10.1748L10.1709 13.1478C10.1246 14.4325 9.06514 15.4657 7.76994 15.4657C6.9657 15.4657 6.25815 15.0671 5.81738 14.4635C5.05183 14.0572 4.526 13.2562 4.526 12.3313C4.526 11.004 5.60472 9.92435 6.9309 9.92435C7.17835 9.92435 7.41807 9.96691 7.64232 10.0366V7.79216C4.79665 7.85408 2.5 10.1913 2.5 13.0588C2.5 14.4441 3.03743 15.7057 3.9151 16.6499C4.76958 17.2496 5.81351 17.6057 6.93476 17.6057C9.83845 17.6057 12.2047 15.2374 12.2047 12.3313Z" fill="#464C3C"/>
</svg>