<svg xmlns="http://www.w3.org/2000/svg" width="20" height="20" viewBox="0 0 20 20" fill="none">
  <path d="M18.3332 2.89199V17.1077C18.3332 17.4327 18.2041 17.7444 17.9742 17.9742C17.7444 18.2041 17.4327 18.3332 17.1077 18.3332H2.89199C2.56697 18.3332 2.25527 18.2041 2.02544 17.9742C1.79562 17.7444 1.6665 17.4327 1.6665 17.1077V2.89199C1.6665 2.56697 1.79562 2.25527 2.02544 2.02544C2.25527 1.79562 2.56697 1.6665 2.89199 1.6665L17.1077 1.6665C17.4327 1.6665 17.7444 1.79562 17.9742 2.02544C18.2041 2.25527 18.3332 2.56697 18.3332 2.89199ZM6.56846 8.03905H4.11748V15.8822H6.56846V8.03905ZM6.78905 5.34297C6.79034 5.15758 6.75511 4.97374 6.68535 4.80196C6.61559 4.63019 6.51268 4.47383 6.3825 4.34182C6.25231 4.20982 6.0974 4.10475 5.92661 4.03261C5.75582 3.96048 5.57249 3.92269 5.38709 3.92141H5.34297C4.96595 3.92141 4.60437 4.07118 4.33777 4.33777C4.07118 4.60437 3.92141 4.96595 3.92141 5.34297C3.92141 5.72 4.07118 6.08158 4.33777 6.34818C4.60437 6.61477 4.96595 6.76454 5.34297 6.76454C5.52838 6.7691 5.71288 6.73709 5.88591 6.67032C6.05894 6.60356 6.21712 6.50335 6.35141 6.37544C6.4857 6.24752 6.59347 6.09439 6.66857 5.92481C6.74366 5.75522 6.7846 5.5725 6.78905 5.38709V5.34297ZM15.8822 11.1175C15.8822 8.75964 14.3822 7.84297 12.892 7.84297C12.4041 7.81854 11.9183 7.92247 11.4831 8.14438C11.0478 8.36629 10.6784 8.69843 10.4116 9.10768H10.343V8.03905H8.03905V15.8822H10.49V11.7106C10.4546 11.2834 10.5892 10.8594 10.8645 10.5308C11.1399 10.2022 11.5338 9.99557 11.9606 9.95572H12.0538C12.8332 9.95572 13.4116 10.4459 13.4116 11.6812V15.8822H15.8626L15.8822 11.1175Z" fill="#464C3C"/>
</svg>