<svg xmlns="http://www.w3.org/2000/svg" width="20" height="20" viewBox="0 0 20 20" fill="none">
  <path fill-rule="evenodd" clip-rule="evenodd" d="M9.99984 1.6665C7.7365 1.6665 7.45317 1.67595 6.56428 1.7165C5.67706 1.75706 5.07095 1.89817 4.54095 2.10428C3.98539 2.31317 3.4815 2.64095 3.06484 3.06539C2.64107 3.48158 2.31309 3.98511 2.10373 4.54095C1.89873 5.07095 1.75706 5.67762 1.7165 6.56484C1.6765 7.45317 1.6665 7.73595 1.6665 9.99984C1.6665 12.2637 1.67595 12.5465 1.7165 13.4354C1.75706 14.3226 1.89817 14.9287 2.10428 15.4587C2.31317 16.0143 2.64095 16.5182 3.06539 16.9348C3.48159 17.3586 3.98512 17.6866 4.54095 17.8959C5.07095 18.1015 5.67706 18.2426 6.56428 18.2832C7.45317 18.3237 7.7365 18.3332 9.99984 18.3332C12.2632 18.3332 12.5465 18.3237 13.4354 18.2832C14.3226 18.2426 14.9287 18.1015 15.4587 17.8954C16.0143 17.6865 16.5182 17.3587 16.9348 16.9343C17.3586 16.5181 17.6866 16.0146 17.8959 15.4587C18.1015 14.9287 18.2426 14.3226 18.2832 13.4354C18.3237 12.5465 18.3332 12.2632 18.3332 9.99984C18.3332 7.7365 18.3237 7.45317 18.2832 6.56428C18.2426 5.67706 18.1015 5.07095 17.8954 4.54095C17.6862 3.98487 17.3582 3.48113 16.9343 3.06484C16.5181 2.64107 16.0146 2.31309 15.4587 2.10373C14.9287 1.89873 14.3221 1.75706 13.4348 1.7165C12.5465 1.6765 12.2637 1.6665 9.99984 1.6665ZM9.99984 3.16817C12.2248 3.16817 12.4887 3.1765 13.3676 3.2165C14.1798 3.25373 14.6209 3.38873 14.9148 3.50373C15.3037 3.65428 15.5815 3.83539 15.8732 4.1265C16.1648 4.41817 16.3454 4.69595 16.4959 5.08484C16.6104 5.37873 16.7459 5.81984 16.7832 6.63206C16.8232 7.51095 16.8315 7.77484 16.8315 9.99984C16.8315 12.2248 16.8232 12.4887 16.7832 13.3676C16.7459 14.1798 16.6109 14.6209 16.4959 14.9148C16.3626 15.2768 16.1498 15.6043 15.8732 15.8732C15.6043 16.1498 15.2768 16.3626 14.9148 16.4959C14.6209 16.6104 14.1798 16.7459 13.3676 16.7832C12.4887 16.8232 12.2254 16.8315 9.99984 16.8315C7.77428 16.8315 7.51095 16.8232 6.63206 16.7832C5.81984 16.7459 5.37873 16.6109 5.08484 16.4959C4.72287 16.3626 4.3954 16.1498 4.1265 15.8732C3.84994 15.6043 3.63713 15.2768 3.50373 14.9148C3.38928 14.6209 3.25373 14.1798 3.2165 13.3676C3.1765 12.4887 3.16817 12.2248 3.16817 9.99984C3.16817 7.77484 3.1765 7.51095 3.2165 6.63206C3.25373 5.81984 3.38873 5.37873 3.50373 5.08484C3.65428 4.69595 3.83539 4.41817 4.1265 4.1265C4.39536 3.84986 4.72284 3.63705 5.08484 3.50373C5.37873 3.38928 5.81984 3.25373 6.63206 3.2165C7.51095 3.1765 7.77484 3.16817 9.99984 3.16817Z" fill="#464C3C"/>
  <path fill-rule="evenodd" clip-rule="evenodd" d="M9.99985 12.7804C9.6347 12.7804 9.27313 12.7085 8.93578 12.5687C8.59842 12.429 8.2919 12.2242 8.0337 11.966C7.7755 11.7078 7.57069 11.4013 7.43095 11.0639C7.29122 10.7266 7.21929 10.365 7.21929 9.99984C7.21929 9.63469 7.29122 9.27312 7.43095 8.93576C7.57069 8.59841 7.7755 8.29189 8.0337 8.03369C8.2919 7.77549 8.59842 7.57067 8.93578 7.43094C9.27313 7.2912 9.6347 7.21928 9.99985 7.21928C10.7373 7.21928 11.4445 7.51223 11.966 8.03369C12.4875 8.55514 12.7804 9.26239 12.7804 9.99984C12.7804 10.7373 12.4875 11.4445 11.966 11.966C11.4445 12.4874 10.7373 12.7804 9.99985 12.7804ZM9.99985 5.7165C8.86384 5.7165 7.77436 6.16778 6.97108 6.97106C6.1678 7.77434 5.71652 8.86383 5.71652 9.99984C5.71652 11.1358 6.1678 12.2253 6.97108 13.0286C7.77436 13.8319 8.86384 14.2832 9.99985 14.2832C11.1359 14.2832 12.2253 13.8319 13.0286 13.0286C13.8319 12.2253 14.2832 11.1358 14.2832 9.99984C14.2832 8.86383 13.8319 7.77434 13.0286 6.97106C12.2253 6.16778 11.1359 5.7165 9.99985 5.7165ZM15.5293 5.63873C15.5293 5.90726 15.4226 6.16479 15.2327 6.35467C15.0429 6.54455 14.7853 6.65123 14.5168 6.65123C14.2483 6.65123 13.9907 6.54455 13.8008 6.35467C13.611 6.16479 13.5043 5.90726 13.5043 5.63873C13.5043 5.37019 13.611 5.11266 13.8008 4.92278C13.9907 4.7329 14.2483 4.62623 14.5168 4.62623C14.7853 4.62623 15.0429 4.7329 15.2327 4.92278C15.4226 5.11266 15.5293 5.37019 15.5293 5.63873Z" fill="#464C3C"/>
</svg>