<svg xmlns="http://www.w3.org/2000/svg" width="20" height="20" viewBox="0 0 20 20" fill="none">
  <path fill-rule="evenodd" clip-rule="evenodd" d="M18.3332 9.99984C18.3332 14.6022 14.6022 18.3332 9.99984 18.3332C5.39746 18.3332 1.6665 14.6022 1.6665 9.99984C1.6665 5.39746 5.39746 1.6665 9.99984 1.6665C14.6022 1.6665 18.3332 5.39746 18.3332 9.99984ZM10.2985 7.81854C9.48792 8.15567 7.86798 8.85345 5.43864 9.91187C5.04416 10.0687 4.83751 10.2222 4.8187 10.3723C4.7869 10.6259 5.10449 10.7257 5.53697 10.8617C5.59579 10.8802 5.65674 10.8994 5.71923 10.9197C6.14472 11.058 6.71707 11.2198 7.01461 11.2263C7.28451 11.2321 7.58575 11.1208 7.91833 10.8924C10.1881 9.36026 11.3598 8.58582 11.4334 8.56912C11.4853 8.55734 11.5572 8.54253 11.6059 8.58584C11.6546 8.62915 11.6499 8.71117 11.6447 8.73318C11.6132 8.8673 10.3666 10.0263 9.72143 10.6261C9.52031 10.8131 9.37766 10.9457 9.34849 10.976C9.28316 11.0438 9.21658 11.108 9.15259 11.1697C8.75731 11.5508 8.46088 11.8365 9.169 12.3032C9.5093 12.5274 9.7816 12.7129 10.0533 12.8979C10.3499 13.0999 10.6459 13.3014 11.0287 13.5524C11.1263 13.6163 11.2194 13.6827 11.3102 13.7474C11.6554 13.9936 11.9656 14.2147 12.3488 14.1795C12.5715 14.159 12.8015 13.9496 12.9184 13.3251C13.1944 11.8492 13.7371 8.65155 13.8625 7.33385C13.8735 7.2184 13.8596 7.07065 13.8485 7.00579C13.8374 6.94093 13.8142 6.84852 13.7299 6.78012C13.6301 6.6991 13.476 6.68201 13.407 6.68317C13.0936 6.68875 12.6127 6.85596 10.2985 7.81854Z" fill="#464C3C"/>
</svg>