<svg xmlns="http://www.w3.org/2000/svg" width="16" height="16" viewBox="0 0 16 16" fill="none">
  <path fill-rule="evenodd" clip-rule="evenodd" d="M14.6667 8C14.6667 11.6819 11.6819 14.6667 8.00004 14.6667C4.31814 14.6667 1.33337 11.6819 1.33337 8C1.33337 4.3181 4.31814 1.33333 8.00004 1.33333C11.6819 1.33333 14.6667 4.3181 14.6667 8ZM8.23894 6.25496C7.5905 6.52466 6.29455 7.08288 4.35109 7.92962C4.0355 8.05512 3.87018 8.1779 3.85513 8.29795C3.82969 8.50083 4.08376 8.58072 4.42974 8.68951C4.4768 8.70431 4.52557 8.71964 4.57555 8.73589C4.91594 8.84654 5.37383 8.97599 5.61186 8.98113C5.82778 8.98579 6.06877 8.89678 6.33483 8.71408C8.15068 7.48833 9.08802 6.86878 9.14687 6.85542C9.18839 6.846 9.24592 6.83415 9.2849 6.8688C9.32388 6.90345 9.32005 6.96906 9.31592 6.98667C9.29075 7.09397 8.29343 8.02117 7.77732 8.50099C7.61642 8.65057 7.5023 8.75668 7.47897 8.78091C7.4267 8.83519 7.37344 8.88654 7.32224 8.93589C7.00602 9.24074 6.76887 9.46935 7.33537 9.84266C7.60761 10.0221 7.82545 10.1704 8.04278 10.3184C8.28013 10.48 8.51686 10.6413 8.82315 10.842C8.90119 10.8932 8.97571 10.9463 9.0483 10.9981C9.32452 11.195 9.57267 11.3719 9.87925 11.3437C10.0574 11.3273 10.2414 11.1598 10.3349 10.6602C10.5557 9.47952 10.9898 6.92136 11.0902 5.8672C11.0989 5.77485 11.0879 5.65665 11.079 5.60476C11.0701 5.55287 11.0516 5.47894 10.9841 5.42422C10.9043 5.3594 10.7809 5.34574 10.7258 5.34666C10.475 5.35113 10.0903 5.48489 8.23894 6.25496Z" fill="#857155"/>
</svg>