<svg xmlns="http://www.w3.org/2000/svg" width="32" height="32" viewBox="0 0 32 32" fill="none">
  <path fill-rule="evenodd" clip-rule="evenodd" d="M29.3334 15.9998C29.3334 23.3636 23.3639 29.3332 16.0001 29.3332C8.63628 29.3332 2.66675 23.3636 2.66675 15.9998C2.66675 8.63604 8.63628 2.6665 16.0001 2.6665C23.3639 2.6665 29.3334 8.63604 29.3334 15.9998ZM16.4779 12.5098C15.181 13.0492 12.5891 14.1656 8.70217 15.8591C8.07099 16.1101 7.74035 16.3556 7.71025 16.5957C7.65939 17.0015 8.16753 17.1613 8.85949 17.3789C8.95361 17.4085 9.05113 17.4391 9.15111 17.4716C9.83189 17.6929 10.7477 17.9518 11.2237 17.9621C11.6556 17.9714 12.1375 17.7934 12.6697 17.428C16.3014 14.9765 18.176 13.7374 18.2937 13.7107C18.3768 13.6919 18.4918 13.6682 18.5698 13.7374C18.6478 13.8067 18.6401 13.938 18.6318 13.9732C18.5815 14.1878 16.5869 16.0422 15.5546 17.0018C15.2328 17.301 15.0046 17.5132 14.9579 17.5617C14.8534 17.6702 14.7469 17.7729 14.6445 17.8716C14.012 18.4813 13.5377 18.9385 14.6707 19.6852C15.2152 20.044 15.6509 20.3407 16.0856 20.6367C16.5603 20.9599 17.0337 21.2824 17.6463 21.6839C17.8024 21.7862 17.9514 21.8925 18.0966 21.996C18.649 22.3898 19.1453 22.7436 19.7585 22.6872C20.1148 22.6544 20.4828 22.3194 20.6697 21.3202C21.1114 18.9589 21.9797 13.8426 22.1803 11.7343C22.1979 11.5495 22.1758 11.3131 22.158 11.2094C22.1403 11.1056 22.1031 10.9577 21.9683 10.8483C21.8085 10.7187 21.5619 10.6913 21.4516 10.6932C20.9501 10.7021 20.1807 10.9696 16.4779 12.5098Z" fill="#161A1F"/>
</svg>