<svg width="32" height="32" viewBox="0 0 32 32" fill="none" xmlns="http://www.w3.org/2000/svg">
<rect width="32" height="32" rx="16" fill="#464C3C"/>
<g clip-path="url(#clip0_2027_22)">
<path fill-rule="evenodd" clip-rule="evenodd" d="M15.9999 8.66663C20.05 8.66663 23.3333 11.9499 23.3333 16C23.3333 20.05 20.05 23.3333 15.9999 23.3333C11.9498 23.3333 8.66658 20.05 8.66658 16C8.66658 11.9499 11.9498 8.66663 15.9999 8.66663ZM15.3858 11.0739C15.4901 10.827 15.732 10.6666 15.9999 10.6666C16.2679 10.6666 16.5098 10.827 16.614 11.0739L17.6146 13.4424L18.8618 12.1952L19.8047 13.138L18.5574 14.3852L20.926 15.3858C21.1728 15.4901 21.3333 15.732 21.3333 16C21.3333 16.2679 21.1728 16.5098 20.926 16.6141L18.5574 17.6147L19.8047 18.8619L18.8618 19.8047L17.6146 18.5575L16.614 20.9261C16.5098 21.1729 16.2679 21.3333 15.9999 21.3333C15.732 21.3333 15.4901 21.1729 15.3858 20.9261L14.3852 18.5575L13.138 19.8047L12.1952 18.8619L13.4424 17.6147L11.0738 16.6141C10.827 16.5098 10.6666 16.2679 10.6666 16C10.6666 15.732 10.827 15.4901 11.0738 15.3858L13.4424 14.3852L12.1952 13.138L13.138 12.1952L14.3852 13.4424L15.3858 11.0739Z" fill="#BFD2A6"/>
</g>
<defs>
<clipPath id="clip0_2027_22">
<rect width="16" height="16" fill="white" transform="matrix(-1 0 0 1 24 8)"/>
</clipPath>
</defs>
</svg>
