<svg width="12" height="12" viewBox="0 0 12 12" fill="none" xmlns="http://www.w3.org/2000/svg">
<g clip-path="url(#clip0_352_2819)">
<path fill-rule="evenodd" clip-rule="evenodd" d="M0.5 6C0.5 2.96243 2.96243 0.5 6 0.5C9.03757 0.5 11.5 2.96243 11.5 6C11.5 9.03757 9.03757 11.5 6 11.5C2.96243 11.5 0.5 9.03757 0.5 6ZM4.76407 3.55916C4.92665 3.47215 5.12392 3.48169 5.27735 3.58398L8.27735 5.58398C8.41645 5.67671 8.5 5.83282 8.5 6C8.5 6.16718 8.41645 6.32329 8.27735 6.41603L5.27735 8.41603C5.12392 8.51831 4.92665 8.52785 4.76407 8.44084C4.60149 8.35383 4.5 8.1844 4.5 8V4C4.5 3.8156 4.60149 3.64617 4.76407 3.55916Z" fill="white"/>
</g>
<defs>
<clipPath id="clip0_352_2819">
<rect width="12" height="12" fill="white"/>
</clipPath>
</defs>
</svg>
