<svg width="32" height="32" viewBox="0 0 32 32" fill="none" xmlns="http://www.w3.org/2000/svg">
<path d="M28.238 12.48C26.9394 12.481 25.6738 12.0713 24.6223 11.3095C23.5707 10.5477 22.787 9.47284 22.3833 8.23864C21.9796 7.00445 21.9766 5.6742 22.3748 4.43821C22.7729 3.20222 23.5518 2.12383 24.6 1.35732C24.444 1.34732 24.2893 1.33332 24.1333 1.33332C22.8287 1.33181 21.5473 1.67838 20.4212 2.33726C19.2952 2.99615 18.3653 3.94351 17.7275 5.08162C17.0898 6.21972 16.7671 7.50737 16.7929 8.81175C16.8188 10.1161 17.1921 11.39 17.8744 12.502C18.5567 13.614 19.5233 14.5238 20.6746 15.1376C21.8258 15.7514 23.1199 16.047 24.4235 15.9939C25.727 15.9408 26.9928 15.5409 28.0902 14.8354C29.1877 14.1299 30.0771 13.1445 30.6666 11.9807C29.8995 12.3106 29.0731 12.4805 28.238 12.48Z" fill="url(#paint0_linear_4044_872)"/>
<path d="M22.3393 8.09265C20.6726 9.52998 19.0453 10.9427 17.6726 12.1367C18.3065 13.3168 19.2516 14.3006 20.4054 14.9812C21.5592 15.6617 22.8774 16.0131 24.2169 15.997C25.5563 15.9809 26.8658 15.598 28.0029 14.8899C29.14 14.1818 30.0613 13.1756 30.6666 11.9807C29.8692 12.3229 29.0086 12.4927 28.141 12.4791C27.2734 12.4655 26.4184 12.2687 25.6322 11.9016C24.846 11.5345 24.1462 11.0054 23.5787 10.349C23.0112 9.6926 22.5889 8.92368 22.3393 8.09265Z" fill="url(#paint1_linear_4044_872)"/>
<path d="M22.5639 15.2307C22.4926 15.2307 22.4239 15.238 22.3532 15.2413C22.0069 13.7642 21.2296 12.4233 20.1198 11.3888C19.01 10.3544 17.6178 9.67298 16.1201 9.43117C14.6223 9.18937 13.0865 9.39806 11.7075 10.0307C10.3286 10.6634 9.16875 11.6916 8.37523 12.9847C7.56826 12.8256 6.73695 12.8371 5.93469 13.0185C5.13244 13.1998 4.37699 13.547 3.7169 14.0377C3.05681 14.5284 2.50668 15.1517 2.10185 15.8677C1.69702 16.5837 1.44645 17.3764 1.36624 18.195C1.28603 19.0135 1.37796 19.8399 1.63611 20.6208C1.89427 21.4017 2.31294 22.12 2.86523 22.7295C3.41752 23.339 4.0912 23.8262 4.843 24.1598C5.59479 24.4934 6.40807 24.6661 7.23056 24.6667H22.5639C23.8152 24.6667 25.0152 24.1696 25.9 23.2848C26.7848 22.4 27.2819 21.2 27.2819 19.9487C27.2819 18.6974 26.7848 17.4973 25.9 16.6125C25.0152 15.7277 23.8152 15.2307 22.5639 15.2307Z" fill="url(#paint2_linear_4044_872)"/>
<path d="M23.3333 30.6667C23.2197 30.6666 23.108 30.6375 23.0088 30.5822C22.9096 30.5268 22.8262 30.447 22.7665 30.3504C22.7068 30.2538 22.6728 30.1435 22.6677 30.03C22.6626 29.9165 22.6865 29.8036 22.7373 29.702L24.0706 27.0353C24.1498 26.8772 24.2885 26.7569 24.4563 26.701C24.624 26.6452 24.8071 26.6582 24.9653 26.7373C25.1235 26.8165 25.2437 26.9552 25.2996 27.1229C25.3555 27.2907 25.3424 27.4738 25.2633 27.632L23.93 30.2987C23.8745 30.4094 23.7893 30.5024 23.6839 30.5674C23.5785 30.6324 23.4571 30.6668 23.3333 30.6667Z" fill="url(#paint3_linear_4044_872)"/>
<path d="M16.6666 30.6667C16.553 30.6666 16.4413 30.6375 16.3421 30.5822C16.2429 30.5268 16.1595 30.447 16.0998 30.3504C16.0401 30.2538 16.006 30.1435 16.0009 30.03C15.9958 29.9165 16.0198 29.8036 16.0706 29.702L17.4039 27.0353C17.483 26.8772 17.6217 26.7569 17.7895 26.701C17.9573 26.6452 18.1404 26.6582 18.2986 26.7373C18.4567 26.8165 18.577 26.9552 18.6328 27.1229C18.6887 27.2907 18.6757 27.4738 18.5966 27.632L17.2632 30.2987C17.2078 30.4094 17.1225 30.5024 17.0172 30.5674C16.9118 30.6324 16.7904 30.6668 16.6666 30.6667Z" fill="url(#paint4_linear_4044_872)"/>
<path d="M9.99981 30.6667C9.88621 30.6666 9.77452 30.6375 9.67532 30.5822C9.57612 30.5268 9.49272 30.447 9.43301 30.3504C9.3733 30.2538 9.33928 30.1435 9.33417 30.03C9.32906 29.9165 9.35303 29.8036 9.40381 29.702L10.7371 27.0353C10.8163 26.8772 10.955 26.7569 11.1228 26.701C11.2905 26.6452 11.4736 26.6582 11.6318 26.7373C11.79 26.8165 11.9102 26.9552 11.9661 27.1229C12.022 27.2907 12.0089 27.4738 11.9298 27.632L10.5965 30.2987C10.541 30.4094 10.4558 30.5024 10.3504 30.5674C10.245 30.6324 10.1236 30.6668 9.99981 30.6667Z" fill="url(#paint5_linear_4044_872)"/>
<path d="M3.3333 30.6667C3.21971 30.6666 3.10801 30.6375 3.00882 30.5822C2.90962 30.5268 2.82621 30.447 2.76651 30.3504C2.7068 30.2538 2.67278 30.1435 2.66767 30.03C2.66256 29.9165 2.68653 29.8036 2.7373 29.702L4.07064 27.0353C4.14976 26.8772 4.28847 26.7569 4.45625 26.701C4.62404 26.6452 4.80715 26.6582 4.9653 26.7373C5.12346 26.8165 5.24371 26.9552 5.2996 27.1229C5.35548 27.2907 5.34243 27.4738 5.2633 27.632L3.92997 30.2987C3.8745 30.4094 3.7893 30.5024 3.68391 30.5674C3.57853 30.6324 3.45712 30.6668 3.3333 30.6667Z" fill="url(#paint6_linear_4044_872)"/>
<path d="M1.38926 18C1.27326 18.8329 1.33792 19.6809 1.57884 20.4866C1.81975 21.2923 2.23127 22.0366 2.78544 22.6691C3.33961 23.3016 4.02344 23.8073 4.79046 24.152C5.55747 24.4967 6.3897 24.6722 7.23059 24.6667H22.5639C23.3534 24.6678 24.1304 24.4706 24.8237 24.0931C25.5171 23.7156 26.1044 23.1699 26.5319 22.5062C26.9593 21.8425 27.2131 21.082 27.2699 20.2947C27.3268 19.5073 27.1849 18.7182 26.8573 18H1.38926Z" fill="url(#paint7_linear_4044_872)"/>
<defs>
<linearGradient id="paint0_linear_4044_872" x1="18.246" y1="2.30465" x2="26.8013" y2="15.5273" gradientUnits="userSpaceOnUse">
<stop stop-color="#FFCA4F"/>
<stop offset="1" stop-color="#F7AE30"/>
</linearGradient>
<linearGradient id="paint1_linear_4044_872" x1="21.8199" y1="10.1107" x2="28.3199" y2="16.222" gradientUnits="userSpaceOnUse">
<stop stop-color="#FFCA4F" stop-opacity="0"/>
<stop offset="1" stop-color="#F4901F"/>
</linearGradient>
<linearGradient id="paint2_linear_4044_872" x1="14.3079" y1="9.33334" x2="14.3079" y2="24.5833" gradientUnits="userSpaceOnUse">
<stop stop-color="#EAECF7"/>
<stop offset="1" stop-color="#CDD3F1"/>
</linearGradient>
<linearGradient id="paint3_linear_4044_872" x1="24.9286" y1="26.7707" x2="23.0386" y2="30.6293" gradientUnits="userSpaceOnUse">
<stop stop-color="#EAECF7"/>
<stop offset="1" stop-color="#CDD3F1"/>
</linearGradient>
<linearGradient id="paint4_linear_4044_872" x1="18.2059" y1="26.7907" x2="16.4139" y2="30.6447" gradientUnits="userSpaceOnUse">
<stop stop-color="#EAECF7"/>
<stop offset="1" stop-color="#CDD3F1"/>
</linearGradient>
<linearGradient id="paint5_linear_4044_872" x1="11.6045" y1="26.7607" x2="9.70847" y2="30.6147" gradientUnits="userSpaceOnUse">
<stop stop-color="#EAECF7"/>
<stop offset="1" stop-color="#CDD3F1"/>
</linearGradient>
<linearGradient id="paint6_linear_4044_872" x1="4.94997" y1="26.746" x2="3.05464" y2="30.5793" gradientUnits="userSpaceOnUse">
<stop stop-color="#EAECF7"/>
<stop offset="1" stop-color="#CDD3F1"/>
</linearGradient>
<linearGradient id="paint7_linear_4044_872" x1="14.3079" y1="19.6667" x2="14.3079" y2="26.2973" gradientUnits="userSpaceOnUse">
<stop stop-color="#E2E5F4" stop-opacity="0"/>
<stop offset="1" stop-color="#9AA6E2"/>
</linearGradient>
</defs>
</svg>
