<svg width="24" height="24" viewBox="0 0 24 24" fill="none" xmlns="http://www.w3.org/2000/svg">
<path fill-rule="evenodd" clip-rule="evenodd" d="M11.9902 2C14.6417 2.00007 17.1312 3.02819 19.0059 4.90332C19.9298 5.8225 20.6628 6.91587 21.1611 8.12012C21.6595 9.3245 21.9135 10.6165 21.9092 11.9199C21.909 17.3833 17.464 21.8291 12 21.8291C10.3368 21.8291 8.71342 21.415 7.26172 20.6191L2 22L3.41113 16.8691C2.54394 15.3641 2.08864 13.6569 2.09082 11.9199C2.08078 6.44577 6.52672 2 11.9902 2ZM7.8252 6C7.63358 6.00014 7.30903 6.0778 7.0332 6.40137C6.75619 6.72485 6.00014 7.48977 6 9.05566C6.00014 10.6228 7.05656 12.1382 7.20117 12.3457C7.34511 12.5533 9.24513 15.8677 12.25 17.1504C14.7484 18.2119 15.2541 18.0048 15.7949 17.9395C16.3354 17.8747 17.5379 17.1751 17.79 16.4238C18.0295 15.6879 18.0303 15.0419 17.959 14.9102C17.8872 14.7812 17.6815 14.7016 17.3936 14.5332C17.0922 14.378 15.652 13.6016 15.375 13.4971C15.0983 13.3939 14.9051 13.3426 14.7129 13.6523C14.5207 13.9762 13.9564 14.6887 13.7764 14.8965C13.6074 15.1034 13.4273 15.1291 13.1387 14.9736C12.8384 14.8188 11.8883 14.4818 10.7588 13.3945C9.88124 12.5521 9.29262 11.5028 9.1123 11.1924C8.94508 10.8686 9.08882 10.7004 9.24512 10.5449C9.37746 10.403 9.54521 10.1695 9.68945 9.98828C9.83293 9.80632 9.88192 9.66496 9.99023 9.45801C10.086 9.25079 10.0377 9.05523 9.96582 8.90039C9.89238 8.75505 9.32906 7.19057 9.06445 6.55664C8.8483 6.02581 8.60752 6.0127 8.40332 6.0127C8.22306 5.99981 8.02938 6 7.8252 6Z" fill="#58DB89"/>
</svg>
