<svg width="16" height="32" viewBox="0 0 16 32" fill="none" xmlns="http://www.w3.org/2000/svg">
<path d="M1.99984 24.0001C1.99984 22.0378 2.94113 20.2956 4.39964 19.1998L3.59874 18.1338C1.81946 19.4706 0.666504 21.6008 0.666504 24.0001C0.666504 26.3994 1.81946 28.5296 3.59874 29.8664L4.39964 28.8005C2.94113 27.7047 1.99984 25.9624 1.99984 24.0001Z" fill="#F2F0FF"/>
<path d="M11.6 19.1998C13.0585 20.2956 13.9998 22.0378 13.9998 24.0001C13.9998 25.9624 13.0585 27.7047 11.6 28.8005L12.4009 29.8664C14.1802 28.5296 15.3332 26.3994 15.3332 24.0001C15.3332 21.6008 14.1802 19.4706 12.4009 18.1338L11.6 19.1998Z" fill="#F2F0FF"/>
<path d="M5.7498 21.8539C5.07028 22.3979 4.6665 23.1664 4.6665 24.0001C4.6665 24.8338 5.07028 25.6024 5.7498 26.1463L4.91654 27.1872C3.95939 26.421 3.33317 25.2855 3.33317 24.0001C3.33317 22.7147 3.95939 21.5792 4.91654 20.813L5.7498 21.8539Z" fill="#F2F0FF"/>
<path d="M11.3332 24.0001C11.3332 23.1664 10.9294 22.3979 10.2499 21.8539L11.0831 20.813C12.0403 21.5792 12.6665 22.7147 12.6665 24.0001C12.6665 25.2855 12.0403 26.421 11.0831 27.1872L10.2499 26.1463C10.9294 25.6024 11.3332 24.8338 11.3332 24.0001Z" fill="#F2F0FF"/>
<path d="M7.99984 22.0002C6.89527 22.0002 5.99984 22.8956 5.99984 24.0002C5.99984 25.1047 6.89527 26.0002 7.99984 26.0002C9.10441 26.0002 9.99984 25.1047 9.99984 24.0002C9.99984 22.8956 9.10441 22.0002 7.99984 22.0002Z" fill="#F2F0FF"/>
<path d="M1.99984 8.00012C1.99984 6.03783 2.94113 4.29558 4.39964 3.19978L3.59874 2.13379C1.81946 3.4706 0.666504 5.60081 0.666504 8.00012C0.666504 10.3994 1.81946 12.5296 3.59874 13.8664L4.39964 12.8005C2.94113 11.7047 1.99984 9.96241 1.99984 8.00012Z" fill="#101019"/>
<path d="M11.6 3.19978C13.0585 4.29558 13.9998 6.03783 13.9998 8.00012C13.9998 9.96241 13.0585 11.7047 11.6 12.8005L12.4009 13.8664C14.1802 12.5296 15.3332 10.3994 15.3332 8.00012C15.3332 5.60081 14.1802 3.4706 12.4009 2.13379L11.6 3.19978Z" fill="#101019"/>
<path d="M5.7498 5.85388C5.07028 6.39785 4.6665 7.16639 4.6665 8.0001C4.6665 8.83382 5.07028 9.60235 5.7498 10.1463L4.91654 11.1872C3.95939 10.421 3.33317 9.28555 3.33317 8.0001C3.33317 6.71466 3.95939 5.5792 4.91654 4.81299L5.7498 5.85388Z" fill="#101019"/>
<path d="M11.3332 8.0001C11.3332 7.16639 10.9294 6.39785 10.2499 5.85388L11.0831 4.81299C12.0403 5.5792 12.6665 6.71466 12.6665 8.0001C12.6665 9.28554 12.0403 10.421 11.0831 11.1872L10.2499 10.1463C10.9294 9.60235 11.3332 8.83382 11.3332 8.0001Z" fill="#101019"/>
<path d="M7.99984 6.00016C6.89527 6.00016 5.99984 6.89559 5.99984 8.00016C5.99984 9.10473 6.89527 10.0002 7.99984 10.0002C9.10441 10.0002 9.99984 9.10473 9.99984 8.00016C9.99984 6.89559 9.10441 6.00016 7.99984 6.00016Z" fill="#101019"/>
</svg>
