<svg width="48" height="48" viewBox="0 0 48 48" fill="none" xmlns="http://www.w3.org/2000/svg">
<rect width="48" height="48" rx="8" fill="white"/>
<path d="M16.2395 9.03173C17.7801 8.90187 18.9689 9.16096 20.2928 9.98726C20.9496 10.3972 21.6454 10.7907 22.3148 11.1833L28.2605 14.6998L32.9122 17.4406C33.7725 17.9474 34.71 18.4644 35.5329 19.0297C36.0978 19.4177 36.7253 20.1066 37.0943 20.7054C37.5511 21.4464 37.8554 22.3305 37.9766 23.2003C38.0074 23.484 37.9864 23.779 37.9968 24.0626C38.051 25.5635 37.413 27.0919 36.4257 28.1862C35.7492 28.9358 34.9252 29.3788 34.0715 29.8809L32.3925 30.8652L29.8848 32.3532C29.1282 32.7971 28.3214 33.2516 27.5819 33.7183L22.1852 36.8894C21.2099 37.4657 20.2249 38.1147 19.1931 38.5796C18.756 38.7767 18.4119 38.8496 17.9439 38.9226C16.3491 39.184 14.7186 38.7773 13.4213 37.7939C12.2831 36.9356 11.3139 35.4825 11.1022 34.043C10.9532 33.0302 11.011 31.4212 11.0111 30.3432L11.0107 24.2454L11.0099 17.8388C11.0097 16.8569 11.0061 15.8728 11.0207 14.8907C11.0388 13.6727 11.4214 12.5033 12.139 11.5184C13.1241 10.1609 14.6016 9.26488 16.2395 9.03173ZM34.3635 27.0916C34.794 26.8435 35.1537 26.6231 35.3013 26.0972C35.5442 25.232 34.514 24.3168 33.7118 24.7256C33.15 25.0108 32.6131 25.3505 32.072 25.6717L29.1945 27.3744L24.5781 30.0937C22.5186 31.3109 20.4571 32.5281 18.3983 33.7471C18.1298 33.906 17.8061 34.0846 17.4918 34.1383C16.5904 34.2216 15.8615 33.4993 15.8411 32.5874C15.828 32.0037 15.8294 31.4756 15.8294 30.9167L15.8294 27.7396L15.8309 17.7618L15.8313 15.7796C15.8314 15.3021 15.8413 14.8094 15.8183 14.3324C15.7843 13.6266 15.2477 13.1672 14.5461 13.2074C14.1591 13.2855 13.9286 13.3766 13.6886 13.732C13.5255 13.9734 13.4918 14.1727 13.4815 14.4554C13.4629 14.9663 13.4691 15.484 13.469 15.9959L13.4687 18.566L13.4683 26.5436L13.4685 30.8931C13.4686 31.5174 13.4314 32.7297 13.5359 33.3092C13.7209 34.3345 14.3687 35.3411 15.2406 35.9078C16.1115 36.4857 17.1721 36.6848 18.187 36.4601C18.8858 36.2995 19.9163 35.6223 20.5723 35.2314L22.2733 34.2282L30.9584 29.1018C31.8123 28.5918 32.6691 28.0871 33.5289 27.5876C33.8107 27.424 34.0776 27.2411 34.3635 27.0916ZM18.6375 31.8125C18.5133 31.9044 17.2913 33.2785 17.2789 33.3691C17.4591 33.2312 18.6426 32.1127 18.7979 31.9268C18.9477 31.8437 19.4607 31.3235 19.6302 31.1623L21.087 29.7963L29.5212 21.9035C29.1077 21.7376 28.3036 21.1526 27.9984 21.0557C27.8618 21.1169 21.602 28.398 20.964 29.124L19.3814 30.9257C19.2238 31.1056 18.7432 31.6318 18.6375 31.8125ZM18.1927 32.7873C17.8829 33.0262 17.6785 33.1664 17.4387 33.4782C17.5928 33.3789 18.1576 33.0024 18.2787 32.8939C18.4448 32.714 19.9589 31.7191 20.2377 31.524C23.3578 29.3406 26.5113 27.2013 29.6371 25.0257L31.4486 23.7614C31.5802 23.6697 31.8738 23.545 31.9298 23.4059C31.9242 23.3885 31.9178 23.3727 31.9077 23.3573C31.8427 23.2577 30.6707 22.5699 30.5452 22.5566C30.4043 22.5417 19.4856 31.7795 18.1927 32.7873ZM26.9425 20.3811C26.6526 20.2652 25.7286 19.6988 25.4458 19.517C25.3715 19.7067 25.0813 20.1699 24.9655 20.3599L24.1446 21.7117L21.1458 26.6379C20.7728 27.2526 20.1338 28.2198 19.8197 28.8199C19.2176 29.7646 18.6321 30.7522 18.0532 31.7134C17.799 32.1355 17.2523 32.9225 17.0625 33.3518C17.4353 32.8865 17.7224 32.4947 18.0735 32.0095C18.1351 31.9476 18.1764 31.8877 18.229 31.8185C18.7527 31.13 19.2618 30.4271 19.7903 29.7426L25.2093 22.6113L26.3016 21.1664C26.4685 20.9473 26.7578 20.5484 26.9425 20.3811Z" fill="#2C1697"/>
</svg>
