<svg width="48" height="48" viewBox="0 0 48 48" fill="none" xmlns="http://www.w3.org/2000/svg">
<path d="M36.7408 15.789C37.2523 12.77 39.0748 10.1054 41.6015 8.46227C42.3777 7.95698 44.2506 7.57346 43.8958 6.47926L43.4798 6.17936C39.6421 7.55165 37.2829 10.5434 35.889 14.2932C34.6212 17.7084 33.8918 20.7729 32.1053 24.0682C30.8933 26.3021 28.0154 28.6722 32.5159 29.0285C36.1447 29.3157 38.7056 28.2924 41.1386 25.5805C41.796 24.848 44.3407 21.8817 42.4155 21.6163C41.6285 22.4851 41.2143 23.592 40.4201 24.4917C38.8551 26.2657 36.4023 27.6089 34.0467 27.7525C34.1331 24.7189 33.9854 19.6351 37.3315 18.2901C37.8466 18.0829 39.9302 17.6012 40.4183 17.6012H46.9682C46.8997 19.4988 47.0582 21.4218 46.9754 23.3194C46.9123 24.7826 46.7539 27.7235 46.1073 28.9685C45.2609 30.5953 42.9864 31.0788 41.3205 31.2042C38.1653 31.4423 33.8738 31.5077 30.7474 31.1769C30.1639 31.1151 27.2194 30.2027 27.0394 30.957C27.1186 31.973 26.9763 33.9088 28.2262 34.0887C30.7024 33.9251 33.0796 33.1417 35.563 33.0036C37.146 32.9164 40.1626 32.82 41.6573 33.0272C42.6298 33.1617 43.6869 33.8052 44.1642 34.6649C44.8377 35.8791 44.9422 38.5255 44.9998 39.9832C45.0646 41.5773 45.0034 43.2131 44.9133 44.8053C44.726 45.0761 41.0396 45.0089 40.4075 44.9834C39.1342 44.9289 37.0956 44.8053 35.9178 44.4436C34.74 44.0819 34.0071 43.284 33.6271 42.0426C33.5712 41.8626 33.3263 40.803 33.3263 40.7157V37.6349C33.6667 37.215 34.3474 37.3459 34.8499 37.3659C36.6112 37.4367 38.6084 38.0856 39.8852 39.3489C40.4489 39.9087 41.3782 42.0226 42.1183 41.6318C43.1088 41.1101 41.2953 38.9563 40.7731 38.4528C38.1383 35.9118 32.6708 35.5192 29.5606 37.275C27.7885 38.2765 29.7731 41.0029 30.7222 42.0789C31.1616 42.5769 32.7734 43.7166 32.8761 43.8911C33.0616 44.2055 32.9463 44.6345 32.9679 44.978H16.2771C16.079 43.593 17.3433 43.7893 18.3158 43.3203C19.4395 42.7787 22.1229 41.341 21.8095 39.8542C21.6781 39.2307 19.4485 37.6058 18.7966 37.2659C14.5303 35.0411 7.51034 35.2811 4.93685 39.9578C4.53524 40.6884 3.87431 42.277 5.39248 41.9044C5.53295 41.8699 6.40639 39.8869 6.87462 39.3761C8.6287 37.4658 10.9627 37.1423 13.4047 37.0005C13.4029 38.9908 13.4551 42.7242 11.4939 43.862C11.2382 44.0092 9.94516 44.4327 9.72545 44.4327H2.55245L2.31293 44.1328C2.2589 43.842 2.2661 43.5439 2.27331 43.2476C2.31653 41.3755 2.34354 38.3455 2.68932 36.5934C3.01168 34.9557 3.87431 33.727 5.50773 33.2762C8.29373 32.5074 15.7279 33.1854 18.6183 34.0069C19.6791 34.3086 21.941 35.63 22.6578 35.5646C23.877 35.4519 23.6753 33.8615 23.641 32.9218C23.6086 32.073 23.3061 28.6995 23.0558 28.0743C22.4452 26.5475 21.1558 28.1215 20.2842 28.6213C16.6085 30.737 13.0391 31.3641 8.83401 31.5586C6.66211 31.6586 3.24219 31.7822 2.06981 29.512C1.27741 27.9797 1.09011 24.3881 1.01988 22.5942C0.951443 20.8147 1.08651 19.0171 1.02708 17.2377C4.73515 17.334 8.71875 17.0341 12.2791 18.1101C14.2385 19.0171 14.2889 20.9129 14.4816 22.7741C14.5051 23.0031 14.6671 23.2576 14.6671 23.3103V26.7547L14.3988 27.0273H11.7064C11.4525 27.0273 9.70204 26.1749 9.34366 25.9695C7.37887 24.8444 5.81029 22.974 4.80178 20.9474L4.52444 20.8493C4.19127 20.8129 3.71583 21.1001 3.75005 21.4636C5.09533 24.8825 9.52915 28.7722 13.3201 28.4741C16.5419 28.2215 21.9572 24.708 21.2963 20.9638C21.1432 20.0931 19.4233 17.9974 18.7012 17.4231C15.609 14.9639 10.3396 15.8981 6.50363 15.6036C4.31193 15.4364 2.10582 14.9548 1.4647 12.5355C1.41968 12.3647 1.20717 11.2505 1.20717 11.1651V3.00945L1.47551 2.73681H7.75706C8.37838 2.73681 9.85332 3.02944 10.4998 3.22938C11.4795 3.53292 12.4898 4.13637 12.9635 5.09061C13.2066 5.57955 13.5902 7.22266 13.5902 7.72069V12.1611C11.3121 12.1666 9.10954 10.4816 7.67242 8.80216C7.36086 8.43864 6.07502 6.42473 5.93455 6.37748C5.55636 6.25206 4.96926 6.53924 5.00528 6.96093C5.09713 8.01332 8.01459 11.016 8.93846 11.6922C12.018 13.9442 14.1557 13.119 17.4946 14.1078C21.7843 15.3801 23.8878 18.5027 25.2024 22.636C25.3771 23.1867 25.9912 26.1131 26.1407 26.2203C26.8719 26.7456 28.6638 24.8498 28.8096 24.3572C29.0438 23.5684 28.219 22.1325 27.9974 21.2637C26.7044 16.1926 28.1415 9.96725 23.2683 6.4629C22.7442 6.08484 20.3742 4.93248 19.8754 5.17422C18.2834 5.94307 22.1913 7.20994 22.8 7.66071C24.745 9.10207 25.8922 11.4268 25.8021 13.8697C23.7617 14.3386 19.3675 14.5731 17.997 12.6937C16.4392 10.5562 17.0245 4.67256 16.8192 2.00977H26.4198C26.4829 2.00977 27.4788 2.34784 27.6301 2.41873C29.2743 3.1803 29.6273 5.15241 29.7461 6.80643C29.9856 10.1108 29.5156 13.4716 29.9208 16.7815C30.0433 17.7793 30.2234 19.6387 31.0896 20.1495C32.1197 20.2476 33.1138 16.8396 33.2471 15.9763C33.7909 12.461 32.1413 6.14482 36.5085 4.58713C37.2091 4.3363 38.9992 4.00368 39.6997 4.00368H45.9813C46.4261 4.2945 46.0713 4.71437 46.0623 5.17422C46.0191 7.18631 46.1686 9.33109 45.8696 11.3232C45.6193 13.0027 45.1349 14.5494 43.4474 15.2201C42.8729 15.4492 41.1711 15.7854 40.5984 15.7854H36.739L36.7408 15.789Z" fill="#BFD2A6"/>
</svg>
