<svg width="16" height="32" viewBox="0 0 16 32" fill="none" xmlns="http://www.w3.org/2000/svg">
<path d="M4.6665 18.6666H11.3332V17.3333H4.6665V18.6666Z" fill="#F2F0FF"/>
<path d="M13.3332 21.3333H2.6665V19.9999H13.3332V21.3333Z" fill="#F2F0FF"/>
<path d="M0.666506 28.041C0.666465 28.4771 0.666428 28.8689 0.709066 29.186C0.755616 29.5323 0.863705 29.8875 1.15466 30.1784C1.44562 30.4694 1.80083 30.5775 2.14707 30.624C2.46421 30.6667 2.85602 30.6666 3.2921 30.6666H12.7076C13.1437 30.6666 13.5355 30.6667 13.8526 30.624C14.1989 30.5775 14.5541 30.4694 14.845 30.1784C15.136 29.8875 15.2441 29.5323 15.2906 29.186C15.3333 28.8689 15.3332 28.4771 15.3332 28.041V25.2922C15.3332 24.8561 15.3333 24.4643 15.2906 24.1472C15.2441 23.8009 15.136 23.4457 14.845 23.1547C14.5541 22.8638 14.1989 22.7557 13.8526 22.7091C13.5355 22.6665 13.1437 22.6665 12.7076 22.6666H3.2921C2.85602 22.6665 2.46421 22.6665 2.14707 22.7091C1.80083 22.7557 1.44562 22.8638 1.15466 23.1547C0.863705 23.4457 0.755616 23.8009 0.709066 24.1472C0.666428 24.4643 0.666465 24.8561 0.666506 25.2922V28.041Z" fill="#F2F0FF"/>
<path d="M4.6665 2.66659H11.3332V1.33325H4.6665V2.66659Z" fill="#101019"/>
<path d="M13.3332 5.33325H2.6665V3.99992H13.3332V5.33325Z" fill="#101019"/>
<path d="M0.666506 12.041C0.666465 12.4771 0.666428 12.8689 0.709066 13.186C0.755616 13.5323 0.863705 13.8875 1.15466 14.1784C1.44562 14.4694 1.80083 14.5775 2.14707 14.624C2.46421 14.6667 2.85602 14.6666 3.2921 14.6666H12.7076C13.1437 14.6666 13.5355 14.6667 13.8526 14.624C14.1989 14.5775 14.5541 14.4694 14.845 14.1784C15.136 13.8875 15.2441 13.5323 15.2906 13.186C15.3333 12.8689 15.3332 12.4771 15.3332 12.041V9.2922C15.3332 8.85611 15.3333 8.46429 15.2906 8.14715C15.2441 7.80091 15.136 7.4457 14.845 7.15475C14.5541 6.86379 14.1989 6.7557 13.8526 6.70915C13.5355 6.66651 13.1437 6.66655 12.7076 6.66659H3.2921C2.85602 6.66655 2.46421 6.66651 2.14707 6.70915C1.80083 6.7557 1.44562 6.86379 1.15466 7.15475C0.863705 7.4457 0.755616 7.80091 0.709066 8.14715C0.666428 8.46429 0.666465 8.8561 0.666506 9.29219V12.041Z" fill="#101019"/>
</svg>
